<svg width="310" height="24" viewBox="0 0 310 24" fill="none" xmlns="http://www.w3.org/2000/svg">
<path fill-rule="evenodd" clip-rule="evenodd" d="M24 0H0V24H24V0ZM19.6594 7.96866C19.6594 7.96866 20.2439 8.75392 20.2439 9.21843C20.2439 9.57046 20.1252 9.81044 19.9489 10.1668C19.9036 10.2583 19.8546 10.3575 19.8028 10.4682C19.3616 11.3862 18.5676 13.0562 18.4904 13.2332L16.737 17.0046C16.5936 17.3143 16.3841 17.5687 16.0974 17.7346C15.8106 17.9005 15.5018 17.9889 15.16 17.9889C14.8181 17.9889 14.5093 17.9005 14.2336 17.7346C13.9579 17.5687 13.7484 17.3253 13.605 17.0046L12.6456 14.87C12.6456 14.87 12.4581 14.4719 12.4361 14.4166L12.1273 13.7419L12.1052 13.6977C12.0611 13.6203 11.9619 13.4654 11.8075 13.4654C11.609 13.4654 11.4987 13.6977 11.4877 13.7309L10.0981 17.0157C9.9658 17.3253 9.76729 17.5797 9.48056 17.7456C9.19384 17.9115 8.88505 18 8.54318 18C8.20132 18 7.89253 17.9115 7.60581 17.7456C7.33011 17.5797 7.10955 17.3364 6.95515 17.0157L3.9004 10.4129C3.81218 10.2249 3.76807 10.0258 3.76807 9.80461C3.76807 9.39539 3.94451 9.04147 4.28638 8.75392C4.63928 8.46636 5.02526 8.32258 5.45535 8.32258C5.76413 8.32258 6.03983 8.4 6.28245 8.55484C6.53609 8.70968 6.72357 8.953 6.84487 9.28479L7.16469 10.059V10.07C7.18674 10.1253 7.27497 10.3244 7.45141 10.3244C7.62786 10.3244 7.74917 10.059 7.74917 10.059L9.18281 6.98433C9.32617 6.67465 9.5357 6.42028 9.82243 6.25438C10.1092 6.08848 10.4179 6 10.7598 6C11.1017 6 11.4105 6.08848 11.6862 6.25438C11.9619 6.42028 12.1714 6.66359 12.3148 6.98433L13.2852 9.12995L13.4948 9.58341L13.8256 10.3355C13.8256 10.3355 13.9359 10.5899 14.1123 10.5899C14.2888 10.5899 14.4101 10.3244 14.4101 10.3244L15.8106 6.98433C15.943 6.67465 16.1415 6.42028 16.4282 6.25438C16.7149 6.08848 17.0237 6 17.3656 6C17.7074 6 18.0162 6.08848 18.303 6.25438C18.5897 6.43134 19.4278 7.60369 19.6594 7.96866Z" fill="#F7C974"/>
<path fill-rule="evenodd" clip-rule="evenodd" d="M50 0H26V24H50V0ZM45.6594 7.96866C45.6594 7.96866 46.2439 8.75392 46.2439 9.21843C46.2439 9.57046 46.1252 9.81044 45.9489 10.1668C45.9036 10.2583 45.8546 10.3575 45.8028 10.4682C45.3616 11.3862 44.5676 13.0562 44.4904 13.2332L42.737 17.0046C42.5936 17.3143 42.3841 17.5687 42.0974 17.7346C41.8106 17.9005 41.5018 17.9889 41.16 17.9889C40.8181 17.9889 40.5093 17.9005 40.2336 17.7346C39.9579 17.5687 39.7484 17.3253 39.605 17.0046L38.6456 14.87C38.6456 14.87 38.4581 14.4719 38.4361 14.4166L38.1273 13.7419L38.1052 13.6977C38.0611 13.6203 37.9619 13.4654 37.8075 13.4654C37.609 13.4654 37.4987 13.6977 37.4877 13.7309L36.0981 17.0157C35.9658 17.3253 35.7673 17.5797 35.4806 17.7456C35.1938 17.9115 34.8851 18 34.5432 18C34.2013 18 33.8925 17.9115 33.6058 17.7456C33.3301 17.5797 33.1095 17.3364 32.9552 17.0157L29.9004 10.4129C29.8122 10.2249 29.7681 10.0258 29.7681 9.80461C29.7681 9.39539 29.9445 9.04147 30.2864 8.75392C30.6393 8.46636 31.0253 8.32258 31.4553 8.32258C31.7641 8.32258 32.0398 8.4 32.2824 8.55484C32.5361 8.70968 32.7236 8.953 32.8449 9.28479L33.1647 10.059V10.07C33.1867 10.1253 33.275 10.3244 33.4514 10.3244C33.6279 10.3244 33.7492 10.059 33.7492 10.059L35.1828 6.98433C35.3262 6.67465 35.5357 6.42028 35.8224 6.25438C36.1092 6.08848 36.4179 6 36.7598 6C37.1017 6 37.4105 6.08848 37.6862 6.25438C37.9619 6.42028 38.1714 6.66359 38.3148 6.98433L39.2852 9.12995L39.4948 9.58341L39.8256 10.3355C39.8256 10.3355 39.9359 10.5899 40.1123 10.5899C40.2888 10.5899 40.4101 10.3244 40.4101 10.3244L41.8106 6.98433C41.943 6.67465 42.1415 6.42028 42.4282 6.25438C42.7149 6.08848 43.0237 6 43.3656 6C43.7074 6 44.0162 6.08848 44.303 6.25438C44.5897 6.43134 45.4278 7.60369 45.6594 7.96866Z" fill="#A6C2D0"/>
<path fill-rule="evenodd" clip-rule="evenodd" d="M76 0H52V24H76V0ZM71.6594 7.96866C71.6594 7.96866 72.2439 8.75392 72.2439 9.21843C72.2439 9.57046 72.1252 9.81044 71.9489 10.1668C71.9036 10.2583 71.8546 10.3575 71.8028 10.4682C71.3616 11.3862 70.5676 13.0562 70.4904 13.2332L68.737 17.0046C68.5936 17.3143 68.3841 17.5687 68.0974 17.7346C67.8106 17.9005 67.5018 17.9889 67.16 17.9889C66.8181 17.9889 66.5093 17.9005 66.2336 17.7346C65.9579 17.5687 65.7484 17.3253 65.605 17.0046L64.6456 14.87C64.6456 14.87 64.4581 14.4719 64.4361 14.4166L64.1273 13.7419L64.1052 13.6977C64.0611 13.6203 63.9619 13.4654 63.8075 13.4654C63.609 13.4654 63.4987 13.6977 63.4877 13.7309L62.0981 17.0157C61.9658 17.3253 61.7673 17.5797 61.4806 17.7456C61.1938 17.9115 60.8851 18 60.5432 18C60.2013 18 59.8925 17.9115 59.6058 17.7456C59.3301 17.5797 59.1095 17.3364 58.9552 17.0157L55.9004 10.4129C55.8122 10.2249 55.7681 10.0258 55.7681 9.80461C55.7681 9.39539 55.9445 9.04147 56.2864 8.75392C56.6393 8.46636 57.0253 8.32258 57.4553 8.32258C57.7641 8.32258 58.0398 8.4 58.2824 8.55484C58.5361 8.70968 58.7236 8.953 58.8449 9.28479L59.1647 10.059V10.07C59.1867 10.1253 59.275 10.3244 59.4514 10.3244C59.6279 10.3244 59.7492 10.059 59.7492 10.059L61.1828 6.98433C61.3262 6.67465 61.5357 6.42028 61.8224 6.25438C62.1092 6.08848 62.4179 6 62.7598 6C63.1017 6 63.4105 6.08848 63.6862 6.25438C63.9619 6.42028 64.1714 6.66359 64.3148 6.98433L65.2852 9.12995L65.4948 9.58341L65.8256 10.3355C65.8256 10.3355 65.9359 10.5899 66.1123 10.5899C66.2888 10.5899 66.4101 10.3244 66.4101 10.3244L67.8106 6.98433C67.943 6.67465 68.1415 6.42028 68.4282 6.25438C68.7149 6.08848 69.0237 6 69.3656 6C69.7074 6 70.0162 6.08848 70.303 6.25438C70.5897 6.43134 71.4278 7.60369 71.6594 7.96866Z" fill="#D6F279"/>
<path fill-rule="evenodd" clip-rule="evenodd" d="M102 0H78V24H102V0ZM97.6594 7.96866C97.6594 7.96866 98.2439 8.75392 98.2439 9.21843C98.2439 9.57046 98.1252 9.81044 97.9489 10.1668C97.9036 10.2583 97.8546 10.3575 97.8028 10.4682C97.3616 11.3862 96.5676 13.0562 96.4904 13.2332L94.737 17.0046C94.5936 17.3143 94.3841 17.5687 94.0974 17.7346C93.8106 17.9005 93.5018 17.9889 93.16 17.9889C92.8181 17.9889 92.5093 17.9005 92.2336 17.7346C91.9579 17.5687 91.7484 17.3253 91.605 17.0046L90.6456 14.87C90.6456 14.87 90.4581 14.4719 90.4361 14.4166L90.1273 13.7419L90.1052 13.6977C90.0611 13.6203 89.9619 13.4654 89.8075 13.4654C89.609 13.4654 89.4987 13.6977 89.4877 13.7309L88.0981 17.0157C87.9658 17.3253 87.7673 17.5797 87.4806 17.7456C87.1938 17.9115 86.8851 18 86.5432 18C86.2013 18 85.8925 17.9115 85.6058 17.7456C85.3301 17.5797 85.1095 17.3364 84.9552 17.0157L81.9004 10.4129C81.8122 10.2249 81.7681 10.0258 81.7681 9.80461C81.7681 9.39539 81.9445 9.04147 82.2864 8.75392C82.6393 8.46636 83.0253 8.32258 83.4553 8.32258C83.7641 8.32258 84.0398 8.4 84.2824 8.55484C84.5361 8.70968 84.7236 8.953 84.8449 9.28479L85.1647 10.059V10.07C85.1867 10.1253 85.275 10.3244 85.4514 10.3244C85.6279 10.3244 85.7492 10.059 85.7492 10.059L87.1828 6.98433C87.3262 6.67465 87.5357 6.42028 87.8224 6.25438C88.1092 6.08848 88.4179 6 88.7598 6C89.1017 6 89.4105 6.08848 89.6862 6.25438C89.9619 6.42028 90.1714 6.66359 90.3148 6.98433L91.2852 9.12995L91.4948 9.58341L91.8256 10.3355C91.8256 10.3355 91.9359 10.5899 92.1123 10.5899C92.2888 10.5899 92.4101 10.3244 92.4101 10.3244L93.8106 6.98433C93.943 6.67465 94.1415 6.42028 94.4282 6.25438C94.7149 6.08848 95.0237 6 95.3656 6C95.7074 6 96.0162 6.08848 96.303 6.25438C96.5897 6.43134 97.4278 7.60369 97.6594 7.96866Z" fill="#F7D6D9"/>
<path fill-rule="evenodd" clip-rule="evenodd" d="M128 0H104V24H128V0ZM123.659 7.96866C123.659 7.96866 124.244 8.75392 124.244 9.21843C124.244 9.57046 124.125 9.81044 123.949 10.1668C123.904 10.2583 123.855 10.3575 123.803 10.4682C123.362 11.3862 122.568 13.0562 122.49 13.2332L120.737 17.0046C120.594 17.3143 120.384 17.5687 120.097 17.7346C119.811 17.9005 119.502 17.9889 119.16 17.9889C118.818 17.9889 118.509 17.9005 118.234 17.7346C117.958 17.5687 117.748 17.3253 117.605 17.0046L116.646 14.87C116.646 14.87 116.458 14.4719 116.436 14.4166L116.127 13.7419L116.105 13.6977C116.061 13.6203 115.962 13.4654 115.807 13.4654C115.609 13.4654 115.499 13.6977 115.488 13.7309L114.098 17.0157C113.966 17.3253 113.767 17.5797 113.481 17.7456C113.194 17.9115 112.885 18 112.543 18C112.201 18 111.893 17.9115 111.606 17.7456C111.33 17.5797 111.11 17.3364 110.955 17.0157L107.9 10.4129C107.812 10.2249 107.768 10.0258 107.768 9.80461C107.768 9.39539 107.945 9.04147 108.286 8.75392C108.639 8.46636 109.025 8.32258 109.455 8.32258C109.764 8.32258 110.04 8.4 110.282 8.55484C110.536 8.70968 110.724 8.953 110.845 9.28479L111.165 10.059V10.07C111.187 10.1253 111.275 10.3244 111.451 10.3244C111.628 10.3244 111.749 10.059 111.749 10.059L113.183 6.98433C113.326 6.67465 113.536 6.42028 113.822 6.25438C114.109 6.08848 114.418 6 114.76 6C115.102 6 115.41 6.08848 115.686 6.25438C115.962 6.42028 116.171 6.66359 116.315 6.98433L117.285 9.12995L117.495 9.58341L117.826 10.3355C117.826 10.3355 117.936 10.5899 118.112 10.5899C118.289 10.5899 118.41 10.3244 118.41 10.3244L119.811 6.98433C119.943 6.67465 120.141 6.42028 120.428 6.25438C120.715 6.08848 121.024 6 121.366 6C121.707 6 122.016 6.08848 122.303 6.25438C122.59 6.43134 123.428 7.60369 123.659 7.96866Z" fill="#F5E257"/>
<path fill-rule="evenodd" clip-rule="evenodd" d="M154 0H130V24H154V0ZM149.659 7.96866C149.659 7.96866 150.244 8.75392 150.244 9.21843C150.244 9.57046 150.125 9.81044 149.949 10.1668C149.904 10.2583 149.855 10.3575 149.803 10.4682C149.362 11.3862 148.568 13.0562 148.49 13.2332L146.737 17.0046C146.594 17.3143 146.384 17.5687 146.097 17.7346C145.811 17.9005 145.502 17.9889 145.16 17.9889C144.818 17.9889 144.509 17.9005 144.234 17.7346C143.958 17.5687 143.748 17.3253 143.605 17.0046L142.646 14.87C142.646 14.87 142.458 14.4719 142.436 14.4166L142.127 13.7419L142.105 13.6977C142.061 13.6203 141.962 13.4654 141.807 13.4654C141.609 13.4654 141.499 13.6977 141.488 13.7309L140.098 17.0157C139.966 17.3253 139.767 17.5797 139.481 17.7456C139.194 17.9115 138.885 18 138.543 18C138.201 18 137.893 17.9115 137.606 17.7456C137.33 17.5797 137.11 17.3364 136.955 17.0157L133.9 10.4129C133.812 10.2249 133.768 10.0258 133.768 9.80461C133.768 9.39539 133.945 9.04147 134.286 8.75392C134.639 8.46636 135.025 8.32258 135.455 8.32258C135.764 8.32258 136.04 8.4 136.282 8.55484C136.536 8.70968 136.724 8.953 136.845 9.28479L137.165 10.059V10.07C137.187 10.1253 137.275 10.3244 137.451 10.3244C137.628 10.3244 137.749 10.059 137.749 10.059L139.183 6.98433C139.326 6.67465 139.536 6.42028 139.822 6.25438C140.109 6.08848 140.418 6 140.76 6C141.102 6 141.41 6.08848 141.686 6.25438C141.962 6.42028 142.171 6.66359 142.315 6.98433L143.285 9.12995L143.495 9.58341L143.826 10.3355C143.826 10.3355 143.936 10.5899 144.112 10.5899C144.289 10.5899 144.41 10.3244 144.41 10.3244L145.811 6.98433C145.943 6.67465 146.141 6.42028 146.428 6.25438C146.715 6.08848 147.024 6 147.366 6C147.707 6 148.016 6.08848 148.303 6.25438C148.59 6.43134 149.428 7.60369 149.659 7.96866Z" fill="#E57B9F"/>
<path fill-rule="evenodd" clip-rule="evenodd" d="M180 0H156V24H180V0ZM175.659 7.96866C175.659 7.96866 176.244 8.75392 176.244 9.21843C176.244 9.57046 176.125 9.81044 175.949 10.1668C175.904 10.2583 175.855 10.3575 175.803 10.4682C175.362 11.3862 174.568 13.0562 174.49 13.2332L172.737 17.0046C172.594 17.3143 172.384 17.5687 172.097 17.7346C171.811 17.9005 171.502 17.9889 171.16 17.9889C170.818 17.9889 170.509 17.9005 170.234 17.7346C169.958 17.5687 169.748 17.3253 169.605 17.0046L168.646 14.87C168.646 14.87 168.458 14.4719 168.436 14.4166L168.127 13.7419L168.105 13.6977C168.061 13.6203 167.962 13.4654 167.807 13.4654C167.609 13.4654 167.499 13.6977 167.488 13.7309L166.098 17.0157C165.966 17.3253 165.767 17.5797 165.481 17.7456C165.194 17.9115 164.885 18 164.543 18C164.201 18 163.893 17.9115 163.606 17.7456C163.33 17.5797 163.11 17.3364 162.955 17.0157L159.9 10.4129C159.812 10.2249 159.768 10.0258 159.768 9.80461C159.768 9.39539 159.945 9.04147 160.286 8.75392C160.639 8.46636 161.025 8.32258 161.455 8.32258C161.764 8.32258 162.04 8.4 162.282 8.55484C162.536 8.70968 162.724 8.953 162.845 9.28479L163.165 10.059V10.07C163.187 10.1253 163.275 10.3244 163.451 10.3244C163.628 10.3244 163.749 10.059 163.749 10.059L165.183 6.98433C165.326 6.67465 165.536 6.42028 165.822 6.25438C166.109 6.08848 166.418 6 166.76 6C167.102 6 167.41 6.08848 167.686 6.25438C167.962 6.42028 168.171 6.66359 168.315 6.98433L169.285 9.12995L169.495 9.58341L169.826 10.3355C169.826 10.3355 169.936 10.5899 170.112 10.5899C170.289 10.5899 170.41 10.3244 170.41 10.3244L171.811 6.98433C171.943 6.67465 172.141 6.42028 172.428 6.25438C172.715 6.08848 173.024 6 173.366 6C173.707 6 174.016 6.08848 174.303 6.25438C174.59 6.43134 175.428 7.60369 175.659 7.96866Z" fill="#EC5540"/>
<path fill-rule="evenodd" clip-rule="evenodd" d="M206 0H182V24H206V0ZM201.659 7.96866C201.659 7.96866 202.244 8.75392 202.244 9.21843C202.244 9.57046 202.125 9.81044 201.949 10.1668C201.904 10.2583 201.855 10.3575 201.803 10.4682C201.362 11.3862 200.568 13.0562 200.49 13.2332L198.737 17.0046C198.594 17.3143 198.384 17.5687 198.097 17.7346C197.811 17.9005 197.502 17.9889 197.16 17.9889C196.818 17.9889 196.509 17.9005 196.234 17.7346C195.958 17.5687 195.748 17.3253 195.605 17.0046L194.646 14.87C194.646 14.87 194.458 14.4719 194.436 14.4166L194.127 13.7419L194.105 13.6977C194.061 13.6203 193.962 13.4654 193.807 13.4654C193.609 13.4654 193.499 13.6977 193.488 13.7309L192.098 17.0157C191.966 17.3253 191.767 17.5797 191.481 17.7456C191.194 17.9115 190.885 18 190.543 18C190.201 18 189.893 17.9115 189.606 17.7456C189.33 17.5797 189.11 17.3364 188.955 17.0157L185.9 10.4129C185.812 10.2249 185.768 10.0258 185.768 9.80461C185.768 9.39539 185.945 9.04147 186.286 8.75392C186.639 8.46636 187.025 8.32258 187.455 8.32258C187.764 8.32258 188.04 8.4 188.282 8.55484C188.536 8.70968 188.724 8.953 188.845 9.28479L189.165 10.059V10.07C189.187 10.1253 189.275 10.3244 189.451 10.3244C189.628 10.3244 189.749 10.059 189.749 10.059L191.183 6.98433C191.326 6.67465 191.536 6.42028 191.822 6.25438C192.109 6.08848 192.418 6 192.76 6C193.102 6 193.41 6.08848 193.686 6.25438C193.962 6.42028 194.171 6.66359 194.315 6.98433L195.285 9.12995L195.495 9.58341L195.826 10.3355C195.826 10.3355 195.936 10.5899 196.112 10.5899C196.289 10.5899 196.41 10.3244 196.41 10.3244L197.811 6.98433C197.943 6.67465 198.141 6.42028 198.428 6.25438C198.715 6.08848 199.024 6 199.366 6C199.707 6 200.016 6.08848 200.303 6.25438C200.59 6.43134 201.428 7.60369 201.659 7.96866Z" fill="#609BEE"/>
<path fill-rule="evenodd" clip-rule="evenodd" d="M232 0H208V24H232V0ZM227.659 7.96866C227.659 7.96866 228.244 8.75392 228.244 9.21843C228.244 9.57046 228.125 9.81044 227.949 10.1668C227.904 10.2583 227.855 10.3575 227.803 10.4682C227.362 11.3862 226.568 13.0562 226.49 13.2332L224.737 17.0046C224.594 17.3143 224.384 17.5687 224.097 17.7346C223.811 17.9005 223.502 17.9889 223.16 17.9889C222.818 17.9889 222.509 17.9005 222.234 17.7346C221.958 17.5687 221.748 17.3253 221.605 17.0046L220.646 14.87C220.646 14.87 220.458 14.4719 220.436 14.4166L220.127 13.7419L220.105 13.6977C220.061 13.6203 219.962 13.4654 219.807 13.4654C219.609 13.4654 219.499 13.6977 219.488 13.7309L218.098 17.0157C217.966 17.3253 217.767 17.5797 217.481 17.7456C217.194 17.9115 216.885 18 216.543 18C216.201 18 215.893 17.9115 215.606 17.7456C215.33 17.5797 215.11 17.3364 214.955 17.0157L211.9 10.4129C211.812 10.2249 211.768 10.0258 211.768 9.80461C211.768 9.39539 211.945 9.04147 212.286 8.75392C212.639 8.46636 213.025 8.32258 213.455 8.32258C213.764 8.32258 214.04 8.4 214.282 8.55484C214.536 8.70968 214.724 8.953 214.845 9.28479L215.165 10.059V10.07C215.187 10.1253 215.275 10.3244 215.451 10.3244C215.628 10.3244 215.749 10.059 215.749 10.059L217.183 6.98433C217.326 6.67465 217.536 6.42028 217.822 6.25438C218.109 6.08848 218.418 6 218.76 6C219.102 6 219.41 6.08848 219.686 6.25438C219.962 6.42028 220.171 6.66359 220.315 6.98433L221.285 9.12995L221.495 9.58341L221.826 10.3355C221.826 10.3355 221.936 10.5899 222.112 10.5899C222.289 10.5899 222.41 10.3244 222.41 10.3244L223.811 6.98433C223.943 6.67465 224.141 6.42028 224.428 6.25438C224.715 6.08848 225.024 6 225.366 6C225.707 6 226.016 6.08848 226.303 6.25438C226.59 6.43134 227.428 7.60369 227.659 7.96866Z" fill="#F7C974"/>
<path fill-rule="evenodd" clip-rule="evenodd" d="M258 0H234V24H258V0ZM253.659 7.96866C253.659 7.96866 254.244 8.75392 254.244 9.21843C254.244 9.57046 254.125 9.81044 253.949 10.1668C253.904 10.2583 253.855 10.3575 253.803 10.4682C253.362 11.3862 252.568 13.0562 252.49 13.2332L250.737 17.0046C250.594 17.3143 250.384 17.5687 250.097 17.7346C249.811 17.9005 249.502 17.9889 249.16 17.9889C248.818 17.9889 248.509 17.9005 248.234 17.7346C247.958 17.5687 247.748 17.3253 247.605 17.0046L246.646 14.87C246.646 14.87 246.458 14.4719 246.436 14.4166L246.127 13.7419L246.105 13.6977C246.061 13.6203 245.962 13.4654 245.807 13.4654C245.609 13.4654 245.499 13.6977 245.488 13.7309L244.098 17.0157C243.966 17.3253 243.767 17.5797 243.481 17.7456C243.194 17.9115 242.885 18 242.543 18C242.201 18 241.893 17.9115 241.606 17.7456C241.33 17.5797 241.11 17.3364 240.955 17.0157L237.9 10.4129C237.812 10.2249 237.768 10.0258 237.768 9.80461C237.768 9.39539 237.945 9.04147 238.286 8.75392C238.639 8.46636 239.025 8.32258 239.455 8.32258C239.764 8.32258 240.04 8.4 240.282 8.55484C240.536 8.70968 240.724 8.953 240.845 9.28479L241.165 10.059V10.07C241.187 10.1253 241.275 10.3244 241.451 10.3244C241.628 10.3244 241.749 10.059 241.749 10.059L243.183 6.98433C243.326 6.67465 243.536 6.42028 243.822 6.25438C244.109 6.08848 244.418 6 244.76 6C245.102 6 245.41 6.08848 245.686 6.25438C245.962 6.42028 246.171 6.66359 246.315 6.98433L247.285 9.12995L247.495 9.58341L247.826 10.3355C247.826 10.3355 247.936 10.5899 248.112 10.5899C248.289 10.5899 248.41 10.3244 248.41 10.3244L249.811 6.98433C249.943 6.67465 250.141 6.42028 250.428 6.25438C250.715 6.08848 251.024 6 251.366 6C251.707 6 252.016 6.08848 252.303 6.25438C252.59 6.43134 253.428 7.60369 253.659 7.96866Z" fill="#A6C2D0"/>
<path fill-rule="evenodd" clip-rule="evenodd" d="M284 0H260V24H284V0ZM279.659 7.96866C279.659 7.96866 280.244 8.75392 280.244 9.21843C280.244 9.57046 280.125 9.81044 279.949 10.1668C279.904 10.2583 279.855 10.3575 279.803 10.4682C279.362 11.3862 278.568 13.0562 278.49 13.2332L276.737 17.0046C276.594 17.3143 276.384 17.5687 276.097 17.7346C275.811 17.9005 275.502 17.9889 275.16 17.9889C274.818 17.9889 274.509 17.9005 274.234 17.7346C273.958 17.5687 273.748 17.3253 273.605 17.0046L272.646 14.87C272.646 14.87 272.458 14.4719 272.436 14.4166L272.127 13.7419L272.105 13.6977C272.061 13.6203 271.962 13.4654 271.807 13.4654C271.609 13.4654 271.499 13.6977 271.488 13.7309L270.098 17.0157C269.966 17.3253 269.767 17.5797 269.481 17.7456C269.194 17.9115 268.885 18 268.543 18C268.201 18 267.893 17.9115 267.606 17.7456C267.33 17.5797 267.11 17.3364 266.955 17.0157L263.9 10.4129C263.812 10.2249 263.768 10.0258 263.768 9.80461C263.768 9.39539 263.945 9.04147 264.286 8.75392C264.639 8.46636 265.025 8.32258 265.455 8.32258C265.764 8.32258 266.04 8.4 266.282 8.55484C266.536 8.70968 266.724 8.953 266.845 9.28479L267.165 10.059V10.07C267.187 10.1253 267.275 10.3244 267.451 10.3244C267.628 10.3244 267.749 10.059 267.749 10.059L269.183 6.98433C269.326 6.67465 269.536 6.42028 269.822 6.25438C270.109 6.08848 270.418 6 270.76 6C271.102 6 271.41 6.08848 271.686 6.25438C271.962 6.42028 272.171 6.66359 272.315 6.98433L273.285 9.12995L273.495 9.58341L273.826 10.3355C273.826 10.3355 273.936 10.5899 274.112 10.5899C274.289 10.5899 274.41 10.3244 274.41 10.3244L275.811 6.98433C275.943 6.67465 276.141 6.42028 276.428 6.25438C276.715 6.08848 277.024 6 277.366 6C277.707 6 278.016 6.08848 278.303 6.25438C278.59 6.43134 279.428 7.60369 279.659 7.96866Z" fill="#D6F279"/>
<path fill-rule="evenodd" clip-rule="evenodd" d="M310 0H286V24H310V0ZM305.659 7.96866C305.659 7.96866 306.244 8.75392 306.244 9.21843C306.244 9.57046 306.125 9.81044 305.949 10.1668C305.904 10.2583 305.855 10.3575 305.803 10.4682C305.362 11.3862 304.568 13.0562 304.49 13.2332L302.737 17.0046C302.594 17.3143 302.384 17.5687 302.097 17.7346C301.811 17.9005 301.502 17.9889 301.16 17.9889C300.818 17.9889 300.509 17.9005 300.234 17.7346C299.958 17.5687 299.748 17.3253 299.605 17.0046L298.646 14.87C298.646 14.87 298.458 14.4719 298.436 14.4166L298.127 13.7419L298.105 13.6977C298.061 13.6203 297.962 13.4654 297.807 13.4654C297.609 13.4654 297.499 13.6977 297.488 13.7309L296.098 17.0157C295.966 17.3253 295.767 17.5797 295.481 17.7456C295.194 17.9115 294.885 18 294.543 18C294.201 18 293.893 17.9115 293.606 17.7456C293.33 17.5797 293.11 17.3364 292.955 17.0157L289.9 10.4129C289.812 10.2249 289.768 10.0258 289.768 9.80461C289.768 9.39539 289.945 9.04147 290.286 8.75392C290.639 8.46636 291.025 8.32258 291.455 8.32258C291.764 8.32258 292.04 8.4 292.282 8.55484C292.536 8.70968 292.724 8.953 292.845 9.28479L293.165 10.059V10.07C293.187 10.1253 293.275 10.3244 293.451 10.3244C293.628 10.3244 293.749 10.059 293.749 10.059L295.183 6.98433C295.326 6.67465 295.536 6.42028 295.822 6.25438C296.109 6.08848 296.418 6 296.76 6C297.102 6 297.41 6.08848 297.686 6.25438C297.962 6.42028 298.171 6.66359 298.315 6.98433L299.285 9.12995L299.495 9.58341L299.826 10.3355C299.826 10.3355 299.936 10.5899 300.112 10.5899C300.289 10.5899 300.41 10.3244 300.41 10.3244L301.811 6.98433C301.943 6.67465 302.141 6.42028 302.428 6.25438C302.715 6.08848 303.024 6 303.366 6C303.707 6 304.016 6.08848 304.303 6.25438C304.59 6.43134 305.428 7.60369 305.659 7.96866Z" fill="#F7D6D9"/>
</svg>
