<svg width="140" height="140" viewBox="0 0 140 140" fill="none" xmlns="http://www.w3.org/2000/svg">
<rect width="140" height="140" fill="#161313"/>
<path d="M118.089 53.7742C118.089 51.0645 114.679 46.4839 114.679 46.4839C113.328 44.3548 108.439 37.5161 106.767 36.4839C105.094 35.5161 103.293 35 101.299 35C99.3045 35 97.5033 35.5161 95.8307 36.4839C94.1582 37.4516 93.0002 38.9355 92.2283 40.7419L84.0584 60.2258C84.0584 60.2258 83.3507 61.7742 82.3214 61.7742C81.2922 61.7742 80.6489 60.2903 80.6489 60.2903L78.719 55.9032L77.4967 53.2581L71.8357 40.7419C70.9994 38.871 69.7771 37.4516 68.1689 36.4839C66.5606 35.5161 64.7594 35 62.7652 35C60.7709 35 58.9697 35.5161 57.2971 36.4839C55.6245 37.4516 54.4023 38.9355 53.566 40.7419L45.2031 58.6774C45.2031 58.6774 44.4955 60.2258 43.4662 60.2258C42.4369 60.2258 41.9223 59.0645 41.7936 58.7419V58.6774L39.928 54.1613C39.2204 52.2258 38.1268 50.8065 36.6472 49.9032C35.2319 49 33.6237 48.5484 31.8225 48.5484C29.3136 48.5484 27.062 49.3871 25.0035 51.0645C23.0093 52.7419 21.98 54.8065 21.98 57.1935C21.98 58.4839 22.2373 59.6452 22.7519 60.7419L40.5713 99.2581C41.4719 101.129 42.7585 102.548 44.3668 103.516C46.0394 104.484 47.8406 105 49.8348 105C51.8291 105 53.6303 104.484 55.3029 103.516C56.9755 102.548 58.1334 101.065 58.9054 99.2581L67.0109 80.0968C67.0753 79.9032 67.7186 78.5484 68.8765 78.5484C69.7771 78.5484 70.3561 79.4516 70.6134 79.9032L70.7421 80.1613L72.5433 84.0968C72.672 84.4194 73.7656 86.7419 73.7656 86.7419L79.3623 99.1935C80.1986 101.065 81.4208 102.484 83.0291 103.452C84.6373 104.419 86.4386 104.935 88.4328 104.935C90.427 104.935 92.2283 104.419 93.9008 103.452C95.5734 102.484 96.7957 101 97.632 99.1935L107.86 77.1935C108.311 76.1613 112.942 66.4194 115.516 61.0645C116.995 57.9032 118.089 56.3548 118.089 53.7742Z" fill="white"/>
</svg>
