<svg width="24" height="24" viewBox="0 0 24 24" fill="none" xmlns="http://www.w3.org/2000/svg">
<path fill-rule="evenodd" clip-rule="evenodd" d="M13.7846 16.9982L15.7495 12.5759L17.7157 16.9982H13.7846ZM21.8918 20.2406L16.892 8.99099C16.6907 8.53975 16.2445 8.24852 15.7495 8.24852C15.2558 8.24852 14.8083 8.53975 14.607 8.99099L12.1596 14.4983H11.9996C10.4047 14.4983 9.19974 14.1246 8.29352 13.6033C8.29852 13.5971 8.30352 13.5946 8.30852 13.5883C9.92346 11.7846 10.5297 9.16848 10.7347 6.99856H11.9996C12.6909 6.99856 13.2496 6.43858 13.2496 5.74861C13.2496 5.05863 12.6909 4.49865 11.9996 4.49865H10.8222C10.8034 3.71118 10.7497 3.18495 10.7422 3.1112C10.6672 2.42622 10.0635 1.93874 9.36348 2.00624C8.67726 2.08249 8.18353 2.69996 8.25727 3.38494C8.25852 3.40119 8.30102 3.83367 8.31977 4.49865H3.24995C2.55998 4.49865 2 5.05863 2 5.74861C2 6.43858 2.55998 6.99856 3.24995 6.99856H8.22603C8.04603 8.711 7.58105 10.6497 6.45109 11.9159C5.91986 11.1584 5.73112 10.5097 5.71112 10.4372C5.53987 9.77221 4.86615 9.36723 4.19742 9.53597C3.52744 9.70346 3.11996 10.3822 3.2887 11.0522C3.4362 11.6446 3.75494 12.3909 4.26117 13.1508C3.94368 13.2133 3.60869 13.2483 3.24995 13.2483C2.55998 13.2483 2 13.8083 2 14.4983C2 15.1883 2.55998 15.7482 3.24995 15.7482C4.31992 15.7482 5.28488 15.5483 6.1511 15.1645C7.35356 16.082 8.96725 16.7932 11.0659 16.9582L9.60723 20.2406C9.32849 20.8718 9.61098 21.6093 10.2422 21.8905C10.8747 22.1743 11.6134 21.8868 11.8921 21.2555L12.6734 19.4981H18.8256L19.6069 21.2555C19.8144 21.7218 20.2706 21.998 20.7506 21.998C20.9206 21.998 21.0931 21.9643 21.2581 21.8905C21.888 21.6093 22.1718 20.8718 21.8918 20.2406Z" fill="black"/>
</svg>
