<svg width="24" height="24" viewBox="0 0 24 24" fill="none" xmlns="http://www.w3.org/2000/svg">
<g id="moon">
<path id="Combined Shape" d="M20.5762 14.1523L21.523 14.4742C21.6455 14.1135 21.5526 13.7146 21.2833 13.4452C21.0139 13.1759 20.615 13.0829 20.2543 13.2055L20.5762 14.1523ZM10.4238 4L11.3706 4.32185C11.4932 3.9612 11.4003 3.56224 11.1309 3.29289C10.8616 3.02355 10.4626 2.93062 10.102 3.05321L10.4238 4ZM18 15.5762C19.0122 15.5762 19.9873 15.4087 20.898 15.0991L20.2543 13.2055C19.5482 13.4455 18.7904 13.5762 18 13.5762V15.5762ZM9 6.57616C9 11.5467 13.0294 15.5762 18 15.5762V13.5762C14.134 13.5762 11 10.4422 11 6.57616H9ZM9.47705 3.67816C9.16748 4.58882 9 5.56396 9 6.57616H11C11 5.78576 11.1306 5.02793 11.3706 4.32185L9.47705 3.67816ZM10.102 3.05321C6.55453 4.2591 4 7.61801 4 11.5762H6C6 8.50035 7.98441 5.88544 10.7457 4.94679L10.102 3.05321ZM4 11.5762C4 16.5467 8.02944 20.5762 13 20.5762V18.5762C9.13401 18.5762 6 15.4422 6 11.5762H4ZM13 20.5762C16.9581 20.5762 20.3171 18.0216 21.523 14.4742L19.6294 13.8305C18.6907 16.5917 16.0758 18.5762 13 18.5762V20.5762Z" fill="#161313"/>
</g>
</svg>
