<svg width="24" height="24" viewBox="0 0 24 24" fill="none" xmlns="http://www.w3.org/2000/svg">
<path fill-rule="evenodd" clip-rule="evenodd" d="M16.7758 13.9533C16.5291 13.8197 15.3184 13.1742 15.0942 13.0851C14.87 12.9961 14.7018 12.9516 14.5224 13.1853C14.343 13.4302 13.8498 13.9755 13.6928 14.1313C13.5359 14.2871 13.3901 14.3094 13.1435 14.1758C12.8969 14.0423 12.1009 13.7529 11.1704 12.8625C10.4641 12.1836 9.99327 11.3489 9.85874 11.0929C9.72422 10.837 9.85875 10.7034 9.99327 10.5921C10.1054 10.4808 10.2511 10.3139 10.3857 10.1692C10.5202 10.0245 10.565 9.92432 10.6547 9.7685C10.7444 9.60156 10.7108 9.45687 10.6547 9.33445C10.5987 9.21202 10.139 7.9655 9.94843 7.46466C9.75785 6.96383 9.54484 7.03061 9.3991 7.03061C9.25336 7.03061 9.0852 6.99722 8.91704 6.99722C8.74888 6.98609 8.47982 7.04174 8.23318 7.28659C7.99776 7.53144 7.32511 8.09905 7.28027 9.32332C7.23543 10.5476 8.08744 11.7607 8.21076 11.9388C8.33408 12.1057 9.83632 14.7657 12.3475 15.8564C14.8587 16.9471 14.87 16.6132 15.3296 16.591C15.7892 16.5687 16.8318 16.0456 17.0673 15.4669C17.3027 14.8993 17.3139 14.3984 17.2578 14.2871C17.1906 14.1647 17.0224 14.0868 16.7758 13.9533ZM12.1794 19.852C10.5202 19.852 8.97309 19.3623 7.68386 18.5164L4.54484 19.5181L5.56502 16.5019C4.58969 15.1664 4.00673 13.5192 4.00673 11.7496C4.00673 7.27546 7.67265 3.63606 12.1794 3.63606C16.6861 3.63606 20.352 7.27546 20.352 11.7496C20.352 16.2126 16.6861 19.852 12.1794 19.852ZM12.1794 2C6.75336 2 2.35874 6.36283 2.35874 11.7496C2.35874 13.586 2.87444 15.3111 3.7713 16.7802L2 22L7.43722 20.2749C8.83857 21.0428 10.4641 21.488 12.1794 21.488C17.6054 21.488 22 17.1252 22 11.7385C21.9888 6.36283 17.6054 2 12.1794 2Z" fill="#161313"/>
</svg>
