<svg width="14" height="14" viewBox="0 0 14 14" fill="none" xmlns="http://www.w3.org/2000/svg">
<path fill-rule="evenodd" clip-rule="evenodd" d="M7 1.16667C9.89949 1.16667 12.25 3.49168 12.25 6.35972C12.25 8.25759 10.662 10.2642 7.55315 12.4502L7 12.8333L6.66621 12.603C3.41274 10.3576 1.75 8.30172 1.75 6.35972C1.75 3.49168 4.1005 1.16667 7 1.16667ZM7 2.32067C4.74484 2.32067 2.91667 4.12901 2.91667 6.35971C2.91667 7.76116 4.25642 9.47125 7 11.4227C9.74358 9.47125 11.0833 7.76116 11.0833 6.35971C11.0833 4.12901 9.25516 2.32067 7 2.32067ZM7 3.50001C8.28867 3.50001 9.33333 4.54467 9.33333 5.83334C9.33333 7.122 8.28867 8.16667 7 8.16667C5.71134 8.16667 4.66667 7.122 4.66667 5.83334C4.66667 4.54467 5.71134 3.50001 7 3.50001ZM7 4.66667C6.35567 4.66667 5.83333 5.18901 5.83333 5.83334C5.83333 6.47767 6.35567 7.00001 7 7.00001C7.64433 7.00001 8.16667 6.47767 8.16667 5.83334C8.16667 5.18901 7.64433 4.66667 7 4.66667Z" fill="#8B8989"/>
</svg>
