<svg width="1232" height="296" viewBox="0 0 1232 296" fill="none" xmlns="http://www.w3.org/2000/svg">
<rect width="1232" height="296" fill="white"/>
<rect width="140" height="140" fill="#F7C974"/>
<path d="M117 54.3486C117 51.7004 113.665 47.2236 113.665 47.2236C112.344 45.1428 107.562 38.4591 105.926 37.4502C104.291 36.5044 102.529 36 100.578 36C98.6279 36 96.8661 36.5044 95.2303 37.4502C93.5944 38.396 92.4619 39.8463 91.7068 41.6118L83.7162 60.654C83.7162 60.654 83.0241 62.1673 82.0174 62.1673C81.0107 62.1673 80.3815 60.7171 80.3815 60.7171L78.494 56.4294L77.2985 53.8442L71.7617 41.6118C70.9438 39.7832 69.7483 38.396 68.1754 37.4502C66.6024 36.5044 64.8407 36 62.8902 36C60.9398 36 59.1781 36.5044 57.5422 37.4502C55.9063 38.396 54.7108 39.8463 53.8929 41.6118L45.7135 59.1407C45.7135 59.1407 45.0214 60.654 44.0147 60.654C43.008 60.654 42.5047 59.519 42.3788 59.2038V59.1407L40.5542 54.7269C39.8621 52.8353 38.7925 51.4482 37.3454 50.5654C35.9612 49.6827 34.3882 49.2413 32.6265 49.2413C30.1727 49.2413 27.9705 50.061 25.9572 51.7004C24.0067 53.3398 23 55.3575 23 57.6905C23 58.9515 23.2517 60.0865 23.755 61.1584L41.1834 98.8015C42.0643 100.63 43.3226 102.017 44.8956 102.963C46.5315 103.909 48.2932 104.413 50.2436 104.413C52.1941 104.413 53.9558 103.909 55.5917 102.963C57.2276 102.017 58.3601 100.567 59.1151 98.8015L67.0428 80.0745C67.1058 79.8854 67.7349 78.5612 68.8675 78.5612C69.7483 78.5612 70.3146 79.444 70.5663 79.8854L70.6921 80.1376L72.4538 83.9839C72.5797 84.2991 73.6493 86.5691 73.6493 86.5691L79.1232 98.7384C79.9411 100.567 81.1366 101.954 82.7095 102.9C84.2825 103.846 86.0442 104.35 87.9947 104.35C89.9451 104.35 91.7068 103.846 93.3427 102.9C94.9786 101.954 96.174 100.504 96.992 98.7384L106.996 77.2371C107.436 76.2283 111.967 66.7072 114.483 61.4737C115.93 58.3841 117 56.8708 117 54.3486Z" fill="white"/>
<rect x="156" width="140" height="140" fill="#A6C2D0"/>
<path d="M273 54.3486C273 51.7004 269.665 47.2236 269.665 47.2236C268.344 45.1428 263.562 38.4591 261.926 37.4502C260.291 36.5044 258.529 36 256.578 36C254.628 36 252.866 36.5044 251.23 37.4502C249.594 38.396 248.462 39.8463 247.707 41.6118L239.716 60.654C239.716 60.654 239.024 62.1673 238.017 62.1673C237.011 62.1673 236.382 60.7171 236.382 60.7171L234.494 56.4294L233.299 53.8442L227.762 41.6118C226.944 39.7832 225.748 38.396 224.175 37.4502C222.602 36.5044 220.841 36 218.89 36C216.94 36 215.178 36.5044 213.542 37.4502C211.906 38.396 210.711 39.8463 209.893 41.6118L201.714 59.1407C201.714 59.1407 201.021 60.654 200.015 60.654C199.008 60.654 198.505 59.519 198.379 59.2038V59.1407L196.554 54.7269C195.862 52.8353 194.793 51.4482 193.345 50.5654C191.961 49.6827 190.388 49.2413 188.627 49.2413C186.173 49.2413 183.971 50.061 181.957 51.7004C180.007 53.3398 179 55.3575 179 57.6905C179 58.9515 179.252 60.0865 179.755 61.1584L197.183 98.8015C198.064 100.63 199.323 102.017 200.896 102.963C202.531 103.909 204.293 104.413 206.244 104.413C208.194 104.413 209.956 103.909 211.592 102.963C213.228 102.017 214.36 100.567 215.115 98.8015L223.043 80.0745C223.106 79.8854 223.735 78.5612 224.867 78.5612C225.748 78.5612 226.315 79.444 226.566 79.8854L226.692 80.1376L228.454 83.9839C228.58 84.2991 229.649 86.5691 229.649 86.5691L235.123 98.7384C235.941 100.567 237.137 101.954 238.71 102.9C240.282 103.846 242.044 104.35 243.995 104.35C245.945 104.35 247.707 103.846 249.343 102.9C250.979 101.954 252.174 100.504 252.992 98.7384L262.996 77.2371C263.436 76.2283 267.967 66.7072 270.483 61.4737C271.93 58.3841 273 56.8708 273 54.3486Z" fill="white"/>
<rect x="312" width="140" height="140" fill="#D6F279"/>
<path d="M429 54.3486C429 51.7004 425.665 47.2236 425.665 47.2236C424.344 45.1428 419.562 38.4591 417.926 37.4502C416.291 36.5044 414.529 36 412.578 36C410.628 36 408.866 36.5044 407.23 37.4502C405.594 38.396 404.462 39.8463 403.707 41.6118L395.716 60.654C395.716 60.654 395.024 62.1673 394.017 62.1673C393.011 62.1673 392.382 60.7171 392.382 60.7171L390.494 56.4294L389.299 53.8442L383.762 41.6118C382.944 39.7832 381.748 38.396 380.175 37.4502C378.602 36.5044 376.841 36 374.89 36C372.94 36 371.178 36.5044 369.542 37.4502C367.906 38.396 366.711 39.8463 365.893 41.6118L357.714 59.1407C357.714 59.1407 357.021 60.654 356.015 60.654C355.008 60.654 354.505 59.519 354.379 59.2038V59.1407L352.554 54.7269C351.862 52.8353 350.793 51.4482 349.345 50.5654C347.961 49.6827 346.388 49.2413 344.627 49.2413C342.173 49.2413 339.971 50.061 337.957 51.7004C336.007 53.3398 335 55.3575 335 57.6905C335 58.9515 335.252 60.0865 335.755 61.1584L353.183 98.8015C354.064 100.63 355.323 102.017 356.896 102.963C358.531 103.909 360.293 104.413 362.244 104.413C364.194 104.413 365.956 103.909 367.592 102.963C369.228 102.017 370.36 100.567 371.115 98.8015L379.043 80.0745C379.106 79.8854 379.735 78.5612 380.867 78.5612C381.748 78.5612 382.315 79.444 382.566 79.8854L382.692 80.1376L384.454 83.9839C384.58 84.2991 385.649 86.5691 385.649 86.5691L391.123 98.7384C391.941 100.567 393.137 101.954 394.71 102.9C396.282 103.846 398.044 104.35 399.995 104.35C401.945 104.35 403.707 103.846 405.343 102.9C406.979 101.954 408.174 100.504 408.992 98.7384L418.996 77.2371C419.436 76.2283 423.967 66.7072 426.483 61.4737C427.93 58.3841 429 56.8708 429 54.3486Z" fill="white"/>
<rect x="468" width="140" height="140" fill="#F7D6D9"/>
<path d="M585 54.3486C585 51.7004 581.665 47.2236 581.665 47.2236C580.344 45.1428 575.562 38.4591 573.926 37.4502C572.291 36.5044 570.529 36 568.578 36C566.628 36 564.866 36.5044 563.23 37.4502C561.594 38.396 560.462 39.8463 559.707 41.6118L551.716 60.654C551.716 60.654 551.024 62.1673 550.017 62.1673C549.011 62.1673 548.382 60.7171 548.382 60.7171L546.494 56.4294L545.299 53.8442L539.762 41.6118C538.944 39.7832 537.748 38.396 536.175 37.4502C534.602 36.5044 532.841 36 530.89 36C528.94 36 527.178 36.5044 525.542 37.4502C523.906 38.396 522.711 39.8463 521.893 41.6118L513.714 59.1407C513.714 59.1407 513.021 60.654 512.015 60.654C511.008 60.654 510.505 59.519 510.379 59.2038V59.1407L508.554 54.7269C507.862 52.8353 506.793 51.4482 505.345 50.5654C503.961 49.6827 502.388 49.2413 500.627 49.2413C498.173 49.2413 495.971 50.061 493.957 51.7004C492.007 53.3398 491 55.3575 491 57.6905C491 58.9515 491.252 60.0865 491.755 61.1584L509.183 98.8015C510.064 100.63 511.323 102.017 512.896 102.963C514.531 103.909 516.293 104.413 518.244 104.413C520.194 104.413 521.956 103.909 523.592 102.963C525.228 102.017 526.36 100.567 527.115 98.8015L535.043 80.0745C535.106 79.8854 535.735 78.5612 536.867 78.5612C537.748 78.5612 538.315 79.444 538.566 79.8854L538.692 80.1376L540.454 83.9839C540.58 84.2991 541.649 86.5691 541.649 86.5691L547.123 98.7384C547.941 100.567 549.137 101.954 550.71 102.9C552.282 103.846 554.044 104.35 555.995 104.35C557.945 104.35 559.707 103.846 561.343 102.9C562.979 101.954 564.174 100.504 564.992 98.7384L574.996 77.2371C575.436 76.2283 579.967 66.7072 582.483 61.4737C583.93 58.3841 585 56.8708 585 54.3486Z" fill="white"/>
<rect x="624" width="140" height="140" fill="#F5E257"/>
<path d="M741 54.3486C741 51.7004 737.665 47.2236 737.665 47.2236C736.344 45.1428 731.562 38.4591 729.926 37.4502C728.291 36.5044 726.529 36 724.578 36C722.628 36 720.866 36.5044 719.23 37.4502C717.594 38.396 716.462 39.8463 715.707 41.6118L707.716 60.654C707.716 60.654 707.024 62.1673 706.017 62.1673C705.011 62.1673 704.382 60.7171 704.382 60.7171L702.494 56.4294L701.299 53.8442L695.762 41.6118C694.944 39.7832 693.748 38.396 692.175 37.4502C690.602 36.5044 688.841 36 686.89 36C684.94 36 683.178 36.5044 681.542 37.4502C679.906 38.396 678.711 39.8463 677.893 41.6118L669.714 59.1407C669.714 59.1407 669.021 60.654 668.015 60.654C667.008 60.654 666.505 59.519 666.379 59.2038V59.1407L664.554 54.7269C663.862 52.8353 662.793 51.4482 661.345 50.5654C659.961 49.6827 658.388 49.2413 656.627 49.2413C654.173 49.2413 651.971 50.061 649.957 51.7004C648.007 53.3398 647 55.3575 647 57.6905C647 58.9515 647.252 60.0865 647.755 61.1584L665.183 98.8015C666.064 100.63 667.323 102.017 668.896 102.963C670.531 103.909 672.293 104.413 674.244 104.413C676.194 104.413 677.956 103.909 679.592 102.963C681.228 102.017 682.36 100.567 683.115 98.8015L691.043 80.0745C691.106 79.8854 691.735 78.5612 692.867 78.5612C693.748 78.5612 694.315 79.444 694.566 79.8854L694.692 80.1376L696.454 83.9839C696.58 84.2991 697.649 86.5691 697.649 86.5691L703.123 98.7384C703.941 100.567 705.137 101.954 706.71 102.9C708.282 103.846 710.044 104.35 711.995 104.35C713.945 104.35 715.707 103.846 717.343 102.9C718.979 101.954 720.174 100.504 720.992 98.7384L730.996 77.2371C731.436 76.2283 735.967 66.7072 738.483 61.4737C739.93 58.3841 741 56.8708 741 54.3486Z" fill="white"/>
<rect x="780" width="140" height="140" fill="#E57B9F"/>
<path d="M897 54.3486C897 51.7004 893.665 47.2236 893.665 47.2236C892.344 45.1428 887.562 38.4591 885.926 37.4502C884.291 36.5044 882.529 36 880.578 36C878.628 36 876.866 36.5044 875.23 37.4502C873.594 38.396 872.462 39.8463 871.707 41.6118L863.716 60.654C863.716 60.654 863.024 62.1673 862.017 62.1673C861.011 62.1673 860.382 60.7171 860.382 60.7171L858.494 56.4294L857.299 53.8442L851.762 41.6118C850.944 39.7832 849.748 38.396 848.175 37.4502C846.602 36.5044 844.841 36 842.89 36C840.94 36 839.178 36.5044 837.542 37.4502C835.906 38.396 834.711 39.8463 833.893 41.6118L825.714 59.1407C825.714 59.1407 825.021 60.654 824.015 60.654C823.008 60.654 822.505 59.519 822.379 59.2038V59.1407L820.554 54.7269C819.862 52.8353 818.793 51.4482 817.345 50.5654C815.961 49.6827 814.388 49.2413 812.627 49.2413C810.173 49.2413 807.971 50.061 805.957 51.7004C804.007 53.3398 803 55.3575 803 57.6905C803 58.9515 803.252 60.0865 803.755 61.1584L821.183 98.8015C822.064 100.63 823.323 102.017 824.896 102.963C826.531 103.909 828.293 104.413 830.244 104.413C832.194 104.413 833.956 103.909 835.592 102.963C837.228 102.017 838.36 100.567 839.115 98.8015L847.043 80.0745C847.106 79.8854 847.735 78.5612 848.867 78.5612C849.748 78.5612 850.315 79.444 850.566 79.8854L850.692 80.1376L852.454 83.9839C852.58 84.2991 853.649 86.5691 853.649 86.5691L859.123 98.7384C859.941 100.567 861.137 101.954 862.71 102.9C864.282 103.846 866.044 104.35 867.995 104.35C869.945 104.35 871.707 103.846 873.343 102.9C874.979 101.954 876.174 100.504 876.992 98.7384L886.996 77.2371C887.436 76.2283 891.967 66.7072 894.483 61.4737C895.93 58.3841 897 56.8708 897 54.3486Z" fill="white"/>
<rect x="936" width="140" height="140" fill="#EC5540"/>
<path d="M1053 54.3486C1053 51.7004 1049.67 47.2236 1049.67 47.2236C1048.34 45.1428 1043.56 38.4591 1041.93 37.4502C1040.29 36.5044 1038.53 36 1036.58 36C1034.63 36 1032.87 36.5044 1031.23 37.4502C1029.59 38.396 1028.46 39.8463 1027.71 41.6118L1019.72 60.654C1019.72 60.654 1019.02 62.1673 1018.02 62.1673C1017.01 62.1673 1016.38 60.7171 1016.38 60.7171L1014.49 56.4294L1013.3 53.8442L1007.76 41.6118C1006.94 39.7832 1005.75 38.396 1004.18 37.4502C1002.6 36.5044 1000.84 36 998.89 36C996.94 36 995.178 36.5044 993.542 37.4502C991.906 38.396 990.711 39.8463 989.893 41.6118L981.714 59.1407C981.714 59.1407 981.021 60.654 980.015 60.654C979.008 60.654 978.505 59.519 978.379 59.2038V59.1407L976.554 54.7269C975.862 52.8353 974.793 51.4482 973.345 50.5654C971.961 49.6827 970.388 49.2413 968.627 49.2413C966.173 49.2413 963.971 50.061 961.957 51.7004C960.007 53.3398 959 55.3575 959 57.6905C959 58.9515 959.252 60.0865 959.755 61.1584L977.183 98.8015C978.064 100.63 979.323 102.017 980.896 102.963C982.531 103.909 984.293 104.413 986.244 104.413C988.194 104.413 989.956 103.909 991.592 102.963C993.228 102.017 994.36 100.567 995.115 98.8015L1003.04 80.0745C1003.11 79.8854 1003.73 78.5612 1004.87 78.5612C1005.75 78.5612 1006.31 79.444 1006.57 79.8854L1006.69 80.1376L1008.45 83.9839C1008.58 84.2991 1009.65 86.5691 1009.65 86.5691L1015.12 98.7384C1015.94 100.567 1017.14 101.954 1018.71 102.9C1020.28 103.846 1022.04 104.35 1023.99 104.35C1025.95 104.35 1027.71 103.846 1029.34 102.9C1030.98 101.954 1032.17 100.504 1032.99 98.7384L1043 77.2371C1043.44 76.2283 1047.97 66.7072 1050.48 61.4737C1051.93 58.3841 1053 56.8708 1053 54.3486Z" fill="white"/>
<rect x="1092" width="140" height="140" fill="#609BEE"/>
<path d="M1209 54.3486C1209 51.7004 1205.67 47.2236 1205.67 47.2236C1204.34 45.1428 1199.56 38.4591 1197.93 37.4502C1196.29 36.5044 1194.53 36 1192.58 36C1190.63 36 1188.87 36.5044 1187.23 37.4502C1185.59 38.396 1184.46 39.8463 1183.71 41.6118L1175.72 60.654C1175.72 60.654 1175.02 62.1673 1174.02 62.1673C1173.01 62.1673 1172.38 60.7171 1172.38 60.7171L1170.49 56.4294L1169.3 53.8442L1163.76 41.6118C1162.94 39.7832 1161.75 38.396 1160.18 37.4502C1158.6 36.5044 1156.84 36 1154.89 36C1152.94 36 1151.18 36.5044 1149.54 37.4502C1147.91 38.396 1146.71 39.8463 1145.89 41.6118L1137.71 59.1407C1137.71 59.1407 1137.02 60.654 1136.01 60.654C1135.01 60.654 1134.5 59.519 1134.38 59.2038V59.1407L1132.55 54.7269C1131.86 52.8353 1130.79 51.4482 1129.35 50.5654C1127.96 49.6827 1126.39 49.2413 1124.63 49.2413C1122.17 49.2413 1119.97 50.061 1117.96 51.7004C1116.01 53.3398 1115 55.3575 1115 57.6905C1115 58.9515 1115.25 60.0865 1115.76 61.1584L1133.18 98.8015C1134.06 100.63 1135.32 102.017 1136.9 102.963C1138.53 103.909 1140.29 104.413 1142.24 104.413C1144.19 104.413 1145.96 103.909 1147.59 102.963C1149.23 102.017 1150.36 100.567 1151.12 98.8015L1159.04 80.0745C1159.11 79.8854 1159.73 78.5612 1160.87 78.5612C1161.75 78.5612 1162.31 79.444 1162.57 79.8854L1162.69 80.1376L1164.45 83.9839C1164.58 84.2991 1165.65 86.5691 1165.65 86.5691L1171.12 98.7384C1171.94 100.567 1173.14 101.954 1174.71 102.9C1176.28 103.846 1178.04 104.35 1179.99 104.35C1181.95 104.35 1183.71 103.846 1185.34 102.9C1186.98 101.954 1188.17 100.504 1188.99 98.7384L1199 77.2371C1199.44 76.2283 1203.97 66.7072 1206.48 61.4737C1207.93 58.3841 1209 56.8708 1209 54.3486Z" fill="white"/>
<rect y="156" width="140" height="140" fill="#609BEE"/>
<path d="M117 210.349C117 207.7 113.665 203.224 113.665 203.224C112.344 201.143 107.562 194.459 105.926 193.45C104.291 192.504 102.529 192 100.578 192C98.6279 192 96.8661 192.504 95.2303 193.45C93.5944 194.396 92.4619 195.846 91.7068 197.612L83.7162 216.654C83.7162 216.654 83.0241 218.167 82.0174 218.167C81.0107 218.167 80.3815 216.717 80.3815 216.717L78.494 212.429L77.2985 209.844L71.7617 197.612C70.9438 195.783 69.7483 194.396 68.1754 193.45C66.6024 192.504 64.8407 192 62.8902 192C60.9398 192 59.1781 192.504 57.5422 193.45C55.9063 194.396 54.7108 195.846 53.8929 197.612L45.7135 215.141C45.7135 215.141 45.0214 216.654 44.0147 216.654C43.008 216.654 42.5047 215.519 42.3788 215.204V215.141L40.5542 210.727C39.8621 208.835 38.7925 207.448 37.3454 206.565C35.9612 205.683 34.3882 205.241 32.6265 205.241C30.1727 205.241 27.9705 206.061 25.9572 207.7C24.0067 209.34 23 211.357 23 213.69C23 214.952 23.2517 216.087 23.755 217.158L41.1834 254.801C42.0643 256.63 43.3226 258.017 44.8956 258.963C46.5315 259.909 48.2932 260.413 50.2436 260.413C52.1941 260.413 53.9558 259.909 55.5917 258.963C57.2276 258.017 58.3601 256.567 59.1151 254.801L67.0428 236.075C67.1058 235.885 67.7349 234.561 68.8675 234.561C69.7483 234.561 70.3146 235.444 70.5663 235.885L70.6921 236.138L72.4538 239.984C72.5797 240.299 73.6493 242.569 73.6493 242.569L79.1232 254.738C79.9411 256.567 81.1366 257.954 82.7095 258.9C84.2825 259.846 86.0442 260.35 87.9947 260.35C89.9451 260.35 91.7068 259.846 93.3427 258.9C94.9786 257.954 96.174 256.504 96.992 254.738L106.996 233.237C107.436 232.228 111.967 222.707 114.483 217.474C115.93 214.384 117 212.871 117 210.349Z" fill="white"/>
<rect x="156" y="156" width="140" height="140" fill="#F7C974"/>
<path d="M273 210.349C273 207.7 269.665 203.224 269.665 203.224C268.344 201.143 263.562 194.459 261.926 193.45C260.291 192.504 258.529 192 256.578 192C254.628 192 252.866 192.504 251.23 193.45C249.594 194.396 248.462 195.846 247.707 197.612L239.716 216.654C239.716 216.654 239.024 218.167 238.017 218.167C237.011 218.167 236.382 216.717 236.382 216.717L234.494 212.429L233.299 209.844L227.762 197.612C226.944 195.783 225.748 194.396 224.175 193.45C222.602 192.504 220.841 192 218.89 192C216.94 192 215.178 192.504 213.542 193.45C211.906 194.396 210.711 195.846 209.893 197.612L201.714 215.141C201.714 215.141 201.021 216.654 200.015 216.654C199.008 216.654 198.505 215.519 198.379 215.204V215.141L196.554 210.727C195.862 208.835 194.793 207.448 193.345 206.565C191.961 205.683 190.388 205.241 188.627 205.241C186.173 205.241 183.971 206.061 181.957 207.7C180.007 209.34 179 211.357 179 213.69C179 214.952 179.252 216.087 179.755 217.158L197.183 254.801C198.064 256.63 199.323 258.017 200.896 258.963C202.531 259.909 204.293 260.413 206.244 260.413C208.194 260.413 209.956 259.909 211.592 258.963C213.228 258.017 214.36 256.567 215.115 254.801L223.043 236.075C223.106 235.885 223.735 234.561 224.867 234.561C225.748 234.561 226.315 235.444 226.566 235.885L226.692 236.138L228.454 239.984C228.58 240.299 229.649 242.569 229.649 242.569L235.123 254.738C235.941 256.567 237.137 257.954 238.71 258.9C240.282 259.846 242.044 260.35 243.995 260.35C245.945 260.35 247.707 259.846 249.343 258.9C250.979 257.954 252.174 256.504 252.992 254.738L262.996 233.237C263.436 232.228 267.967 222.707 270.483 217.474C271.93 214.384 273 212.871 273 210.349Z" fill="white"/>
<rect x="312" y="156" width="140" height="140" fill="#A6C2D0"/>
<path d="M429 210.349C429 207.7 425.665 203.224 425.665 203.224C424.344 201.143 419.562 194.459 417.926 193.45C416.291 192.504 414.529 192 412.578 192C410.628 192 408.866 192.504 407.23 193.45C405.594 194.396 404.462 195.846 403.707 197.612L395.716 216.654C395.716 216.654 395.024 218.167 394.017 218.167C393.011 218.167 392.382 216.717 392.382 216.717L390.494 212.429L389.299 209.844L383.762 197.612C382.944 195.783 381.748 194.396 380.175 193.45C378.602 192.504 376.841 192 374.89 192C372.94 192 371.178 192.504 369.542 193.45C367.906 194.396 366.711 195.846 365.893 197.612L357.714 215.141C357.714 215.141 357.021 216.654 356.015 216.654C355.008 216.654 354.505 215.519 354.379 215.204V215.141L352.554 210.727C351.862 208.835 350.793 207.448 349.345 206.565C347.961 205.683 346.388 205.241 344.627 205.241C342.173 205.241 339.971 206.061 337.957 207.7C336.007 209.34 335 211.357 335 213.69C335 214.952 335.252 216.087 335.755 217.158L353.183 254.801C354.064 256.63 355.323 258.017 356.896 258.963C358.531 259.909 360.293 260.413 362.244 260.413C364.194 260.413 365.956 259.909 367.592 258.963C369.228 258.017 370.36 256.567 371.115 254.801L379.043 236.075C379.106 235.885 379.735 234.561 380.867 234.561C381.748 234.561 382.315 235.444 382.566 235.885L382.692 236.138L384.454 239.984C384.58 240.299 385.649 242.569 385.649 242.569L391.123 254.738C391.941 256.567 393.137 257.954 394.71 258.9C396.282 259.846 398.044 260.35 399.995 260.35C401.945 260.35 403.707 259.846 405.343 258.9C406.979 257.954 408.174 256.504 408.992 254.738L418.996 233.237C419.436 232.228 423.967 222.707 426.483 217.474C427.93 214.384 429 212.871 429 210.349Z" fill="white"/>
<rect x="468" y="156" width="140" height="140" fill="#D6F279"/>
<path d="M585 210.349C585 207.7 581.665 203.224 581.665 203.224C580.344 201.143 575.562 194.459 573.926 193.45C572.291 192.504 570.529 192 568.578 192C566.628 192 564.866 192.504 563.23 193.45C561.594 194.396 560.462 195.846 559.707 197.612L551.716 216.654C551.716 216.654 551.024 218.167 550.017 218.167C549.011 218.167 548.382 216.717 548.382 216.717L546.494 212.429L545.299 209.844L539.762 197.612C538.944 195.783 537.748 194.396 536.175 193.45C534.602 192.504 532.841 192 530.89 192C528.94 192 527.178 192.504 525.542 193.45C523.906 194.396 522.711 195.846 521.893 197.612L513.714 215.141C513.714 215.141 513.021 216.654 512.015 216.654C511.008 216.654 510.505 215.519 510.379 215.204V215.141L508.554 210.727C507.862 208.835 506.793 207.448 505.345 206.565C503.961 205.683 502.388 205.241 500.627 205.241C498.173 205.241 495.971 206.061 493.957 207.7C492.007 209.34 491 211.357 491 213.69C491 214.952 491.252 216.087 491.755 217.158L509.183 254.801C510.064 256.63 511.323 258.017 512.896 258.963C514.531 259.909 516.293 260.413 518.244 260.413C520.194 260.413 521.956 259.909 523.592 258.963C525.228 258.017 526.36 256.567 527.115 254.801L535.043 236.075C535.106 235.885 535.735 234.561 536.867 234.561C537.748 234.561 538.315 235.444 538.566 235.885L538.692 236.138L540.454 239.984C540.58 240.299 541.649 242.569 541.649 242.569L547.123 254.738C547.941 256.567 549.137 257.954 550.71 258.9C552.282 259.846 554.044 260.35 555.995 260.35C557.945 260.35 559.707 259.846 561.343 258.9C562.979 257.954 564.174 256.504 564.992 254.738L574.996 233.237C575.436 232.228 579.967 222.707 582.483 217.474C583.93 214.384 585 212.871 585 210.349Z" fill="white"/>
<rect x="624" y="156" width="140" height="140" fill="#F7D6D9"/>
<path d="M741 210.349C741 207.7 737.665 203.224 737.665 203.224C736.344 201.143 731.562 194.459 729.926 193.45C728.291 192.504 726.529 192 724.578 192C722.628 192 720.866 192.504 719.23 193.45C717.594 194.396 716.462 195.846 715.707 197.612L707.716 216.654C707.716 216.654 707.024 218.167 706.017 218.167C705.011 218.167 704.382 216.717 704.382 216.717L702.494 212.429L701.299 209.844L695.762 197.612C694.944 195.783 693.748 194.396 692.175 193.45C690.602 192.504 688.841 192 686.89 192C684.94 192 683.178 192.504 681.542 193.45C679.906 194.396 678.711 195.846 677.893 197.612L669.714 215.141C669.714 215.141 669.021 216.654 668.015 216.654C667.008 216.654 666.505 215.519 666.379 215.204V215.141L664.554 210.727C663.862 208.835 662.793 207.448 661.345 206.565C659.961 205.683 658.388 205.241 656.627 205.241C654.173 205.241 651.971 206.061 649.957 207.7C648.007 209.34 647 211.357 647 213.69C647 214.952 647.252 216.087 647.755 217.158L665.183 254.801C666.064 256.63 667.323 258.017 668.896 258.963C670.531 259.909 672.293 260.413 674.244 260.413C676.194 260.413 677.956 259.909 679.592 258.963C681.228 258.017 682.36 256.567 683.115 254.801L691.043 236.075C691.106 235.885 691.735 234.561 692.867 234.561C693.748 234.561 694.315 235.444 694.566 235.885L694.692 236.138L696.454 239.984C696.58 240.299 697.649 242.569 697.649 242.569L703.123 254.738C703.941 256.567 705.137 257.954 706.71 258.9C708.282 259.846 710.044 260.35 711.995 260.35C713.945 260.35 715.707 259.846 717.343 258.9C718.979 257.954 720.174 256.504 720.992 254.738L730.996 233.237C731.436 232.228 735.967 222.707 738.483 217.474C739.93 214.384 741 212.871 741 210.349Z" fill="white"/>
<rect x="780" y="156" width="140" height="140" fill="#F5E257"/>
<path d="M897 210.349C897 207.7 893.665 203.224 893.665 203.224C892.344 201.143 887.562 194.459 885.926 193.45C884.291 192.504 882.529 192 880.578 192C878.628 192 876.866 192.504 875.23 193.45C873.594 194.396 872.462 195.846 871.707 197.612L863.716 216.654C863.716 216.654 863.024 218.167 862.017 218.167C861.011 218.167 860.382 216.717 860.382 216.717L858.494 212.429L857.299 209.844L851.762 197.612C850.944 195.783 849.748 194.396 848.175 193.45C846.602 192.504 844.841 192 842.89 192C840.94 192 839.178 192.504 837.542 193.45C835.906 194.396 834.711 195.846 833.893 197.612L825.714 215.141C825.714 215.141 825.021 216.654 824.015 216.654C823.008 216.654 822.505 215.519 822.379 215.204V215.141L820.554 210.727C819.862 208.835 818.793 207.448 817.345 206.565C815.961 205.683 814.388 205.241 812.627 205.241C810.173 205.241 807.971 206.061 805.957 207.7C804.007 209.34 803 211.357 803 213.69C803 214.952 803.252 216.087 803.755 217.158L821.183 254.801C822.064 256.63 823.323 258.017 824.896 258.963C826.531 259.909 828.293 260.413 830.244 260.413C832.194 260.413 833.956 259.909 835.592 258.963C837.228 258.017 838.36 256.567 839.115 254.801L847.043 236.075C847.106 235.885 847.735 234.561 848.867 234.561C849.748 234.561 850.315 235.444 850.566 235.885L850.692 236.138L852.454 239.984C852.58 240.299 853.649 242.569 853.649 242.569L859.123 254.738C859.941 256.567 861.137 257.954 862.71 258.9C864.282 259.846 866.044 260.35 867.995 260.35C869.945 260.35 871.707 259.846 873.343 258.9C874.979 257.954 876.174 256.504 876.992 254.738L886.996 233.237C887.436 232.228 891.967 222.707 894.483 217.474C895.93 214.384 897 212.871 897 210.349Z" fill="white"/>
<rect x="936" y="156" width="140" height="140" fill="#E57B9F"/>
<path d="M1053 210.349C1053 207.7 1049.67 203.224 1049.67 203.224C1048.34 201.143 1043.56 194.459 1041.93 193.45C1040.29 192.504 1038.53 192 1036.58 192C1034.63 192 1032.87 192.504 1031.23 193.45C1029.59 194.396 1028.46 195.846 1027.71 197.612L1019.72 216.654C1019.72 216.654 1019.02 218.167 1018.02 218.167C1017.01 218.167 1016.38 216.717 1016.38 216.717L1014.49 212.429L1013.3 209.844L1007.76 197.612C1006.94 195.783 1005.75 194.396 1004.18 193.45C1002.6 192.504 1000.84 192 998.89 192C996.94 192 995.178 192.504 993.542 193.45C991.906 194.396 990.711 195.846 989.893 197.612L981.714 215.141C981.714 215.141 981.021 216.654 980.015 216.654C979.008 216.654 978.505 215.519 978.379 215.204V215.141L976.554 210.727C975.862 208.835 974.793 207.448 973.345 206.565C971.961 205.683 970.388 205.241 968.627 205.241C966.173 205.241 963.971 206.061 961.957 207.7C960.007 209.34 959 211.357 959 213.69C959 214.952 959.252 216.087 959.755 217.158L977.183 254.801C978.064 256.63 979.323 258.017 980.896 258.963C982.531 259.909 984.293 260.413 986.244 260.413C988.194 260.413 989.956 259.909 991.592 258.963C993.228 258.017 994.36 256.567 995.115 254.801L1003.04 236.075C1003.11 235.885 1003.73 234.561 1004.87 234.561C1005.75 234.561 1006.31 235.444 1006.57 235.885L1006.69 236.138L1008.45 239.984C1008.58 240.299 1009.65 242.569 1009.65 242.569L1015.12 254.738C1015.94 256.567 1017.14 257.954 1018.71 258.9C1020.28 259.846 1022.04 260.35 1023.99 260.35C1025.95 260.35 1027.71 259.846 1029.34 258.9C1030.98 257.954 1032.17 256.504 1032.99 254.738L1043 233.237C1043.44 232.228 1047.97 222.707 1050.48 217.474C1051.93 214.384 1053 212.871 1053 210.349Z" fill="white"/>
<rect x="1092" y="156" width="140" height="140" fill="#EC5540"/>
<path d="M1209 210.349C1209 207.7 1205.67 203.224 1205.67 203.224C1204.34 201.143 1199.56 194.459 1197.93 193.45C1196.29 192.504 1194.53 192 1192.58 192C1190.63 192 1188.87 192.504 1187.23 193.45C1185.59 194.396 1184.46 195.846 1183.71 197.612L1175.72 216.654C1175.72 216.654 1175.02 218.167 1174.02 218.167C1173.01 218.167 1172.38 216.717 1172.38 216.717L1170.49 212.429L1169.3 209.844L1163.76 197.612C1162.94 195.783 1161.75 194.396 1160.18 193.45C1158.6 192.504 1156.84 192 1154.89 192C1152.94 192 1151.18 192.504 1149.54 193.45C1147.91 194.396 1146.71 195.846 1145.89 197.612L1137.71 215.141C1137.71 215.141 1137.02 216.654 1136.01 216.654C1135.01 216.654 1134.5 215.519 1134.38 215.204V215.141L1132.55 210.727C1131.86 208.835 1130.79 207.448 1129.35 206.565C1127.96 205.683 1126.39 205.241 1124.63 205.241C1122.17 205.241 1119.97 206.061 1117.96 207.7C1116.01 209.34 1115 211.357 1115 213.69C1115 214.952 1115.25 216.087 1115.76 217.158L1133.18 254.801C1134.06 256.63 1135.32 258.017 1136.9 258.963C1138.53 259.909 1140.29 260.413 1142.24 260.413C1144.19 260.413 1145.96 259.909 1147.59 258.963C1149.23 258.017 1150.36 256.567 1151.12 254.801L1159.04 236.075C1159.11 235.885 1159.73 234.561 1160.87 234.561C1161.75 234.561 1162.31 235.444 1162.57 235.885L1162.69 236.138L1164.45 239.984C1164.58 240.299 1165.65 242.569 1165.65 242.569L1171.12 254.738C1171.94 256.567 1173.14 257.954 1174.71 258.9C1176.28 259.846 1178.04 260.35 1179.99 260.35C1181.95 260.35 1183.71 259.846 1185.34 258.9C1186.98 257.954 1188.17 256.504 1188.99 254.738L1199 233.237C1199.44 232.228 1203.97 222.707 1206.48 217.474C1207.93 214.384 1209 212.871 1209 210.349Z" fill="white"/>
</svg>
