<svg width="200" height="30" viewBox="0 0 200 30" fill="none" xmlns="http://www.w3.org/2000/svg">
<path d="M134.652 0.0541971C136.061 0.0541971 137.09 0.162592 137.795 0.379384C138.499 0.596175 138.987 0.975562 139.258 1.51754C139.529 2.05952 139.691 2.5473 139.745 2.98088C139.8 3.41447 139.854 4.06484 139.854 4.87781V24.2265C139.854 25.0936 139.8 25.6898 139.745 26.1234C139.691 26.557 139.529 27.0448 139.258 27.5867C138.77 28.5623 137.524 29.0501 135.519 29.0501C133.568 29.0501 130.75 27.6409 129.938 27.6409C128.258 27.6409 126.795 29.0501 123.706 29.0501C120.564 29.0501 117.638 27.5867 114.982 24.66C112.273 21.7334 110.973 18.3731 110.973 14.525C110.973 10.677 112.327 7.31672 115.037 4.39003C117.746 1.51754 120.672 0 123.923 0C125.169 0 126.307 0.270989 127.283 0.704572C128.312 1.13816 129.396 1.19235 129.992 1.19235C132.105 1.24655 131.997 0.0541971 134.652 0.0541971ZM120.455 14.6334C120.455 15.8258 120.943 16.9639 121.864 17.9395C122.785 18.9151 123.923 19.4028 125.278 19.4028C126.632 19.4028 127.716 18.9151 128.637 17.8853C129.504 16.9097 129.992 15.7716 129.992 14.5792C129.992 13.3869 129.558 12.2487 128.691 11.219C127.824 10.1892 126.687 9.64722 125.278 9.64722C123.869 9.64722 122.677 10.1892 121.81 11.219C120.889 12.3029 120.455 13.4411 120.455 14.6334Z" fill="white"/>
<path d="M194.798 0.0541971C196.207 0.0541971 197.236 0.162592 197.941 0.379384C198.645 0.596175 199.133 0.975562 199.404 1.51754C199.675 2.05952 199.837 2.5473 199.892 2.98088C199.946 3.41447 200 4.06484 200 4.87781V24.2265C200 25.0936 199.946 25.6898 199.892 26.1234C199.837 26.557 199.675 27.0448 199.404 27.5867C198.916 28.5623 197.67 29.0501 195.665 29.0501C193.714 29.0501 190.897 27.6409 190.084 27.6409C188.404 27.6409 186.941 29.0501 183.853 29.0501C180.71 29.0501 177.784 27.5867 175.129 24.66C172.419 21.7334 171.119 18.3731 171.119 14.525C171.119 10.677 172.474 7.31672 175.183 4.39003C177.892 1.51754 180.818 0 184.069 0C185.316 0 186.453 0.270989 187.429 0.704572C188.458 1.13816 189.542 1.19235 190.138 1.19235C192.197 1.24655 192.143 0.0541971 194.798 0.0541971ZM180.601 14.6334C180.601 15.8258 181.089 16.9639 182.01 17.9395C182.931 18.9151 184.069 19.4028 185.424 19.4028C186.779 19.4028 187.862 18.9151 188.783 17.8853C189.65 16.9097 190.138 15.7716 190.138 14.5792C190.138 13.3869 189.705 12.2487 188.838 11.219C187.971 10.1892 186.833 9.64722 185.424 9.64722C184.015 9.64722 182.823 10.1892 181.956 11.219C181.035 12.3029 180.601 13.4411 180.601 14.6334Z" fill="white"/>
<path d="M167.326 3.03508C168.952 5.04041 169.764 8.07549 169.764 12.1403V24.4433C169.764 25.9066 169.331 27.0448 168.41 27.8577C167.489 28.6707 166.296 29.1043 164.725 29.1043C163.154 29.1043 161.962 28.6707 161.04 27.8577C160.119 27.0448 159.686 25.9066 159.686 24.4433V12.5739C159.686 10.8938 159.415 9.70143 158.819 8.94266C158.223 8.18389 157.356 7.8045 156.164 7.8045C154.646 7.8045 153.454 8.29228 152.587 9.26784C151.72 10.2434 151.233 11.5442 151.233 13.1701V24.4433C151.233 25.9066 150.799 27.0448 149.878 27.8577C148.957 28.6707 147.765 29.1043 146.193 29.1043C144.622 29.1043 143.43 28.6707 142.509 27.8577C141.588 27.0448 141.154 25.9066 141.154 24.4433V4.71522C141.154 3.36027 141.642 2.27631 142.563 1.46334C143.484 0.596177 144.73 0.0541992 146.248 0.0541992C147.656 0.0541992 148.849 0.541981 149.661 1.35495C150.528 2.16792 151.558 2.00532 151.829 2.00532C152.1 2.00532 153.183 1.84273 154.755 1.19235C156.868 0.325188 158.006 0.0541992 159.902 0.0541992C163.208 0.0541992 165.7 1.02976 167.326 3.03508Z" fill="white"/>
<path d="M68.7619 1.40915C69.683 2.22212 70.1165 3.36027 70.1165 4.82361V24.4433C70.1165 25.744 69.6289 26.828 68.7077 27.6951C67.7865 28.5623 66.5403 29.1043 65.0231 29.1043C63.6684 29.1043 62.5305 28.6165 61.6635 27.9119C60.7966 27.1532 60.4714 27.099 59.9838 27.099C59.4961 27.099 58.3582 27.3157 57.0036 28.0203C55.6489 28.7249 54.1317 29.1043 52.3978 29.1043C48.8215 29.1043 46.1664 28.1287 44.4324 26.1234C42.6985 24.1181 41.8315 21.1372 41.8315 17.0723V4.82361C41.8315 3.41447 42.265 2.27631 43.1862 1.40915C44.1073 0.596178 45.2994 0.0541992 46.8708 0.0541992C48.4422 0.0541992 49.6343 0.596178 50.5554 1.40915C51.4766 2.22212 51.9101 3.36027 51.9101 4.82361V17.2891C51.9101 19.999 53.1022 21.354 55.4322 21.354C56.7868 21.354 57.9247 20.8662 58.7917 19.8906C59.6587 18.9151 60.0921 17.6143 60.0921 16.0426V4.82361C60.0921 3.41447 60.5256 2.27631 61.4468 1.40915C62.3679 0.596178 63.56 0.0541992 65.1314 0.0541992C66.6486 0.0541992 67.8407 0.596178 68.7619 1.40915Z" fill="white"/>
<path d="M40.0975 6.44955C40.3143 5.90757 40.4768 5.31139 40.4768 4.66102C40.4768 2.11372 38.4178 0.0541971 35.871 0.0541971C34.0287 0.0541971 32.4031 1.13816 31.6987 2.7099C31.6987 2.7099 31.6987 2.76409 31.6445 2.76409C31.5904 2.87249 31.5362 2.98088 31.5362 3.03508C30.9943 4.39003 29.4229 8.72586 29.3145 8.94265C29.0978 9.59303 28.7185 11.0022 27.9599 11.0022C27.418 11.0022 27.2555 10.7854 26.6594 9.10525C26.1718 7.6961 25.6299 6.17856 24.8171 3.90225L24.3836 2.98088C24.1127 2.38471 23.5708 1.84273 22.8122 1.24655C22.0536 0.650374 21.1325 0.379384 20.0488 0.379384C18.965 0.379384 17.9355 0.921364 16.8518 1.95112C16.2558 2.4931 15.8765 3.14348 15.6597 3.84805L13.7632 9.10525C13.7632 9.10525 13.113 11.0022 12.5169 11.0022C11.8667 11.0022 11.5958 10.135 11.2165 9.10525C9.9702 5.69078 9.37416 3.95645 8.88648 2.87249C8.18207 1.19235 6.55649 0 4.6058 0C2.05906 0 0 2.05952 0 4.60682C0 5.203 0.108375 5.79918 0.325118 6.28696L8.34463 26.1234C8.61556 26.7738 9.10323 27.4241 9.86183 28.0203C10.6204 28.6707 11.5416 28.9417 12.6795 28.9417C13.8174 28.9417 14.7927 28.5081 15.6597 27.6409C15.9848 27.3157 16.2558 26.9364 16.5267 26.5028C16.7976 26.0692 16.906 25.7982 16.9602 25.6356C17.0144 25.473 17.1227 25.1478 17.3395 24.66C17.5562 24.1723 17.9897 22.9799 18.6941 20.9746C18.8567 20.4326 19.0734 19.9448 19.236 19.5112C19.2902 19.3487 19.6695 18.4815 20.3197 18.4815C20.8616 18.4815 21.1867 19.1319 21.295 19.4028C22.5413 22.6547 23.2457 24.5517 23.4625 25.1478L23.8418 26.0692C24.1669 26.7196 24.6546 27.3699 25.4132 27.9661C26.1718 28.6165 26.9846 28.8875 27.7973 28.8875C28.6101 28.8875 29.3145 28.7791 29.8564 28.5081C31.1027 27.8577 31.9697 26.7196 32.5657 25.1478L38.472 10.7312C38.7429 9.91821 39.5557 7.8045 40.0975 6.44955Z" fill="white"/>
<path d="M111.623 6.44955C111.84 5.90757 112.002 5.31139 112.002 4.66102C112.002 2.11372 109.943 0.0541971 107.396 0.0541971C105.554 0.0541971 103.929 1.13816 103.224 2.7099C103.224 2.7099 103.224 2.76409 103.17 2.76409C103.116 2.87249 103.062 2.98088 103.062 3.03508C102.52 4.39003 100.948 8.72586 100.84 8.94265C100.623 9.59303 100.244 11.0022 99.4853 11.0022C98.9434 11.0022 98.7809 10.7854 98.1848 9.10525C97.6971 7.6961 97.1553 6.17856 96.3425 3.90225L95.909 2.98088C95.6381 2.38471 95.0962 1.84273 94.3376 1.24655C93.579 0.650374 92.6579 0.379384 91.5741 0.379384C90.4904 0.379384 89.4609 0.921364 88.3772 1.95112C87.7811 2.4931 87.4018 3.14348 87.1851 3.84805L85.2886 9.10525C85.2886 9.10525 84.6383 11.0022 84.0423 11.0022C83.3921 11.0022 83.1211 10.135 82.7418 9.10525C81.4956 5.69078 80.8995 3.95645 80.4118 2.87249C79.7074 1.19235 78.0819 0 76.1312 0C73.5844 0 71.5254 2.05952 71.5254 4.60682C71.5254 5.203 71.6337 5.79918 71.8505 6.28696L79.87 26.1234C80.1409 26.7738 80.6286 27.4241 81.3872 28.0203C82.1458 28.6707 83.0669 28.9417 84.2049 28.9417C85.3428 28.9417 86.3181 28.5081 87.1851 27.6409C87.5102 27.3157 87.7811 26.9364 88.0521 26.5028C88.323 26.0692 88.4314 25.7982 88.4855 25.6356C88.5397 25.473 88.6481 25.1478 88.8648 24.66C89.0816 24.1723 89.5151 22.9799 90.2195 20.9746C90.382 20.4326 90.5988 19.9448 90.7613 19.5112C90.8155 19.3487 91.1948 18.4815 91.8451 18.4815C92.3869 18.4815 92.712 19.1319 92.8204 19.4028C94.0667 22.6547 94.7711 24.5517 94.9879 25.1478L95.3671 26.0692C95.6923 26.7196 96.1799 27.3699 96.9385 27.9661C97.6971 28.6165 98.5099 28.8875 99.3227 28.8875C100.136 28.8875 100.84 28.7791 101.382 28.5081C102.628 27.8577 103.495 26.7196 104.091 25.1478L109.997 10.7312C110.268 9.91821 111.027 7.8045 111.623 6.44955Z" fill="white"/>
</svg>
