<svg width="340" height="240" viewBox="0 0 340 240" fill="none" xmlns="http://www.w3.org/2000/svg">
<path d="M306.398 210.8H285.898C285.418 210.8 284.998 210.454 284.998 210.038V209.762C284.998 209.346 285.398 209 285.898 209H306.398C306.878 209 307.298 209.346 307.298 209.762V210.038C307.298 210.454 306.898 210.8 306.398 210.8ZM255.698 209C256.195 209 256.598 209.403 256.598 209.9C256.598 210.397 256.195 210.8 255.698 210.8H223.098C222.601 210.8 222.198 210.397 222.198 209.9C222.198 209.403 222.601 209 223.098 209H255.698Z" fill="#DE3190"/>
<path d="M255.797 209.005C255.765 209.002 255.733 209 255.7 209H223.239C223.218 208.89 223.207 208.752 223.21 208.574C223.232 208.434 223.235 208.274 223.278 208.115C223.535 207.159 223.846 206.525 224.756 205.96C225.666 205.396 226.595 204.892 227.563 204.449C231.133 202.771 232.352 202.792 234.7 201.253C235.671 200.61 236.564 199.865 237.398 199.06C237.954 198.523 239.09 197.65 240.804 196.442L255.797 196.788V209.005ZM306.473 209.003C306.449 209.001 306.425 209 306.4 209H285.968L287.779 197.677L301.22 196.139L306.473 209.003Z" fill="#474961"/>
<path d="M261.902 86.1226C262.587 85.3509 263.351 84.6378 264.192 83.9966C266.637 83.078 271.301 82.1069 274.629 83.1671C278.522 84.407 280.924 87.7976 280.924 87.7976C280.924 87.7976 281.495 87.2034 287.448 103.831C291.417 114.916 295.268 129.938 299.002 148.895C299.359 151.018 301.422 162.991 305.19 184.814C305.193 184.832 305.196 184.85 305.199 184.868C305.357 185.961 304.599 186.976 303.506 187.134L282.66 190.152C281.656 190.297 280.703 189.669 280.441 188.689C277.841 178.967 276.435 173.652 276.224 172.745C275.768 170.935 275.32 168.885 274.857 166.536L271.209 148.902C271.173 148.731 271.104 148.176 271.001 147.238C269.3 140.997 267.845 135.661 266.636 131.229C265.665 134.959 264.613 138.958 263.482 143.226C262.933 167.161 262.523 180.772 262.251 184.059C262.209 184.568 262.076 186.439 261.851 189.674C261.776 190.761 260.846 191.587 259.758 191.534L238.268 190.481C237.245 190.431 236.425 189.616 236.369 188.594C235.418 171.347 236.047 155.124 238.256 139.924C241.683 116.333 246.862 106.693 249.952 97.618C249.986 97.5099 252.437 93.6288 257.304 85.9748C258.996 85.9848 260.529 86.034 261.902 86.1226Z" fill="#FFCB3D"/>
<path opacity="0.2" d="M258.918 91.2562C257.784 94.3351 257.591 97.7543 258.491 101.061C259.751 105.693 261.012 110.325 262.273 114.957C262.273 114.957 263.736 120.323 266.663 131.056C265.685 134.835 264.624 138.892 263.482 143.226C262.919 167.086 262.501 180.659 262.23 183.947C262.045 186.184 261.907 188.084 261.815 189.648C261.75 190.745 260.814 191.584 259.717 191.528L238.207 190.441C237.184 190.39 236.365 189.573 236.311 188.55C235.399 171.332 236.047 155.123 238.255 139.924C241.683 116.333 246.801 106.65 249.89 97.5754C249.918 97.4882 254.333 94.1443 258.918 91.2562Z" fill="#8C2A00"/>
<path d="M257.169 53.4599C257.601 53.3008 258.03 53.166 258.447 53.0519L258.365 51.5519C258.353 51.3336 258.518 51.146 258.736 51.1308L268.119 50.4776C268.339 50.4625 268.53 50.6286 268.546 50.8488L268.606 51.6959C273.724 51.0706 276.712 50.9277 277.569 51.2675C285.523 54.4188 286.839 68.1007 286.797 72.2629C286.785 73.379 285.002 74.3809 281.446 75.2684C281.833 79.0517 282.062 81.1891 282.193 82.2993C282.193 82.2993 282.191 82.4959 282.236 82.7867C282.348 83.6412 255.325 92.006 255.325 92.006C255.305 91.9881 255.286 91.9898 255.286 91.9898C255.286 91.9898 254.902 91.925 254.428 91.6913C254.192 91.5939 253.953 91.4576 253.709 91.2628C251.902 89.8487 251.611 86.3185 251.573 85.4575C251.549 85.1846 251.53 84.9701 251.53 84.9701C251.456 83.6856 251.274 81.0849 250.915 76.2332C249.634 76.7856 248.237 77.3473 246.724 77.9184L246.78 57.9588C246.784 56.5316 247.631 55.2415 248.939 54.6701C251.85 53.398 254.593 52.9946 257.169 53.4599Z" fill="#DE3190"/>
<path d="M255.745 196.877L252.184 196.795L240.805 196.442L241.388 190.582L255.895 191.287L255.745 196.877ZM285.907 189.64L300.056 187.596L301.22 196.139L287.779 197.677L285.907 189.64ZM267.827 43.1288V50.5219L260.081 51.0506L260.189 49.4387C259.083 49.7208 259.146 49.6877 259.04 49.711C257.753 49.896 256.683 49.7446 256.489 49.6844C255.779 49.5505 255.086 48.8798 254.516 47.803C253.743 46.3659 253.15 44.1894 252.977 41.638C252.935 41.2745 252.953 40.9173 252.971 40.56L253.266 37.0199C253.329 36.2286 253.592 35.458 254.065 34.7892C254.258 34.4901 254.444 34.2502 254.666 34.0539C257.059 31.5903 260.796 32.3789 261.462 32.5481C261.539 32.5761 261.619 32.5844 261.696 32.6125C262.411 32.8865 263.101 33.0183 263.795 33.1106C264.113 33.1438 264.343 33.447 264.309 33.7627L263.754 38.8117C263.946 38.712 266.962 37.5102 267.803 38.1165C268.496 38.6241 268.791 41.7936 267.827 43.1288ZM251.691 87.7792L251.895 87.5989C251.988 87.5989 252.041 87.6037 252.058 87.6132L268.641 80.1292L268.982 77.1128C276.323 76.3183 281.401 75.3807 284.214 74.3C284.263 82.0574 283.691 86.5199 282.498 87.6875C279.793 90.3347 265.704 96.8763 251.601 98.6422C248.448 100.04 243.234 101.057 235.958 101.695C233.882 100.367 232.767 98.0484 232.613 94.7382L237.665 93.0004C237.461 92.9302 237.356 92.8778 237.356 92.8778C236.262 90.3803 250.113 88.1702 251.88 87.6937L251.691 87.7792ZM247.552 77.4374C240.743 80.5721 229.779 82.9556 226.848 79.5407C223.011 75.0691 222.506 62.8937 225.333 43.0145C219.162 41.6477 214.888 40.1621 212.51 38.5575C211.866 38.1232 211.488 37.3927 211.507 36.6184C211.536 35.3609 212.583 34.3653 213.845 34.3947C219.888 34.5357 223.717 34.5241 225.333 34.3599C225.373 34.3558 225.414 34.352 225.454 34.3484C230.355 33.918 234.679 37.5277 235.111 42.4111L236.964 63.3573L246.776 58.6378L246.765 77.7373C247.031 77.637 247.294 77.5371 247.552 77.4374Z" fill="#DB9E75"/>
<path opacity="0.176986" d="M257.017 53.4221C255.221 54.1036 253.389 55.2108 252.165 57.0097C251.814 57.5313 251.372 58.3163 251.072 59.4228C251.03 59.5837 250.986 59.725 250.943 59.8859C250.841 60.2287 250.621 60.9551 250.444 61.7366C250.256 62.6172 250.175 64.2744 250.207 66.57L250.212 66.6285L250.258 67.587C250.52 71.0579 250.733 73.9034 250.905 76.2279C249.632 76.7775 248.244 77.3361 246.74 77.9038L246.782 57.9513C246.785 56.5277 247.627 55.2395 248.929 54.665C251.785 53.4057 254.481 52.9914 257.017 53.4221V53.4221Z" fill="#444444"/>
<path d="M260.192 49.4855L263.26 48.7201L260.081 51.1189L260.192 49.4855Z" fill="#482D1F"/>
<path d="M266.131 43.9532L266.15 43.9514C266.421 43.8596 267.215 43.5823 267.744 42.7567C268.274 41.9312 268.457 40.7691 267.897 39.7895C267.354 38.8317 266.213 38.2118 265.225 38.4287C264.669 38.5508 264.267 38.9292 264.223 38.9646C263.615 39.5817 263.421 40.2821 263.421 40.2821L263.32 40.7632C263.21 40.5999 263.109 40.4383 263.019 40.2801C261.763 38.6471 260.51 36.9943 259.256 35.3415C258.438 35.4761 257.142 35.5607 255.703 35.0899C255.199 34.9169 254.771 34.5918 254.392 34.372C254.506 34.2438 254.618 34.1354 254.712 34.0051C256.467 32.0464 259.699 32.1043 261.154 32.4167C261.331 32.4553 261.959 32.6011 262.868 32.7562C263.361 32.8479 263.759 32.8895 263.995 32.9343C266.946 33.3632 268.157 33.1296 269.566 34.0778C269.829 34.2455 270.428 34.6686 270.912 35.42C272.276 37.5449 271.631 40.0401 271.452 40.7822C270.856 43.0022 269.458 44.1219 268.999 44.6546C268.08 45.7397 266.887 44.6546 266.887 44.6546C266.887 44.6546 266.581 44.3847 266.131 43.9532Z" fill="#482D1F"/>
<path d="M240.399 95.5227C240.56 95.4829 240.722 95.5811 240.762 95.7419C240.802 95.9028 240.704 96.0654 240.543 96.1051C239.533 96.3547 238.742 96.5237 236.977 96.8808C235.22 97.2361 234.435 97.4039 233.436 97.6507C233.275 97.6905 233.113 97.5923 233.073 97.4315C233.033 97.2706 233.131 97.108 233.292 97.0683C234.302 96.8187 235.093 96.6497 236.858 96.2927C238.615 95.9373 239.4 95.7695 240.399 95.5227ZM242.706 98.5059C242.869 98.4761 243.025 98.5841 243.055 98.7471C243.085 98.9101 242.977 99.0664 242.814 99.0961C241.698 99.2999 240.836 99.4772 238.921 99.8874C236.999 100.299 236.134 100.477 235.01 100.682C234.847 100.712 234.691 100.604 234.661 100.441C234.631 100.278 234.739 100.122 234.902 100.092C236.018 99.8882 236.88 99.7108 238.795 99.3007C240.716 98.8893 241.582 98.711 242.706 98.5059Z" fill="#482D1F"/>
<path d="M254.169 40.7225C254.169 41.0663 254.187 41.6557 254 41.906C253.711 42.2798 253.115 41.2856 253.296 40.6096C253.403 40.3454 253.542 40.2485 253.703 40.2566C253.947 40.2589 254.152 40.4768 254.169 40.7225ZM258.47 40.9487C258.489 41.2959 258.507 41.8853 258.301 42.1322C258.011 42.506 257.416 41.5118 257.596 40.8358C257.704 40.5716 257.843 40.4747 258.004 40.4828C258.247 40.4851 258.452 40.703 258.47 40.9487Z" fill="#482D1F"/>
<path d="M255.935 41.1233L255.568 43.0807C255.567 43.0874 255.591 43.122 255.6 43.1237C255.708 43.1426 255.82 43.1549 255.994 43.1685C256.028 43.1712 256.064 43.1738 256.115 43.1776C256.179 43.1823 256.215 43.1848 256.249 43.1873C256.364 43.1959 256.46 43.2035 256.562 43.2124C256.672 43.2221 256.754 43.3191 256.744 43.4291C256.734 43.5392 256.637 43.6206 256.527 43.6109C256.427 43.6021 256.333 43.5947 256.219 43.5862C256.186 43.5838 256.151 43.5812 256.086 43.5765C256.034 43.5727 255.998 43.57 255.963 43.5673C255.777 43.5528 255.654 43.5393 255.531 43.5177C255.304 43.4778 255.134 43.2357 255.174 43.009L255.542 41.0496C255.562 40.941 255.666 40.8695 255.775 40.8898C255.884 40.9102 255.955 41.0147 255.935 41.1233Z" fill="#482D1F"/>
<path d="M262.066 40.989C262.082 41.2169 262.071 41.4505 262.029 41.6858C261.757 43.2244 260.284 44.2513 258.74 43.9802C257.441 43.7522 256.504 42.6785 256.401 41.4276L255.747 41.381C255.47 42.9145 254 43.9367 252.459 43.6662C250.914 43.395 249.882 41.9279 250.155 40.3889C250.428 38.8502 251.901 37.8234 253.445 38.0945C254.79 38.3307 255.747 39.4744 255.791 40.7825L256.416 40.8271C256.422 40.7858 256.428 40.7444 256.436 40.7029C256.708 39.1643 258.181 38.1374 259.725 38.4085C260.824 38.6014 261.663 39.3995 261.958 40.3982L263.299 40.2067C263.463 40.1832 263.615 40.2972 263.639 40.4612C263.662 40.6252 263.548 40.7772 263.384 40.8006L262.066 40.989ZM255.19 40.9798C255.241 39.8776 254.463 38.8823 253.341 38.6854C252.122 38.4715 250.96 39.2814 250.746 40.4935C250.531 41.7053 251.344 42.8613 252.563 43.0752C253.781 43.2892 254.943 42.4793 255.158 41.2671C255.168 41.2111 255.175 41.1551 255.181 41.0994C255.179 41.08 255.178 41.06 255.179 41.0397C255.181 41.0191 255.184 40.999 255.19 40.9798ZM261.438 41.5812C261.653 40.3694 260.84 39.2133 259.622 38.9994C258.403 38.7855 257.241 39.5954 257.026 40.8075C256.812 42.0194 257.625 43.1754 258.843 43.3893C260.062 43.6032 261.224 42.7933 261.438 41.5812Z" fill="#482D1F"/>
<path d="M256.706 44.7946C256.854 44.76 257.217 44.6619 257.271 44.4693C257.278 44.4301 257.309 44.3747 257.273 44.3482C257.191 44.2328 256.938 44.2894 256.566 44.3252C255.908 44.3714 255.389 44.3208 255.389 44.3208C255.389 44.3208 255.53 44.6691 255.634 44.7683C255.833 45.0255 256.492 44.8581 256.706 44.7946Z" fill="#482D1F"/>
<path d="M269.407 77.0865C269.365 75.3253 269.332 73.7848 269.309 72.4648C269.285 71.1445 269.253 68.9762 269.21 65.9598C269.208 65.7941 269.072 65.6617 268.906 65.664C268.741 65.6663 268.608 65.8025 268.61 65.9682C268.653 68.9852 268.685 71.1542 268.709 72.4754C268.732 73.7967 268.765 75.3385 268.807 77.1008C268.811 77.2665 268.949 77.3975 269.114 77.3937C269.28 77.3896 269.411 77.2521 269.407 77.0865Z" fill="#482D1F"/>
<path d="M140.943 214.84L140.945 214.96C140.932 215.421 140.538 215.788 140.052 215.796L106.419 215.743C105.933 215.732 105.547 215.358 105.539 214.898L105.537 214.778C105.55 214.318 105.944 213.951 106.429 213.943L140.042 213.996C140.548 213.987 140.935 214.36 140.943 214.84ZM51.4491 215.596L51.4 215.607L31.7243 200.229C31.3643 199.949 31.2843 199.409 31.5843 199.069L31.6443 198.969C31.8243 198.749 32.1043 198.629 32.3843 198.649C32.5443 198.649 32.6843 198.709 32.8243 198.809L52.4083 213.948L63.1256 213.972C63.5855 213.964 63.9521 214.337 63.9801 214.797L63.9822 214.917C63.9702 215.377 63.5966 215.744 63.1366 215.752L51.4142 215.716C51.4258 215.676 51.4375 215.636 51.4491 215.596Z" fill="#FF5645"/>
<path d="M140.682 214.238C140.521 214.084 140.297 213.991 140.042 213.996L106.429 213.943C106.376 213.943 106.324 213.949 106.273 213.958L107.622 201.517L122.983 201.473C124.831 202.681 126.034 203.554 126.59 204.091C127.424 204.897 128.317 205.641 129.288 206.284C131.636 207.823 132.855 207.802 136.425 209.48C137.393 209.923 138.322 210.427 139.232 210.991C140.142 211.556 140.453 212.19 140.71 213.146C140.753 213.305 140.755 213.465 140.778 213.605C140.783 213.92 140.745 214.109 140.682 214.238ZM32.8229 198.808L39.8069 189.236L51.8469 198.376L52.207 199.576C53.607 204.483 54.367 207.07 54.487 207.336C54.6313 207.648 54.7809 207.937 54.9383 208.218C56.0257 208.66 57.2605 209.093 59.147 210.036C60.107 210.496 61.027 211.016 61.927 211.596C62.827 212.176 63.127 212.816 63.367 213.776C63.3871 213.857 63.3971 213.938 63.4046 214.016C63.3174 213.985 63.2236 213.97 63.1256 213.972L52.4084 213.948L32.8243 198.809C32.8239 198.808 32.8234 198.808 32.8229 198.808Z" fill="#474961"/>
<path d="M91.7536 102.142C91.8134 102.15 91.8732 102.16 91.9331 102.171C92.5119 102.281 93.0523 102.539 93.5014 102.92C110.813 117.61 121.051 129.76 124.217 139.371C126.012 144.821 127.597 158.844 128.971 181.441C129.226 185.63 126.036 189.233 121.847 189.488C121.759 189.493 121.67 189.497 121.582 189.499L108.976 189.826C104.845 189.932 101.385 186.718 101.188 182.59L99.5078 147.315C96.7448 144.394 94.3372 141.821 92.285 139.595C91.7926 142.28 91.0329 145.114 89.8049 148.906C87.7587 155.224 79.4223 167.712 64.7957 186.37L64.2336 187.119C61.8512 190.293 57.4277 191.099 54.0783 188.971L44.6719 182.991C41.1296 180.74 40.0833 176.043 42.335 172.501C42.4286 172.353 42.5273 172.209 42.6308 172.069L63.5791 143.644C64.0784 132.375 65.067 122.516 66.5447 114.067C68.7614 101.394 85.3544 101.668 91.6344 101.877C91.6748 101.963 91.7145 102.052 91.7536 102.142Z" fill="#3ABF7C"/>
<path opacity="0.176986" d="M91.741 102.14C91.805 102.148 91.8691 102.158 91.9333 102.17C92.5121 102.28 93.0526 102.538 93.5017 102.919C110.813 117.609 121.051 129.759 124.217 139.37C126.012 144.82 127.597 158.843 128.972 181.44C129.226 185.629 126.037 189.232 121.847 189.487C121.759 189.492 121.67 189.496 121.582 189.498L108.976 189.824C104.845 189.931 101.385 186.717 101.189 182.589L99.5081 147.314C96.7467 144.394 94.3404 141.823 92.2891 139.599C93.1959 134.641 93.1921 130.186 93.5441 121.138C93.8981 112.038 93.297 105.705 91.741 102.14Z" fill="#444444"/>
<path d="M103.665 55.2023L228.56 46.4688L234.182 126.872C234.336 129.076 232.675 130.988 230.471 131.142L113.556 139.317C111.353 139.471 109.441 137.81 109.287 135.606L103.665 55.2023Z" fill="#F2F6FB"/>
<path d="M110.357 63.5862L114.1 63.3244C114.321 63.309 114.512 63.4752 114.527 63.6956L114.63 65.1708C114.646 65.3911 114.48 65.5823 114.259 65.5977L110.516 65.8595C110.295 65.8749 110.104 65.7087 110.089 65.4883L109.986 64.0132C109.97 63.7928 110.136 63.6016 110.357 63.5862ZM206.866 56.8376L223.1 55.7025C223.32 55.6871 223.511 55.8532 223.526 56.0736L223.63 57.5488C223.645 57.7692 223.479 57.9603 223.259 57.9757L207.025 59.1108C206.805 59.1263 206.614 58.9601 206.598 58.7397L206.495 57.2645C206.48 57.0442 206.646 56.853 206.866 56.8376ZM176.21 58.9813L192.444 57.8462C192.664 57.8307 192.855 57.9969 192.87 58.2173L192.974 59.6925C192.989 59.9128 192.823 60.104 192.602 60.1194L176.369 61.2545C176.149 61.2699 175.958 61.1038 175.942 60.8834L175.839 59.4082C175.824 59.1878 175.99 58.9967 176.21 58.9813ZM195.512 57.6316L203.798 57.0522C204.018 57.0368 204.209 57.2029 204.225 57.4233L204.328 58.8985C204.343 59.1189 204.177 59.31 203.957 59.3254L195.671 59.9048C195.451 59.9202 195.26 59.754 195.244 59.5337L195.141 58.0585C195.126 57.8381 195.292 57.647 195.512 57.6316Z" fill="#D8DEED"/>
<path d="M147.591 70.12L120.426 72.0195C119.699 72.0704 119.15 72.7011 119.201 73.4284L122.977 127.433C123.028 128.16 123.659 128.708 124.386 128.657L151.551 126.758C152.278 126.707 152.827 126.076 152.776 125.349L149 71.3447C148.949 70.6174 148.318 70.0691 147.591 70.12Z" fill="#D8DEED"/>
<path d="M138.029 125.819C139.189 125.738 140.065 124.748 139.986 123.609C139.906 122.469 138.901 121.612 137.74 121.693C136.58 121.774 135.704 122.763 135.783 123.903C135.863 125.042 136.868 125.9 138.029 125.819Z" fill="#F2F6FB"/>
<path d="M135.974 74.3246L132.897 74.5397C132.586 74.5615 132.352 74.831 132.374 75.1417C132.395 75.4524 132.665 75.6867 132.975 75.665L136.053 75.4498C136.363 75.4281 136.598 75.1586 136.576 74.8479C136.554 74.5371 136.285 74.3028 135.974 74.3246Z" fill="#F2F6FB"/>
<path d="M147.061 76.5646L121.847 78.3277L124.89 121.837L150.104 120.074L147.061 76.5646Z" fill="#F2F6FB"/>
<path d="M136.852 103.306L130.96 103.718C130.815 103.729 130.755 103.634 130.825 103.507L134.422 97.0553C134.493 96.9283 134.624 96.9167 134.715 97.0311L137.915 101.062L139.005 99.093C139.076 98.9659 139.209 98.9509 139.305 99.0631L142.435 102.702C142.53 102.813 142.491 102.912 142.345 102.923L139.798 103.125L136.852 103.306ZM139.036 97.6604C138.518 97.6966 138.07 97.3218 138.035 96.8232C138 96.3247 138.392 95.8911 138.91 95.8549C139.428 95.8186 139.877 96.1934 139.911 96.692C139.946 97.1906 139.554 97.6241 139.036 97.6604Z" fill="#D8DEED"/>
<path d="M162.024 84.5301L213.454 80.9337C213.675 80.9183 213.866 81.0845 213.881 81.3048L214.143 85.0533C214.159 85.2736 213.993 85.4648 213.772 85.4802L162.341 89.0766C162.121 89.092 161.93 88.9258 161.915 88.7055L161.652 84.957C161.637 84.7367 161.803 84.5455 162.024 84.5301ZM162.54 91.9181L194.101 89.7112C194.322 89.6958 194.513 89.8619 194.528 90.0823L194.79 93.8307C194.806 94.0511 194.64 94.2422 194.419 94.2576L162.858 96.4646C162.638 96.48 162.447 96.3139 162.431 96.0935L162.169 92.3451C162.154 92.1247 162.32 91.9335 162.54 91.9181ZM163.057 99.3061L206.54 96.2655C206.76 96.2501 206.951 96.4163 206.967 96.6367L207.229 100.385C207.244 100.605 207.078 100.797 206.858 100.812L163.375 103.853C163.154 103.868 162.963 103.702 162.948 103.481L162.686 99.7331C162.67 99.5127 162.836 99.3216 163.057 99.3061Z" fill="#E1E5F0"/>
<path d="M203.854 74.1809L161.507 77.1421C161.286 77.1575 161.12 77.3486 161.136 77.569L161.398 81.3174C161.413 81.5378 161.604 81.704 161.825 81.6886L204.172 78.7273C204.393 78.7119 204.559 78.5208 204.543 78.3004L204.281 74.552C204.266 74.3316 204.075 74.1655 203.854 74.1809Z" fill="#D8DEED"/>
<path d="M167.269 111.004L188.101 109.548C189.363 109.459 189.869 109.564 190.374 109.79C190.88 110.017 191.29 110.373 191.585 110.843C191.88 111.312 192.053 111.798 192.142 113.06L192.249 114.6C192.338 115.862 192.233 116.368 192.007 116.874C191.78 117.38 191.424 117.789 190.954 118.084C190.485 118.379 189.999 118.552 188.736 118.641L167.905 120.097C166.642 120.186 166.137 120.081 165.631 119.855C165.125 119.628 164.716 119.272 164.421 118.803C164.126 118.333 163.952 117.847 163.864 116.585L163.756 115.045C163.668 113.783 163.772 113.278 163.999 112.772C164.226 112.266 164.582 111.856 165.051 111.561C165.521 111.266 166.007 111.093 167.269 111.004Z" fill="#474BFF"/>
<path d="M103.288 49.8156C103.134 47.6118 104.795 45.7003 107.001 45.546L223.912 37.3708C226.117 37.2167 228.029 38.8791 228.183 41.0821L228.588 46.8678L103.693 55.6013L103.288 49.8156Z" fill="#E1E5F0"/>
<path d="M109.995 52.5542C111.152 52.4733 112.025 51.4698 111.944 50.3129C111.863 49.1559 110.859 48.2836 109.702 48.3645C108.545 48.4454 107.673 49.4489 107.754 50.6058C107.835 51.7628 108.838 52.6351 109.995 52.5542Z" fill="#FF5645"/>
<path d="M116.978 52.066C118.135 51.985 119.008 50.9816 118.927 49.8246C118.846 48.6676 117.842 47.7953 116.685 47.8762C115.528 47.9571 114.656 48.9606 114.737 50.1176C114.818 51.2745 115.821 52.1469 116.978 52.066Z" fill="#FFCB3D"/>
<path d="M124.161 51.5637C125.318 51.4828 126.19 50.4793 126.109 49.3223C126.028 48.1654 125.025 47.293 123.868 47.3739C122.711 47.4548 121.838 48.4583 121.919 49.6153C122 50.7723 123.004 51.6446 124.161 51.5637Z" fill="#3ABF7C"/>
<path d="M66.1829 86.1033L63.9708 86.5122C63.888 86.5275 63.8039 86.5341 63.7197 86.5318C63.0573 86.5136 62.5349 85.9618 62.5531 85.2993C62.7301 78.8538 63.3798 74.6485 64.5023 72.6833C64.8309 72.108 65.2543 71.6444 65.7439 71.2854C67.7457 69.3854 71.152 68.3145 75.2144 67.6232L76.3371 67.4252C78.0734 67.1307 79.7461 67.1528 81.2991 67.4322C83.2369 67.5062 85.6222 67.9559 87.7916 69.386C88.1356 69.6096 88.8701 70.0894 89.6798 70.8808C89.6798 70.8808 91.2692 72.408 93.3434 77.6068C93.5839 78.2232 93.9332 79.247 94.3916 80.6784C94.56 81.2044 94.2701 81.7673 93.7441 81.9357C93.7082 81.9472 93.6716 81.9567 93.6346 81.964L91.1195 82.4653L91.7822 90.6358C91.8007 90.856 91.8157 91.0564 91.8539 91.2731C92.0148 92.3007 92.0204 93.5995 91.3576 94.7927C90.4073 96.5444 88.8985 99.0443 81.0061 100.355C73.6653 101.568 71.5303 99.7104 70.0846 98.4219C69.0501 97.5076 68.6158 96.0814 68.4225 95.1C68.3843 94.8834 68.3299 94.6899 68.272 94.4767L66.1829 86.1033Z" fill="#FF5645"/>
<path opacity="0.176986" d="M81.2642 67.4289C85.1585 68.1195 88.3041 70.4269 89.8204 73.4173C90.3161 74.386 90.5697 75.4785 90.6391 76.563L91.1177 82.4654L93.6246 81.9772C93.6618 81.97 93.6985 81.9607 93.7346 81.9493C94.2612 81.783 94.5534 81.2213 94.3871 80.6946C93.932 79.2531 93.5841 78.2238 93.3434 77.6068C91.2692 72.408 89.6798 70.8808 89.6798 70.8808C88.8701 70.0894 88.1356 69.6096 87.7916 69.386C85.588 67.9333 83.2065 67.4923 81.2642 67.4289V67.4289Z" fill="#444444"/>
<path d="M108.352 189.839C108.575 189.853 108.801 189.857 109.028 189.851L121.634 189.525C121.722 189.523 121.811 189.519 121.899 189.514C122.646 189.469 123.361 189.317 124.031 189.074L122.76 201.576H107.622L108.352 189.839ZM56.6204 190.017L51.8469 198.376L39.8069 189.236L44.1027 182.578C44.3003 182.733 44.5075 182.88 44.724 183.017L54.1304 188.996C54.9148 189.495 55.7582 189.833 56.6204 190.017ZM101.079 97.1226L103.986 97.4452C105.224 96.793 116.504 90.9408 117.239 93.779C117.239 93.779 117.19 93.8824 117.076 94.0599L122.328 92.2618C125.224 96.3158 122.772 102.653 122.733 102.675C116.032 105.615 111 107.177 107.64 107.362C107.252 107.383 106.905 107.358 106.599 107.287C106.594 107.324 106.589 107.361 106.583 107.398C95.9806 108.67 84.865 108.2 73.2366 105.986C70.4388 105.453 67.3437 98.9416 63.9514 86.4507C63.9842 86.4474 64.0169 86.4427 64.0494 86.4367L77.1023 84.024C77.219 84.0025 77.3286 83.9647 77.4293 83.9134L80.6451 94.8547L90.5289 95.9516C90.8528 95.5157 91.0882 95.0953 91.2967 94.7109C91.9596 93.5176 91.954 92.2189 91.7931 91.1912C91.7549 90.9745 91.7399 90.7741 91.7214 90.554L91.0426 82.1847L93.5641 81.7401C93.6174 81.7307 93.6699 81.717 93.721 81.6991C93.7897 81.675 93.8542 81.6441 93.914 81.6075L96.6109 87.1804C98.8496 85.9411 105.371 77.8387 105.371 77.8387C105.371 77.8387 105.718 82.4383 106.411 91.6373L101.079 97.1226ZM79.7493 65.2281L79.9783 67.1294C84.0369 67.2952 85.8816 68.873 86.5031 69.561C86.5031 69.561 82.2211 70.3429 73.6569 71.9067C71.3473 70.055 67.9098 69.6352 65.7742 71.2458C66.9599 70.0973 69.008 69.1088 71.9183 68.2803C72.6797 68.0636 73.4045 67.8815 74.0945 67.7306L73.3486 60.6387C73.3052 60.6142 73.2618 60.5882 73.2185 60.5606C72.4385 60.0449 71.8499 59.0845 71.9619 57.9571C72.056 56.9173 72.8346 55.4866 73.7826 55.3154C74.3146 55.2143 75.7996 55.6658 75.6947 55.197C75.6247 54.8844 75.2152 53.2273 74.4661 50.2255C74.4026 49.9113 74.5865 49.5928 74.8956 49.51C75.5962 49.343 76.2893 49.3022 76.9768 48.9316C77.0541 48.9109 77.1262 48.8709 77.2034 48.8502C77.8396 48.5969 81.3807 47.1305 84.0848 49.2632C84.3156 49.4292 84.5426 49.6582 84.7748 49.9066C85.3231 50.4844 85.6847 51.2157 85.8531 51.9988L86.6251 55.4982C86.6796 55.8563 86.7535 56.2092 86.7694 56.5777C87.0634 61.0748 85.9621 64.5378 84.3704 65.0886C84.1824 65.1596 83.1444 65.4585 81.8393 65.4562C81.7131 65.4486 81.8252 65.4807 80.0264 65.2587C79.9315 65.2485 79.8391 65.2383 79.7493 65.2281Z" fill="#F2A98A"/>
<path opacity="0.2" d="M100.927 97.2313L106.411 91.6654C105.718 82.4476 105.371 77.8387 105.371 77.8387C105.371 77.8387 98.8496 85.9411 96.6109 87.1804L93.9668 81.7886C93.8952 81.8379 93.8158 81.8786 93.7298 81.9088C93.6787 81.9267 93.6262 81.9404 93.5729 81.9498L91.0514 82.3944L91.7302 90.7637C91.7487 90.9838 91.7637 91.1842 91.8019 91.4009C91.9628 92.4286 91.9684 93.7273 91.3056 94.9206C91.1093 95.2823 90.8892 95.676 90.594 96.0845L100.927 97.2313Z" fill="#8C2A00"/>
<path d="M116.355 97.289C117.344 97.0048 118.109 96.7586 119.81 96.1899C121.519 95.6185 122.289 95.3705 123.289 95.0831C123.448 95.0374 123.615 95.1294 123.66 95.2886C123.706 95.4478 123.614 95.614 123.455 95.6598C122.465 95.944 121.701 96.1903 120 96.7589C118.291 97.3303 117.521 97.5784 116.521 97.8657C116.361 97.9115 116.195 97.8194 116.15 97.6602C116.104 97.501 116.196 97.3348 116.355 97.289ZM115.832 101.407C116.909 101.024 117.748 100.746 119.62 100.144C121.486 99.5442 122.321 99.2681 123.39 98.8878C123.547 98.8322 123.718 98.9138 123.774 99.0699C123.829 99.226 123.748 99.3976 123.591 99.4531C122.515 99.8361 121.675 100.113 119.804 100.716C117.938 101.316 117.102 101.592 116.033 101.972C115.877 102.028 115.705 101.946 115.65 101.79C115.594 101.634 115.676 101.462 115.832 101.407Z" fill="#482D1F"/>
<path d="M67.4863 55.4004C67.4703 54.6278 67.5948 53.7845 67.9917 52.9542C68.3708 52.1279 68.9203 51.6287 69.1545 51.421C70.4454 50.2883 71.6887 50.3693 74.6096 49.5245C75.2226 49.3395 76.1254 49.0769 77.1762 48.6711C77.2586 48.6698 77.3307 48.6297 77.408 48.609C78.0441 48.3558 81.5328 47.2346 84.0952 49.3019C84.1055 49.3405 84.4923 49.5475 84.4885 49.6106C84.4885 49.6106 81.8233 55.3559 76.2534 56.5274C76.1043 56.3668 75.7093 55.9863 75.1169 55.7452C75.0486 55.7221 74.5652 55.541 74.0333 55.6421C73.0853 55.8133 72.3161 56.8062 72.222 57.846C72.0996 58.9348 72.683 59.8758 73.4438 60.3967C74.2045 60.9175 75.0238 60.8844 75.2905 60.875L75.6034 60.7847C75.8736 61.3022 76.0618 61.8597 75.8436 62.285C75.422 63.1066 74.6372 63.581 73.4892 63.708C72.4275 65.0519 70.6912 65.9897 68.6767 66.1305C65.2058 66.3733 62.2234 64.1582 62.0154 61.1832C61.8161 58.3343 64.2332 55.8215 67.4863 55.4004ZM86.8821 54.4409C86.5306 54.5972 85.9279 54.8208 85.3353 54.7726C84.4128 54.7299 85.1579 54.0333 85.9603 53.8597C86.3518 53.7755 86.6934 53.891 86.9087 53.999C87.0801 54.098 87.065 54.3505 86.8821 54.4409ZM83.1343 55.4451C82.7635 55.6066 82.1608 55.8302 81.5488 55.7871C80.6315 55.7637 81.3715 55.0478 82.1739 54.8743C82.5847 54.7849 82.9263 54.9004 83.1416 55.0084C83.3323 55.1022 83.3172 55.3547 83.1343 55.4451Z" fill="#482D1F"/>
<path d="M85.8318 56.3167C85.8084 56.0745 85.955 55.8489 86.1868 55.7867C86.3413 55.7453 86.4973 55.7864 86.6277 56.0413C86.9286 56.6233 86.5678 57.6724 86.2235 57.3919C85.9682 57.2119 85.8812 56.6554 85.8318 56.3167ZM82.3621 57.1221C82.3386 56.88 82.4852 56.6543 82.717 56.5922C82.8716 56.5508 83.0275 56.5918 83.1579 56.8468C83.4588 57.4287 83.098 58.4779 82.7537 58.1974C82.4984 58.0174 82.3921 57.4661 82.3621 57.1221Z" fill="#482D1F"/>
<path d="M84.3736 60.7657C84.228 60.7633 83.8686 60.7353 83.7537 60.5384C83.7433 60.4997 83.7085 60.447 83.7174 60.4031C83.7637 60.2665 84.0303 60.2572 84.3884 60.2027C85.0221 60.095 85.5089 59.9024 85.5089 59.9024C85.5089 59.9024 85.4579 60.3302 85.3872 60.4527C85.2768 60.8135 84.6017 60.7667 84.3736 60.7657Z" fill="#482D1F"/>
<path d="M84.867 56.7328L85.6474 58.7241L85.6544 58.7453C85.7108 58.9562 85.619 59.1906 85.4181 59.2821C85.3805 59.2961 85.3594 59.3034 85.3381 59.3106C85.1374 59.3787 84.9913 59.42 84.4649 59.561C84.3582 59.5896 84.2486 59.5263 84.22 59.4196C84.1914 59.3129 84.2547 59.2032 84.3614 59.1746C84.8784 59.0361 85.0205 58.9959 85.2098 58.9318C85.2295 58.9251 85.2491 58.9183 85.2689 58.9114C85.2645 58.9126 85.2747 58.8858 85.2697 58.8566L84.4893 56.8651L84.4807 56.8373L84.2139 55.6872C84.1889 55.5796 84.2559 55.4721 84.3635 55.4472C84.4711 55.4222 84.5786 55.4892 84.6035 55.5968L84.867 56.7328Z" fill="#482D1F"/>
<path d="M77.6905 83.8334C77.2043 81.9615 76.6851 80.0156 76.1329 77.9957C76.0892 77.8359 75.9243 77.7417 75.7644 77.7854C75.6046 77.8291 75.5105 77.9941 75.5541 78.1539C76.1056 80.1714 76.6242 82.1148 77.1098 83.9842C77.1515 84.1446 77.3152 84.2408 77.4756 84.1992C77.6359 84.1575 77.7322 83.9937 77.6905 83.8334Z" fill="#482D1F"/>
</svg>
