<svg width="140" height="140" viewBox="0 0 140 140" fill="none" xmlns="http://www.w3.org/2000/svg">
<rect width="140" height="140" fill="#F7D6D9"/>
<path d="M117 54.3486C117 51.7004 113.665 47.2236 113.665 47.2236C112.344 45.1428 107.562 38.4591 105.926 37.4502C104.291 36.5044 102.529 36 100.578 36C98.6279 36 96.8661 36.5044 95.2303 37.4502C93.5944 38.396 92.4619 39.8463 91.7068 41.6118L83.7162 60.654C83.7162 60.654 83.0241 62.1673 82.0174 62.1673C81.0107 62.1673 80.3815 60.7171 80.3815 60.7171L78.494 56.4294L77.2985 53.8442L71.7617 41.6118C70.9438 39.7832 69.7483 38.396 68.1754 37.4502C66.6024 36.5044 64.8407 36 62.8902 36C60.9398 36 59.1781 36.5044 57.5422 37.4502C55.9063 38.396 54.7108 39.8463 53.8929 41.6118L45.7135 59.1407C45.7135 59.1407 45.0214 60.654 44.0147 60.654C43.008 60.654 42.5047 59.519 42.3788 59.2038V59.1407L40.5542 54.7269C39.8621 52.8353 38.7925 51.4482 37.3454 50.5654C35.9612 49.6827 34.3882 49.2413 32.6265 49.2413C30.1727 49.2413 27.9705 50.061 25.9572 51.7004C24.0067 53.3398 23 55.3575 23 57.6905C23 58.9515 23.2517 60.0865 23.755 61.1584L41.1834 98.8015C42.0643 100.63 43.3226 102.017 44.8956 102.963C46.5315 103.909 48.2932 104.413 50.2436 104.413C52.1941 104.413 53.9558 103.909 55.5917 102.963C57.2276 102.017 58.3601 100.567 59.1151 98.8015L67.0428 80.0745C67.1058 79.8854 67.7349 78.5612 68.8675 78.5612C69.7483 78.5612 70.3146 79.444 70.5663 79.8854L70.6921 80.1376L72.4538 83.9839C72.5797 84.2991 73.6493 86.5691 73.6493 86.5691L79.1232 98.7384C79.9411 100.567 81.1366 101.954 82.7095 102.9C84.2825 103.846 86.0442 104.35 87.9947 104.35C89.9451 104.35 91.7068 103.846 93.3427 102.9C94.9786 101.954 96.174 100.504 96.992 98.7384L106.996 77.2371C107.436 76.2283 111.967 66.7072 114.483 61.4737C115.93 58.3841 117 56.8708 117 54.3486Z" fill="white"/>
</svg>
