<svg width="1394" height="50" viewBox="0 0 1394 50" fill="none" xmlns="http://www.w3.org/2000/svg">
<rect width="1394" height="50" fill="white"/>
<rect width="50" height="50" fill="#F7C974"/>
<path d="M42.1746 19.2051C42.1746 18.2373 40.9569 16.6014 40.9569 16.6014C40.4744 15.841 38.7283 13.3986 38.131 13.03C37.5336 12.6843 36.8903 12.5 36.1781 12.5C35.4659 12.5 34.8226 12.6843 34.2252 13.03C33.6279 13.3756 33.2143 13.9055 32.9386 14.5507L30.0208 21.5092C30.0208 21.5092 29.7681 22.0622 29.4005 22.0622C29.0329 22.0622 28.8031 21.5323 28.8031 21.5323L28.1139 19.9654L27.6774 19.0207L25.6556 14.5507C25.3569 13.8825 24.9204 13.3756 24.346 13.03C23.7716 12.6843 23.1283 12.5 22.4161 12.5C21.7039 12.5 21.0606 12.6843 20.4632 13.03C19.8659 13.3756 19.4294 13.9055 19.1307 14.5507L16.1439 20.9562C16.1439 20.9562 15.8912 21.5092 15.5236 21.5092C15.156 21.5092 14.9722 21.0945 14.9263 20.9793V20.9562L14.26 19.3433C14.0073 18.6521 13.6167 18.1452 13.0883 17.8226C12.5828 17.5 12.0084 17.3387 11.3651 17.3387C10.4691 17.3387 9.665 17.6382 8.9298 18.2373C8.21758 18.8364 7.84998 19.5737 7.84998 20.4263C7.84998 20.8871 7.94188 21.3018 8.12568 21.6935L14.4897 35.4493C14.8114 36.1175 15.2709 36.6244 15.8453 36.97C16.4426 37.3157 17.0859 37.5 17.7981 37.5C18.5104 37.5 19.1537 37.3157 19.751 36.97C20.3484 36.6244 20.7619 36.0945 21.0376 35.4493L23.9325 28.606C23.9554 28.5369 24.1852 28.053 24.5987 28.053C24.9204 28.053 25.1272 28.3756 25.2191 28.5369L25.265 28.629L25.9083 30.0346C25.9543 30.1498 26.3448 30.9793 26.3448 30.9793L28.3436 35.4263C28.6423 36.0945 29.0788 36.6014 29.6532 36.947C30.2276 37.2926 30.8709 37.477 31.5831 37.477C32.2953 37.477 32.9386 37.2926 33.536 36.947C34.1333 36.6014 34.5699 36.0714 34.8685 35.4263L38.5216 27.5691C38.6824 27.2005 40.3366 23.7212 41.2556 21.8088C41.784 20.6797 42.1746 20.1267 42.1746 19.2051Z" fill="white"/>
<rect x="56" width="50" height="50" fill="#A6C2D0"/>
<path d="M98.1746 19.2051C98.1746 18.2373 96.9569 16.6014 96.9569 16.6014C96.4744 15.841 94.7283 13.3986 94.131 13.03C93.5336 12.6843 92.8903 12.5 92.1781 12.5C91.4659 12.5 90.8226 12.6843 90.2252 13.03C89.6279 13.3756 89.2143 13.9055 88.9386 14.5507L86.0208 21.5092C86.0208 21.5092 85.7681 22.0622 85.4005 22.0622C85.0329 22.0622 84.8031 21.5323 84.8031 21.5323L84.1139 19.9654L83.6774 19.0207L81.6556 14.5507C81.3569 13.8825 80.9204 13.3756 80.346 13.03C79.7716 12.6843 79.1283 12.5 78.4161 12.5C77.7039 12.5 77.0606 12.6843 76.4632 13.03C75.8659 13.3756 75.4294 13.9055 75.1307 14.5507L72.1439 20.9562C72.1439 20.9562 71.8912 21.5092 71.5236 21.5092C71.156 21.5092 70.9722 21.0945 70.9263 20.9793V20.9562L70.26 19.3433C70.0073 18.6521 69.6167 18.1452 69.0883 17.8226C68.5828 17.5 68.0084 17.3387 67.3651 17.3387C66.4691 17.3387 65.665 17.6382 64.9298 18.2373C64.2176 18.8364 63.85 19.5737 63.85 20.4263C63.85 20.8871 63.9419 21.3018 64.1257 21.6935L70.4897 35.4493C70.8114 36.1175 71.2709 36.6244 71.8453 36.97C72.4426 37.3157 73.0859 37.5 73.7981 37.5C74.5104 37.5 75.1537 37.3157 75.751 36.97C76.3484 36.6244 76.7619 36.0945 77.0376 35.4493L79.9325 28.606C79.9554 28.5369 80.1852 28.053 80.5987 28.053C80.9204 28.053 81.1272 28.3756 81.2191 28.5369L81.265 28.629L81.9083 30.0346C81.9543 30.1498 82.3448 30.9793 82.3448 30.9793L84.3436 35.4263C84.6423 36.0945 85.0788 36.6014 85.6532 36.947C86.2276 37.2926 86.8709 37.477 87.5831 37.477C88.2953 37.477 88.9386 37.2926 89.536 36.947C90.1333 36.6014 90.5699 36.0714 90.8685 35.4263L94.5216 27.5691C94.6824 27.2005 96.3366 23.7212 97.2556 21.8088C97.784 20.6797 98.1746 20.1267 98.1746 19.2051Z" fill="white"/>
<rect x="112" width="50" height="50" fill="#D6F279"/>
<path d="M154.175 19.2051C154.175 18.2373 152.957 16.6014 152.957 16.6014C152.474 15.841 150.728 13.3986 150.131 13.03C149.534 12.6843 148.89 12.5 148.178 12.5C147.466 12.5 146.823 12.6843 146.225 13.03C145.628 13.3756 145.214 13.9055 144.939 14.5507L142.021 21.5092C142.021 21.5092 141.768 22.0622 141.4 22.0622C141.033 22.0622 140.803 21.5323 140.803 21.5323L140.114 19.9654L139.677 19.0207L137.656 14.5507C137.357 13.8825 136.92 13.3756 136.346 13.03C135.772 12.6843 135.128 12.5 134.416 12.5C133.704 12.5 133.061 12.6843 132.463 13.03C131.866 13.3756 131.429 13.9055 131.131 14.5507L128.144 20.9562C128.144 20.9562 127.891 21.5092 127.524 21.5092C127.156 21.5092 126.972 21.0945 126.926 20.9793V20.9562L126.26 19.3433C126.007 18.6521 125.617 18.1452 125.088 17.8226C124.583 17.5 124.008 17.3387 123.365 17.3387C122.469 17.3387 121.665 17.6382 120.93 18.2373C120.218 18.8364 119.85 19.5737 119.85 20.4263C119.85 20.8871 119.942 21.3018 120.126 21.6935L126.49 35.4493C126.811 36.1175 127.271 36.6244 127.845 36.97C128.443 37.3157 129.086 37.5 129.798 37.5C130.51 37.5 131.154 37.3157 131.751 36.97C132.348 36.6244 132.762 36.0945 133.038 35.4493L135.932 28.606C135.955 28.5369 136.185 28.053 136.599 28.053C136.92 28.053 137.127 28.3756 137.219 28.5369L137.265 28.629L137.908 30.0346C137.954 30.1498 138.345 30.9793 138.345 30.9793L140.344 35.4263C140.642 36.0945 141.079 36.6014 141.653 36.947C142.228 37.2926 142.871 37.477 143.583 37.477C144.295 37.477 144.939 37.2926 145.536 36.947C146.133 36.6014 146.57 36.0714 146.869 35.4263L150.522 27.5691C150.682 27.2005 152.337 23.7212 153.256 21.8088C153.784 20.6797 154.175 20.1267 154.175 19.2051Z" fill="white"/>
<rect x="168" width="50" height="50" fill="#F7D6D9"/>
<path d="M210.175 19.2051C210.175 18.2373 208.957 16.6014 208.957 16.6014C208.474 15.841 206.728 13.3986 206.131 13.03C205.534 12.6843 204.89 12.5 204.178 12.5C203.466 12.5 202.823 12.6843 202.225 13.03C201.628 13.3756 201.214 13.9055 200.939 14.5507L198.021 21.5092C198.021 21.5092 197.768 22.0622 197.4 22.0622C197.033 22.0622 196.803 21.5323 196.803 21.5323L196.114 19.9654L195.677 19.0207L193.656 14.5507C193.357 13.8825 192.92 13.3756 192.346 13.03C191.772 12.6843 191.128 12.5 190.416 12.5C189.704 12.5 189.061 12.6843 188.463 13.03C187.866 13.3756 187.429 13.9055 187.131 14.5507L184.144 20.9562C184.144 20.9562 183.891 21.5092 183.524 21.5092C183.156 21.5092 182.972 21.0945 182.926 20.9793V20.9562L182.26 19.3433C182.007 18.6521 181.617 18.1452 181.088 17.8226C180.583 17.5 180.008 17.3387 179.365 17.3387C178.469 17.3387 177.665 17.6382 176.93 18.2373C176.218 18.8364 175.85 19.5737 175.85 20.4263C175.85 20.8871 175.942 21.3018 176.126 21.6935L182.49 35.4493C182.811 36.1175 183.271 36.6244 183.845 36.97C184.443 37.3157 185.086 37.5 185.798 37.5C186.51 37.5 187.154 37.3157 187.751 36.97C188.348 36.6244 188.762 36.0945 189.038 35.4493L191.932 28.606C191.955 28.5369 192.185 28.053 192.599 28.053C192.92 28.053 193.127 28.3756 193.219 28.5369L193.265 28.629L193.908 30.0346C193.954 30.1498 194.345 30.9793 194.345 30.9793L196.344 35.4263C196.642 36.0945 197.079 36.6014 197.653 36.947C198.228 37.2926 198.871 37.477 199.583 37.477C200.295 37.477 200.939 37.2926 201.536 36.947C202.133 36.6014 202.57 36.0714 202.869 35.4263L206.522 27.5691C206.682 27.2005 208.337 23.7212 209.256 21.8088C209.784 20.6797 210.175 20.1267 210.175 19.2051Z" fill="white"/>
<rect x="224" width="50" height="50" fill="#F5E257"/>
<path d="M266.175 19.2051C266.175 18.2373 264.957 16.6014 264.957 16.6014C264.474 15.841 262.728 13.3986 262.131 13.03C261.534 12.6843 260.89 12.5 260.178 12.5C259.466 12.5 258.823 12.6843 258.225 13.03C257.628 13.3756 257.214 13.9055 256.939 14.5507L254.021 21.5092C254.021 21.5092 253.768 22.0622 253.4 22.0622C253.033 22.0622 252.803 21.5323 252.803 21.5323L252.114 19.9654L251.677 19.0207L249.656 14.5507C249.357 13.8825 248.92 13.3756 248.346 13.03C247.772 12.6843 247.128 12.5 246.416 12.5C245.704 12.5 245.061 12.6843 244.463 13.03C243.866 13.3756 243.429 13.9055 243.131 14.5507L240.144 20.9562C240.144 20.9562 239.891 21.5092 239.524 21.5092C239.156 21.5092 238.972 21.0945 238.926 20.9793V20.9562L238.26 19.3433C238.007 18.6521 237.617 18.1452 237.088 17.8226C236.583 17.5 236.008 17.3387 235.365 17.3387C234.469 17.3387 233.665 17.6382 232.93 18.2373C232.218 18.8364 231.85 19.5737 231.85 20.4263C231.85 20.8871 231.942 21.3018 232.126 21.6935L238.49 35.4493C238.811 36.1175 239.271 36.6244 239.845 36.97C240.443 37.3157 241.086 37.5 241.798 37.5C242.51 37.5 243.154 37.3157 243.751 36.97C244.348 36.6244 244.762 36.0945 245.038 35.4493L247.932 28.606C247.955 28.5369 248.185 28.053 248.599 28.053C248.92 28.053 249.127 28.3756 249.219 28.5369L249.265 28.629L249.908 30.0346C249.954 30.1498 250.345 30.9793 250.345 30.9793L252.344 35.4263C252.642 36.0945 253.079 36.6014 253.653 36.947C254.228 37.2926 254.871 37.477 255.583 37.477C256.295 37.477 256.939 37.2926 257.536 36.947C258.133 36.6014 258.57 36.0714 258.869 35.4263L262.522 27.5691C262.682 27.2005 264.337 23.7212 265.256 21.8088C265.784 20.6797 266.175 20.1267 266.175 19.2051Z" fill="white"/>
<rect x="280" width="50" height="50" fill="#E57B9F"/>
<path d="M322.175 19.2051C322.175 18.2373 320.957 16.6014 320.957 16.6014C320.474 15.841 318.728 13.3986 318.131 13.03C317.534 12.6843 316.89 12.5 316.178 12.5C315.466 12.5 314.823 12.6843 314.225 13.03C313.628 13.3756 313.214 13.9055 312.939 14.5507L310.021 21.5092C310.021 21.5092 309.768 22.0622 309.4 22.0622C309.033 22.0622 308.803 21.5323 308.803 21.5323L308.114 19.9654L307.677 19.0207L305.656 14.5507C305.357 13.8825 304.92 13.3756 304.346 13.03C303.772 12.6843 303.128 12.5 302.416 12.5C301.704 12.5 301.061 12.6843 300.463 13.03C299.866 13.3756 299.429 13.9055 299.131 14.5507L296.144 20.9562C296.144 20.9562 295.891 21.5092 295.524 21.5092C295.156 21.5092 294.972 21.0945 294.926 20.9793V20.9562L294.26 19.3433C294.007 18.6521 293.617 18.1452 293.088 17.8226C292.583 17.5 292.008 17.3387 291.365 17.3387C290.469 17.3387 289.665 17.6382 288.93 18.2373C288.218 18.8364 287.85 19.5737 287.85 20.4263C287.85 20.8871 287.942 21.3018 288.126 21.6935L294.49 35.4493C294.811 36.1175 295.271 36.6244 295.845 36.97C296.443 37.3157 297.086 37.5 297.798 37.5C298.51 37.5 299.154 37.3157 299.751 36.97C300.348 36.6244 300.762 36.0945 301.038 35.4493L303.932 28.606C303.955 28.5369 304.185 28.053 304.599 28.053C304.92 28.053 305.127 28.3756 305.219 28.5369L305.265 28.629L305.908 30.0346C305.954 30.1498 306.345 30.9793 306.345 30.9793L308.344 35.4263C308.642 36.0945 309.079 36.6014 309.653 36.947C310.228 37.2926 310.871 37.477 311.583 37.477C312.295 37.477 312.939 37.2926 313.536 36.947C314.133 36.6014 314.57 36.0714 314.869 35.4263L318.522 27.5691C318.682 27.2005 320.337 23.7212 321.256 21.8088C321.784 20.6797 322.175 20.1267 322.175 19.2051Z" fill="white"/>
<rect x="336" width="50" height="50" fill="#EC5540"/>
<path d="M378.175 19.2051C378.175 18.2373 376.957 16.6014 376.957 16.6014C376.474 15.841 374.728 13.3986 374.131 13.03C373.534 12.6843 372.89 12.5 372.178 12.5C371.466 12.5 370.823 12.6843 370.225 13.03C369.628 13.3756 369.214 13.9055 368.939 14.5507L366.021 21.5092C366.021 21.5092 365.768 22.0622 365.4 22.0622C365.033 22.0622 364.803 21.5323 364.803 21.5323L364.114 19.9654L363.677 19.0207L361.656 14.5507C361.357 13.8825 360.92 13.3756 360.346 13.03C359.772 12.6843 359.128 12.5 358.416 12.5C357.704 12.5 357.061 12.6843 356.463 13.03C355.866 13.3756 355.429 13.9055 355.131 14.5507L352.144 20.9562C352.144 20.9562 351.891 21.5092 351.524 21.5092C351.156 21.5092 350.972 21.0945 350.926 20.9793V20.9562L350.26 19.3433C350.007 18.6521 349.617 18.1452 349.088 17.8226C348.583 17.5 348.008 17.3387 347.365 17.3387C346.469 17.3387 345.665 17.6382 344.93 18.2373C344.218 18.8364 343.85 19.5737 343.85 20.4263C343.85 20.8871 343.942 21.3018 344.126 21.6935L350.49 35.4493C350.811 36.1175 351.271 36.6244 351.845 36.97C352.443 37.3157 353.086 37.5 353.798 37.5C354.51 37.5 355.154 37.3157 355.751 36.97C356.348 36.6244 356.762 36.0945 357.038 35.4493L359.932 28.606C359.955 28.5369 360.185 28.053 360.599 28.053C360.92 28.053 361.127 28.3756 361.219 28.5369L361.265 28.629L361.908 30.0346C361.954 30.1498 362.345 30.9793 362.345 30.9793L364.344 35.4263C364.642 36.0945 365.079 36.6014 365.653 36.947C366.228 37.2926 366.871 37.477 367.583 37.477C368.295 37.477 368.939 37.2926 369.536 36.947C370.133 36.6014 370.57 36.0714 370.869 35.4263L374.522 27.5691C374.682 27.2005 376.337 23.7212 377.256 21.8088C377.784 20.6797 378.175 20.1267 378.175 19.2051Z" fill="white"/>
<rect x="392" width="50" height="50" fill="#609BEE"/>
<path d="M434.175 19.2051C434.175 18.2373 432.957 16.6014 432.957 16.6014C432.474 15.841 430.728 13.3986 430.131 13.03C429.534 12.6843 428.89 12.5 428.178 12.5C427.466 12.5 426.823 12.6843 426.225 13.03C425.628 13.3756 425.214 13.9055 424.939 14.5507L422.021 21.5092C422.021 21.5092 421.768 22.0622 421.4 22.0622C421.033 22.0622 420.803 21.5323 420.803 21.5323L420.114 19.9654L419.677 19.0207L417.656 14.5507C417.357 13.8825 416.92 13.3756 416.346 13.03C415.772 12.6843 415.128 12.5 414.416 12.5C413.704 12.5 413.061 12.6843 412.463 13.03C411.866 13.3756 411.429 13.9055 411.131 14.5507L408.144 20.9562C408.144 20.9562 407.891 21.5092 407.524 21.5092C407.156 21.5092 406.972 21.0945 406.926 20.9793V20.9562L406.26 19.3433C406.007 18.6521 405.617 18.1452 405.088 17.8226C404.583 17.5 404.008 17.3387 403.365 17.3387C402.469 17.3387 401.665 17.6382 400.93 18.2373C400.218 18.8364 399.85 19.5737 399.85 20.4263C399.85 20.8871 399.942 21.3018 400.126 21.6935L406.49 35.4493C406.811 36.1175 407.271 36.6244 407.845 36.97C408.443 37.3157 409.086 37.5 409.798 37.5C410.51 37.5 411.154 37.3157 411.751 36.97C412.348 36.6244 412.762 36.0945 413.038 35.4493L415.932 28.606C415.955 28.5369 416.185 28.053 416.599 28.053C416.92 28.053 417.127 28.3756 417.219 28.5369L417.265 28.629L417.908 30.0346C417.954 30.1498 418.345 30.9793 418.345 30.9793L420.344 35.4263C420.642 36.0945 421.079 36.6014 421.653 36.947C422.228 37.2926 422.871 37.477 423.583 37.477C424.295 37.477 424.939 37.2926 425.536 36.947C426.133 36.6014 426.57 36.0714 426.869 35.4263L430.522 27.5691C430.682 27.2005 432.337 23.7212 433.256 21.8088C433.784 20.6797 434.175 20.1267 434.175 19.2051Z" fill="white"/>
<rect x="448" width="50" height="50" fill="#F7C974"/>
<path d="M490.175 19.2051C490.175 18.2373 488.957 16.6014 488.957 16.6014C488.474 15.841 486.728 13.3986 486.131 13.03C485.534 12.6843 484.89 12.5 484.178 12.5C483.466 12.5 482.823 12.6843 482.225 13.03C481.628 13.3756 481.214 13.9055 480.939 14.5507L478.021 21.5092C478.021 21.5092 477.768 22.0622 477.4 22.0622C477.033 22.0622 476.803 21.5323 476.803 21.5323L476.114 19.9654L475.677 19.0207L473.656 14.5507C473.357 13.8825 472.92 13.3756 472.346 13.03C471.772 12.6843 471.128 12.5 470.416 12.5C469.704 12.5 469.061 12.6843 468.463 13.03C467.866 13.3756 467.429 13.9055 467.131 14.5507L464.144 20.9562C464.144 20.9562 463.891 21.5092 463.524 21.5092C463.156 21.5092 462.972 21.0945 462.926 20.9793V20.9562L462.26 19.3433C462.007 18.6521 461.617 18.1452 461.088 17.8226C460.583 17.5 460.008 17.3387 459.365 17.3387C458.469 17.3387 457.665 17.6382 456.93 18.2373C456.218 18.8364 455.85 19.5737 455.85 20.4263C455.85 20.8871 455.942 21.3018 456.126 21.6935L462.49 35.4493C462.811 36.1175 463.271 36.6244 463.845 36.97C464.443 37.3157 465.086 37.5 465.798 37.5C466.51 37.5 467.154 37.3157 467.751 36.97C468.348 36.6244 468.762 36.0945 469.038 35.4493L471.932 28.606C471.955 28.5369 472.185 28.053 472.599 28.053C472.92 28.053 473.127 28.3756 473.219 28.5369L473.265 28.629L473.908 30.0346C473.954 30.1498 474.345 30.9793 474.345 30.9793L476.344 35.4263C476.642 36.0945 477.079 36.6014 477.653 36.947C478.228 37.2926 478.871 37.477 479.583 37.477C480.295 37.477 480.939 37.2926 481.536 36.947C482.133 36.6014 482.57 36.0714 482.869 35.4263L486.522 27.5691C486.682 27.2005 488.337 23.7212 489.256 21.8088C489.784 20.6797 490.175 20.1267 490.175 19.2051Z" fill="white"/>
<rect x="504" width="50" height="50" fill="#A6C2D0"/>
<path d="M546.175 19.2051C546.175 18.2373 544.957 16.6014 544.957 16.6014C544.474 15.841 542.728 13.3986 542.131 13.03C541.534 12.6843 540.89 12.5 540.178 12.5C539.466 12.5 538.823 12.6843 538.225 13.03C537.628 13.3756 537.214 13.9055 536.939 14.5507L534.021 21.5092C534.021 21.5092 533.768 22.0622 533.4 22.0622C533.033 22.0622 532.803 21.5323 532.803 21.5323L532.114 19.9654L531.677 19.0207L529.656 14.5507C529.357 13.8825 528.92 13.3756 528.346 13.03C527.772 12.6843 527.128 12.5 526.416 12.5C525.704 12.5 525.061 12.6843 524.463 13.03C523.866 13.3756 523.429 13.9055 523.131 14.5507L520.144 20.9562C520.144 20.9562 519.891 21.5092 519.524 21.5092C519.156 21.5092 518.972 21.0945 518.926 20.9793V20.9562L518.26 19.3433C518.007 18.6521 517.617 18.1452 517.088 17.8226C516.583 17.5 516.008 17.3387 515.365 17.3387C514.469 17.3387 513.665 17.6382 512.93 18.2373C512.218 18.8364 511.85 19.5737 511.85 20.4263C511.85 20.8871 511.942 21.3018 512.126 21.6935L518.49 35.4493C518.811 36.1175 519.271 36.6244 519.845 36.97C520.443 37.3157 521.086 37.5 521.798 37.5C522.51 37.5 523.154 37.3157 523.751 36.97C524.348 36.6244 524.762 36.0945 525.038 35.4493L527.932 28.606C527.955 28.5369 528.185 28.053 528.599 28.053C528.92 28.053 529.127 28.3756 529.219 28.5369L529.265 28.629L529.908 30.0346C529.954 30.1498 530.345 30.9793 530.345 30.9793L532.344 35.4263C532.642 36.0945 533.079 36.6014 533.653 36.947C534.228 37.2926 534.871 37.477 535.583 37.477C536.295 37.477 536.939 37.2926 537.536 36.947C538.133 36.6014 538.57 36.0714 538.869 35.4263L542.522 27.5691C542.682 27.2005 544.337 23.7212 545.256 21.8088C545.784 20.6797 546.175 20.1267 546.175 19.2051Z" fill="white"/>
<rect x="560" width="50" height="50" fill="#D6F279"/>
<path d="M602.175 19.2051C602.175 18.2373 600.957 16.6014 600.957 16.6014C600.474 15.841 598.728 13.3986 598.131 13.03C597.534 12.6843 596.89 12.5 596.178 12.5C595.466 12.5 594.823 12.6843 594.225 13.03C593.628 13.3756 593.214 13.9055 592.939 14.5507L590.021 21.5092C590.021 21.5092 589.768 22.0622 589.4 22.0622C589.033 22.0622 588.803 21.5323 588.803 21.5323L588.114 19.9654L587.677 19.0207L585.656 14.5507C585.357 13.8825 584.92 13.3756 584.346 13.03C583.772 12.6843 583.128 12.5 582.416 12.5C581.704 12.5 581.061 12.6843 580.463 13.03C579.866 13.3756 579.429 13.9055 579.131 14.5507L576.144 20.9562C576.144 20.9562 575.891 21.5092 575.524 21.5092C575.156 21.5092 574.972 21.0945 574.926 20.9793V20.9562L574.26 19.3433C574.007 18.6521 573.617 18.1452 573.088 17.8226C572.583 17.5 572.008 17.3387 571.365 17.3387C570.469 17.3387 569.665 17.6382 568.93 18.2373C568.218 18.8364 567.85 19.5737 567.85 20.4263C567.85 20.8871 567.942 21.3018 568.126 21.6935L574.49 35.4493C574.811 36.1175 575.271 36.6244 575.845 36.97C576.443 37.3157 577.086 37.5 577.798 37.5C578.51 37.5 579.154 37.3157 579.751 36.97C580.348 36.6244 580.762 36.0945 581.038 35.4493L583.932 28.606C583.955 28.5369 584.185 28.053 584.599 28.053C584.92 28.053 585.127 28.3756 585.219 28.5369L585.265 28.629L585.908 30.0346C585.954 30.1498 586.345 30.9793 586.345 30.9793L588.344 35.4263C588.642 36.0945 589.079 36.6014 589.653 36.947C590.228 37.2926 590.871 37.477 591.583 37.477C592.295 37.477 592.939 37.2926 593.536 36.947C594.133 36.6014 594.57 36.0714 594.869 35.4263L598.522 27.5691C598.682 27.2005 600.337 23.7212 601.256 21.8088C601.784 20.6797 602.175 20.1267 602.175 19.2051Z" fill="white"/>
<rect x="616" width="50" height="50" fill="#F7D6D9"/>
<path d="M658.175 19.2051C658.175 18.2373 656.957 16.6014 656.957 16.6014C656.474 15.841 654.728 13.3986 654.131 13.03C653.534 12.6843 652.89 12.5 652.178 12.5C651.466 12.5 650.823 12.6843 650.225 13.03C649.628 13.3756 649.214 13.9055 648.939 14.5507L646.021 21.5092C646.021 21.5092 645.768 22.0622 645.4 22.0622C645.033 22.0622 644.803 21.5323 644.803 21.5323L644.114 19.9654L643.677 19.0207L641.656 14.5507C641.357 13.8825 640.92 13.3756 640.346 13.03C639.772 12.6843 639.128 12.5 638.416 12.5C637.704 12.5 637.061 12.6843 636.463 13.03C635.866 13.3756 635.429 13.9055 635.131 14.5507L632.144 20.9562C632.144 20.9562 631.891 21.5092 631.524 21.5092C631.156 21.5092 630.972 21.0945 630.926 20.9793V20.9562L630.26 19.3433C630.007 18.6521 629.617 18.1452 629.088 17.8226C628.583 17.5 628.008 17.3387 627.365 17.3387C626.469 17.3387 625.665 17.6382 624.93 18.2373C624.218 18.8364 623.85 19.5737 623.85 20.4263C623.85 20.8871 623.942 21.3018 624.126 21.6935L630.49 35.4493C630.811 36.1175 631.271 36.6244 631.845 36.97C632.443 37.3157 633.086 37.5 633.798 37.5C634.51 37.5 635.154 37.3157 635.751 36.97C636.348 36.6244 636.762 36.0945 637.038 35.4493L639.932 28.606C639.955 28.5369 640.185 28.053 640.599 28.053C640.92 28.053 641.127 28.3756 641.219 28.5369L641.265 28.629L641.908 30.0346C641.954 30.1498 642.345 30.9793 642.345 30.9793L644.344 35.4263C644.642 36.0945 645.079 36.6014 645.653 36.947C646.228 37.2926 646.871 37.477 647.583 37.477C648.295 37.477 648.939 37.2926 649.536 36.947C650.133 36.6014 650.57 36.0714 650.869 35.4263L654.522 27.5691C654.682 27.2005 656.337 23.7212 657.256 21.8088C657.784 20.6797 658.175 20.1267 658.175 19.2051Z" fill="white"/>
<rect x="672" width="50" height="50" fill="#F5E257"/>
<path d="M714.175 19.2051C714.175 18.2373 712.957 16.6014 712.957 16.6014C712.475 15.841 710.728 13.3986 710.131 13.03C709.534 12.6843 708.89 12.5 708.178 12.5C707.466 12.5 706.823 12.6843 706.225 13.03C705.628 13.3756 705.214 13.9055 704.939 14.5507L702.021 21.5092C702.021 21.5092 701.768 22.0622 701.401 22.0622C701.033 22.0622 700.803 21.5323 700.803 21.5323L700.114 19.9654L699.677 19.0207L697.656 14.5507C697.357 13.8825 696.921 13.3756 696.346 13.03C695.772 12.6843 695.128 12.5 694.416 12.5C693.704 12.5 693.061 12.6843 692.463 13.03C691.866 13.3756 691.429 13.9055 691.131 14.5507L688.144 20.9562C688.144 20.9562 687.891 21.5092 687.524 21.5092C687.156 21.5092 686.972 21.0945 686.926 20.9793V20.9562L686.26 19.3433C686.007 18.6521 685.617 18.1452 685.088 17.8226C684.583 17.5 684.009 17.3387 683.365 17.3387C682.469 17.3387 681.665 17.6382 680.93 18.2373C680.218 18.8364 679.85 19.5737 679.85 20.4263C679.85 20.8871 679.942 21.3018 680.126 21.6935L686.49 35.4493C686.812 36.1175 687.271 36.6244 687.845 36.97C688.443 37.3157 689.086 37.5 689.798 37.5C690.51 37.5 691.154 37.3157 691.751 36.97C692.348 36.6244 692.762 36.0945 693.038 35.4493L695.933 28.606C695.956 28.5369 696.185 28.053 696.599 28.053C696.921 28.053 697.127 28.3756 697.219 28.5369L697.265 28.629L697.908 30.0346C697.954 30.1498 698.345 30.9793 698.345 30.9793L700.344 35.4263C700.642 36.0945 701.079 36.6014 701.653 36.947C702.228 37.2926 702.871 37.477 703.583 37.477C704.295 37.477 704.939 37.2926 705.536 36.947C706.133 36.6014 706.57 36.0714 706.869 35.4263L710.522 27.5691C710.683 27.2005 712.337 23.7212 713.256 21.8088C713.784 20.6797 714.175 20.1267 714.175 19.2051Z" fill="white"/>
<rect x="728" width="50" height="50" fill="#E57B9F"/>
<path d="M770.175 19.2051C770.175 18.2373 768.957 16.6014 768.957 16.6014C768.475 15.841 766.728 13.3986 766.131 13.03C765.534 12.6843 764.89 12.5 764.178 12.5C763.466 12.5 762.823 12.6843 762.225 13.03C761.628 13.3756 761.214 13.9055 760.939 14.5507L758.021 21.5092C758.021 21.5092 757.768 22.0622 757.401 22.0622C757.033 22.0622 756.803 21.5323 756.803 21.5323L756.114 19.9654L755.677 19.0207L753.656 14.5507C753.357 13.8825 752.921 13.3756 752.346 13.03C751.772 12.6843 751.128 12.5 750.416 12.5C749.704 12.5 749.061 12.6843 748.463 13.03C747.866 13.3756 747.429 13.9055 747.131 14.5507L744.144 20.9562C744.144 20.9562 743.891 21.5092 743.524 21.5092C743.156 21.5092 742.972 21.0945 742.926 20.9793V20.9562L742.26 19.3433C742.007 18.6521 741.617 18.1452 741.088 17.8226C740.583 17.5 740.009 17.3387 739.365 17.3387C738.469 17.3387 737.665 17.6382 736.93 18.2373C736.218 18.8364 735.85 19.5737 735.85 20.4263C735.85 20.8871 735.942 21.3018 736.126 21.6935L742.49 35.4493C742.812 36.1175 743.271 36.6244 743.845 36.97C744.443 37.3157 745.086 37.5 745.798 37.5C746.51 37.5 747.154 37.3157 747.751 36.97C748.348 36.6244 748.762 36.0945 749.038 35.4493L751.933 28.606C751.956 28.5369 752.185 28.053 752.599 28.053C752.921 28.053 753.127 28.3756 753.219 28.5369L753.265 28.629L753.908 30.0346C753.954 30.1498 754.345 30.9793 754.345 30.9793L756.344 35.4263C756.642 36.0945 757.079 36.6014 757.653 36.947C758.228 37.2926 758.871 37.477 759.583 37.477C760.295 37.477 760.939 37.2926 761.536 36.947C762.133 36.6014 762.57 36.0714 762.869 35.4263L766.522 27.5691C766.683 27.2005 768.337 23.7212 769.256 21.8088C769.784 20.6797 770.175 20.1267 770.175 19.2051Z" fill="white"/>
<rect x="784" width="50" height="50" fill="#EC5540"/>
<path d="M826.175 19.2051C826.175 18.2373 824.957 16.6014 824.957 16.6014C824.475 15.841 822.728 13.3986 822.131 13.03C821.534 12.6843 820.89 12.5 820.178 12.5C819.466 12.5 818.823 12.6843 818.225 13.03C817.628 13.3756 817.214 13.9055 816.939 14.5507L814.021 21.5092C814.021 21.5092 813.768 22.0622 813.401 22.0622C813.033 22.0622 812.803 21.5323 812.803 21.5323L812.114 19.9654L811.677 19.0207L809.656 14.5507C809.357 13.8825 808.921 13.3756 808.346 13.03C807.772 12.6843 807.128 12.5 806.416 12.5C805.704 12.5 805.061 12.6843 804.463 13.03C803.866 13.3756 803.429 13.9055 803.131 14.5507L800.144 20.9562C800.144 20.9562 799.891 21.5092 799.524 21.5092C799.156 21.5092 798.972 21.0945 798.926 20.9793V20.9562L798.26 19.3433C798.007 18.6521 797.617 18.1452 797.088 17.8226C796.583 17.5 796.009 17.3387 795.365 17.3387C794.469 17.3387 793.665 17.6382 792.93 18.2373C792.218 18.8364 791.85 19.5737 791.85 20.4263C791.85 20.8871 791.942 21.3018 792.126 21.6935L798.49 35.4493C798.812 36.1175 799.271 36.6244 799.845 36.97C800.443 37.3157 801.086 37.5 801.798 37.5C802.51 37.5 803.154 37.3157 803.751 36.97C804.348 36.6244 804.762 36.0945 805.038 35.4493L807.933 28.606C807.956 28.5369 808.185 28.053 808.599 28.053C808.921 28.053 809.127 28.3756 809.219 28.5369L809.265 28.629L809.908 30.0346C809.954 30.1498 810.345 30.9793 810.345 30.9793L812.344 35.4263C812.642 36.0945 813.079 36.6014 813.653 36.947C814.228 37.2926 814.871 37.477 815.583 37.477C816.295 37.477 816.939 37.2926 817.536 36.947C818.133 36.6014 818.57 36.0714 818.869 35.4263L822.522 27.5691C822.683 27.2005 824.337 23.7212 825.256 21.8088C825.784 20.6797 826.175 20.1267 826.175 19.2051Z" fill="white"/>
<rect x="840" width="50" height="50" fill="#609BEE"/>
<path d="M882.175 19.2051C882.175 18.2373 880.957 16.6014 880.957 16.6014C880.475 15.841 878.728 13.3986 878.131 13.03C877.534 12.6843 876.89 12.5 876.178 12.5C875.466 12.5 874.823 12.6843 874.225 13.03C873.628 13.3756 873.214 13.9055 872.939 14.5507L870.021 21.5092C870.021 21.5092 869.768 22.0622 869.401 22.0622C869.033 22.0622 868.803 21.5323 868.803 21.5323L868.114 19.9654L867.677 19.0207L865.656 14.5507C865.357 13.8825 864.921 13.3756 864.346 13.03C863.772 12.6843 863.128 12.5 862.416 12.5C861.704 12.5 861.061 12.6843 860.463 13.03C859.866 13.3756 859.429 13.9055 859.131 14.5507L856.144 20.9562C856.144 20.9562 855.891 21.5092 855.524 21.5092C855.156 21.5092 854.972 21.0945 854.926 20.9793V20.9562L854.26 19.3433C854.007 18.6521 853.617 18.1452 853.088 17.8226C852.583 17.5 852.009 17.3387 851.365 17.3387C850.469 17.3387 849.665 17.6382 848.93 18.2373C848.218 18.8364 847.85 19.5737 847.85 20.4263C847.85 20.8871 847.942 21.3018 848.126 21.6935L854.49 35.4493C854.812 36.1175 855.271 36.6244 855.845 36.97C856.443 37.3157 857.086 37.5 857.798 37.5C858.51 37.5 859.154 37.3157 859.751 36.97C860.348 36.6244 860.762 36.0945 861.038 35.4493L863.933 28.606C863.956 28.5369 864.185 28.053 864.599 28.053C864.921 28.053 865.127 28.3756 865.219 28.5369L865.265 28.629L865.908 30.0346C865.954 30.1498 866.345 30.9793 866.345 30.9793L868.344 35.4263C868.642 36.0945 869.079 36.6014 869.653 36.947C870.228 37.2926 870.871 37.477 871.583 37.477C872.295 37.477 872.939 37.2926 873.536 36.947C874.133 36.6014 874.57 36.0714 874.869 35.4263L878.522 27.5691C878.683 27.2005 880.337 23.7212 881.256 21.8088C881.784 20.6797 882.175 20.1267 882.175 19.2051Z" fill="white"/>
<rect x="896" width="50" height="50" fill="#F7C974"/>
<path d="M938.175 19.2051C938.175 18.2373 936.957 16.6014 936.957 16.6014C936.475 15.841 934.728 13.3986 934.131 13.03C933.534 12.6843 932.89 12.5 932.178 12.5C931.466 12.5 930.823 12.6843 930.225 13.03C929.628 13.3756 929.214 13.9055 928.939 14.5507L926.021 21.5092C926.021 21.5092 925.768 22.0622 925.401 22.0622C925.033 22.0622 924.803 21.5323 924.803 21.5323L924.114 19.9654L923.677 19.0207L921.656 14.5507C921.357 13.8825 920.921 13.3756 920.346 13.03C919.772 12.6843 919.128 12.5 918.416 12.5C917.704 12.5 917.061 12.6843 916.463 13.03C915.866 13.3756 915.429 13.9055 915.131 14.5507L912.144 20.9562C912.144 20.9562 911.891 21.5092 911.524 21.5092C911.156 21.5092 910.972 21.0945 910.926 20.9793V20.9562L910.26 19.3433C910.007 18.6521 909.617 18.1452 909.088 17.8226C908.583 17.5 908.009 17.3387 907.365 17.3387C906.469 17.3387 905.665 17.6382 904.93 18.2373C904.218 18.8364 903.85 19.5737 903.85 20.4263C903.85 20.8871 903.942 21.3018 904.126 21.6935L910.49 35.4493C910.812 36.1175 911.271 36.6244 911.845 36.97C912.443 37.3157 913.086 37.5 913.798 37.5C914.51 37.5 915.154 37.3157 915.751 36.97C916.348 36.6244 916.762 36.0945 917.038 35.4493L919.933 28.606C919.956 28.5369 920.185 28.053 920.599 28.053C920.921 28.053 921.127 28.3756 921.219 28.5369L921.265 28.629L921.908 30.0346C921.954 30.1498 922.345 30.9793 922.345 30.9793L924.344 35.4263C924.642 36.0945 925.079 36.6014 925.653 36.947C926.228 37.2926 926.871 37.477 927.583 37.477C928.295 37.477 928.939 37.2926 929.536 36.947C930.133 36.6014 930.57 36.0714 930.869 35.4263L934.522 27.5691C934.683 27.2005 936.337 23.7212 937.256 21.8088C937.784 20.6797 938.175 20.1267 938.175 19.2051Z" fill="white"/>
<rect x="952" width="50" height="50" fill="#A6C2D0"/>
<path d="M994.175 19.2051C994.175 18.2373 992.957 16.6014 992.957 16.6014C992.475 15.841 990.728 13.3986 990.131 13.03C989.534 12.6843 988.89 12.5 988.178 12.5C987.466 12.5 986.823 12.6843 986.225 13.03C985.628 13.3756 985.214 13.9055 984.939 14.5507L982.021 21.5092C982.021 21.5092 981.768 22.0622 981.401 22.0622C981.033 22.0622 980.803 21.5323 980.803 21.5323L980.114 19.9654L979.677 19.0207L977.656 14.5507C977.357 13.8825 976.921 13.3756 976.346 13.03C975.772 12.6843 975.128 12.5 974.416 12.5C973.704 12.5 973.061 12.6843 972.463 13.03C971.866 13.3756 971.429 13.9055 971.131 14.5507L968.144 20.9562C968.144 20.9562 967.891 21.5092 967.524 21.5092C967.156 21.5092 966.972 21.0945 966.926 20.9793V20.9562L966.26 19.3433C966.007 18.6521 965.617 18.1452 965.088 17.8226C964.583 17.5 964.009 17.3387 963.365 17.3387C962.469 17.3387 961.665 17.6382 960.93 18.2373C960.218 18.8364 959.85 19.5737 959.85 20.4263C959.85 20.8871 959.942 21.3018 960.126 21.6935L966.49 35.4493C966.812 36.1175 967.271 36.6244 967.845 36.97C968.443 37.3157 969.086 37.5 969.798 37.5C970.51 37.5 971.154 37.3157 971.751 36.97C972.348 36.6244 972.762 36.0945 973.038 35.4493L975.933 28.606C975.956 28.5369 976.185 28.053 976.599 28.053C976.921 28.053 977.127 28.3756 977.219 28.5369L977.265 28.629L977.908 30.0346C977.954 30.1498 978.345 30.9793 978.345 30.9793L980.344 35.4263C980.642 36.0945 981.079 36.6014 981.653 36.947C982.228 37.2926 982.871 37.477 983.583 37.477C984.295 37.477 984.939 37.2926 985.536 36.947C986.133 36.6014 986.57 36.0714 986.869 35.4263L990.522 27.5691C990.683 27.2005 992.337 23.7212 993.256 21.8088C993.784 20.6797 994.175 20.1267 994.175 19.2051Z" fill="white"/>
<rect x="1008" width="50" height="50" fill="#D6F279"/>
<path d="M1050.17 19.2051C1050.17 18.2373 1048.96 16.6014 1048.96 16.6014C1048.47 15.841 1046.73 13.3986 1046.13 13.03C1045.53 12.6843 1044.89 12.5 1044.18 12.5C1043.47 12.5 1042.82 12.6843 1042.23 13.03C1041.63 13.3756 1041.21 13.9055 1040.94 14.5507L1038.02 21.5092C1038.02 21.5092 1037.77 22.0622 1037.4 22.0622C1037.03 22.0622 1036.8 21.5323 1036.8 21.5323L1036.11 19.9654L1035.68 19.0207L1033.66 14.5507C1033.36 13.8825 1032.92 13.3756 1032.35 13.03C1031.77 12.6843 1031.13 12.5 1030.42 12.5C1029.7 12.5 1029.06 12.6843 1028.46 13.03C1027.87 13.3756 1027.43 13.9055 1027.13 14.5507L1024.14 20.9562C1024.14 20.9562 1023.89 21.5092 1023.52 21.5092C1023.16 21.5092 1022.97 21.0945 1022.93 20.9793V20.9562L1022.26 19.3433C1022.01 18.6521 1021.62 18.1452 1021.09 17.8226C1020.58 17.5 1020.01 17.3387 1019.37 17.3387C1018.47 17.3387 1017.67 17.6382 1016.93 18.2373C1016.22 18.8364 1015.85 19.5737 1015.85 20.4263C1015.85 20.8871 1015.94 21.3018 1016.13 21.6935L1022.49 35.4493C1022.81 36.1175 1023.27 36.6244 1023.85 36.97C1024.44 37.3157 1025.09 37.5 1025.8 37.5C1026.51 37.5 1027.15 37.3157 1027.75 36.97C1028.35 36.6244 1028.76 36.0945 1029.04 35.4493L1031.93 28.606C1031.96 28.5369 1032.19 28.053 1032.6 28.053C1032.92 28.053 1033.13 28.3756 1033.22 28.5369L1033.27 28.629L1033.91 30.0346C1033.95 30.1498 1034.34 30.9793 1034.34 30.9793L1036.34 35.4263C1036.64 36.0945 1037.08 36.6014 1037.65 36.947C1038.23 37.2926 1038.87 37.477 1039.58 37.477C1040.3 37.477 1040.94 37.2926 1041.54 36.947C1042.13 36.6014 1042.57 36.0714 1042.87 35.4263L1046.52 27.5691C1046.68 27.2005 1048.34 23.7212 1049.26 21.8088C1049.78 20.6797 1050.17 20.1267 1050.17 19.2051Z" fill="white"/>
<rect x="1064" width="50" height="50" fill="#F7D6D9"/>
<path d="M1106.17 19.2051C1106.17 18.2373 1104.96 16.6014 1104.96 16.6014C1104.47 15.841 1102.73 13.3986 1102.13 13.03C1101.53 12.6843 1100.89 12.5 1100.18 12.5C1099.47 12.5 1098.82 12.6843 1098.23 13.03C1097.63 13.3756 1097.21 13.9055 1096.94 14.5507L1094.02 21.5092C1094.02 21.5092 1093.77 22.0622 1093.4 22.0622C1093.03 22.0622 1092.8 21.5323 1092.8 21.5323L1092.11 19.9654L1091.68 19.0207L1089.66 14.5507C1089.36 13.8825 1088.92 13.3756 1088.35 13.03C1087.77 12.6843 1087.13 12.5 1086.42 12.5C1085.7 12.5 1085.06 12.6843 1084.46 13.03C1083.87 13.3756 1083.43 13.9055 1083.13 14.5507L1080.14 20.9562C1080.14 20.9562 1079.89 21.5092 1079.52 21.5092C1079.16 21.5092 1078.97 21.0945 1078.93 20.9793V20.9562L1078.26 19.3433C1078.01 18.6521 1077.62 18.1452 1077.09 17.8226C1076.58 17.5 1076.01 17.3387 1075.37 17.3387C1074.47 17.3387 1073.67 17.6382 1072.93 18.2373C1072.22 18.8364 1071.85 19.5737 1071.85 20.4263C1071.85 20.8871 1071.94 21.3018 1072.13 21.6935L1078.49 35.4493C1078.81 36.1175 1079.27 36.6244 1079.85 36.97C1080.44 37.3157 1081.09 37.5 1081.8 37.5C1082.51 37.5 1083.15 37.3157 1083.75 36.97C1084.35 36.6244 1084.76 36.0945 1085.04 35.4493L1087.93 28.606C1087.96 28.5369 1088.19 28.053 1088.6 28.053C1088.92 28.053 1089.13 28.3756 1089.22 28.5369L1089.27 28.629L1089.91 30.0346C1089.95 30.1498 1090.34 30.9793 1090.34 30.9793L1092.34 35.4263C1092.64 36.0945 1093.08 36.6014 1093.65 36.947C1094.23 37.2926 1094.87 37.477 1095.58 37.477C1096.3 37.477 1096.94 37.2926 1097.54 36.947C1098.13 36.6014 1098.57 36.0714 1098.87 35.4263L1102.52 27.5691C1102.68 27.2005 1104.34 23.7212 1105.26 21.8088C1105.78 20.6797 1106.17 20.1267 1106.17 19.2051Z" fill="white"/>
<rect x="1120" width="50" height="50" fill="#F5E257"/>
<path d="M1162.17 19.2051C1162.17 18.2373 1160.96 16.6014 1160.96 16.6014C1160.47 15.841 1158.73 13.3986 1158.13 13.03C1157.53 12.6843 1156.89 12.5 1156.18 12.5C1155.47 12.5 1154.82 12.6843 1154.23 13.03C1153.63 13.3756 1153.21 13.9055 1152.94 14.5507L1150.02 21.5092C1150.02 21.5092 1149.77 22.0622 1149.4 22.0622C1149.03 22.0622 1148.8 21.5323 1148.8 21.5323L1148.11 19.9654L1147.68 19.0207L1145.66 14.5507C1145.36 13.8825 1144.92 13.3756 1144.35 13.03C1143.77 12.6843 1143.13 12.5 1142.42 12.5C1141.7 12.5 1141.06 12.6843 1140.46 13.03C1139.87 13.3756 1139.43 13.9055 1139.13 14.5507L1136.14 20.9562C1136.14 20.9562 1135.89 21.5092 1135.52 21.5092C1135.16 21.5092 1134.97 21.0945 1134.93 20.9793V20.9562L1134.26 19.3433C1134.01 18.6521 1133.62 18.1452 1133.09 17.8226C1132.58 17.5 1132.01 17.3387 1131.37 17.3387C1130.47 17.3387 1129.67 17.6382 1128.93 18.2373C1128.22 18.8364 1127.85 19.5737 1127.85 20.4263C1127.85 20.8871 1127.94 21.3018 1128.13 21.6935L1134.49 35.4493C1134.81 36.1175 1135.27 36.6244 1135.85 36.97C1136.44 37.3157 1137.09 37.5 1137.8 37.5C1138.51 37.5 1139.15 37.3157 1139.75 36.97C1140.35 36.6244 1140.76 36.0945 1141.04 35.4493L1143.93 28.606C1143.96 28.5369 1144.19 28.053 1144.6 28.053C1144.92 28.053 1145.13 28.3756 1145.22 28.5369L1145.27 28.629L1145.91 30.0346C1145.95 30.1498 1146.34 30.9793 1146.34 30.9793L1148.34 35.4263C1148.64 36.0945 1149.08 36.6014 1149.65 36.947C1150.23 37.2926 1150.87 37.477 1151.58 37.477C1152.3 37.477 1152.94 37.2926 1153.54 36.947C1154.13 36.6014 1154.57 36.0714 1154.87 35.4263L1158.52 27.5691C1158.68 27.2005 1160.34 23.7212 1161.26 21.8088C1161.78 20.6797 1162.17 20.1267 1162.17 19.2051Z" fill="white"/>
<rect x="1176" width="50" height="50" fill="#E57B9F"/>
<path d="M1218.17 19.2051C1218.17 18.2373 1216.96 16.6014 1216.96 16.6014C1216.47 15.841 1214.73 13.3986 1214.13 13.03C1213.53 12.6843 1212.89 12.5 1212.18 12.5C1211.47 12.5 1210.82 12.6843 1210.23 13.03C1209.63 13.3756 1209.21 13.9055 1208.94 14.5507L1206.02 21.5092C1206.02 21.5092 1205.77 22.0622 1205.4 22.0622C1205.03 22.0622 1204.8 21.5323 1204.8 21.5323L1204.11 19.9654L1203.68 19.0207L1201.66 14.5507C1201.36 13.8825 1200.92 13.3756 1200.35 13.03C1199.77 12.6843 1199.13 12.5 1198.42 12.5C1197.7 12.5 1197.06 12.6843 1196.46 13.03C1195.87 13.3756 1195.43 13.9055 1195.13 14.5507L1192.14 20.9562C1192.14 20.9562 1191.89 21.5092 1191.52 21.5092C1191.16 21.5092 1190.97 21.0945 1190.93 20.9793V20.9562L1190.26 19.3433C1190.01 18.6521 1189.62 18.1452 1189.09 17.8226C1188.58 17.5 1188.01 17.3387 1187.37 17.3387C1186.47 17.3387 1185.67 17.6382 1184.93 18.2373C1184.22 18.8364 1183.85 19.5737 1183.85 20.4263C1183.85 20.8871 1183.94 21.3018 1184.13 21.6935L1190.49 35.4493C1190.81 36.1175 1191.27 36.6244 1191.85 36.97C1192.44 37.3157 1193.09 37.5 1193.8 37.5C1194.51 37.5 1195.15 37.3157 1195.75 36.97C1196.35 36.6244 1196.76 36.0945 1197.04 35.4493L1199.93 28.606C1199.96 28.5369 1200.19 28.053 1200.6 28.053C1200.92 28.053 1201.13 28.3756 1201.22 28.5369L1201.27 28.629L1201.91 30.0346C1201.95 30.1498 1202.34 30.9793 1202.34 30.9793L1204.34 35.4263C1204.64 36.0945 1205.08 36.6014 1205.65 36.947C1206.23 37.2926 1206.87 37.477 1207.58 37.477C1208.3 37.477 1208.94 37.2926 1209.54 36.947C1210.13 36.6014 1210.57 36.0714 1210.87 35.4263L1214.52 27.5691C1214.68 27.2005 1216.34 23.7212 1217.26 21.8088C1217.78 20.6797 1218.17 20.1267 1218.17 19.2051Z" fill="white"/>
<rect x="1232" width="50" height="50" fill="#EC5540"/>
<path d="M1274.17 19.2051C1274.17 18.2373 1272.96 16.6014 1272.96 16.6014C1272.47 15.841 1270.73 13.3986 1270.13 13.03C1269.53 12.6843 1268.89 12.5 1268.18 12.5C1267.47 12.5 1266.82 12.6843 1266.23 13.03C1265.63 13.3756 1265.21 13.9055 1264.94 14.5507L1262.02 21.5092C1262.02 21.5092 1261.77 22.0622 1261.4 22.0622C1261.03 22.0622 1260.8 21.5323 1260.8 21.5323L1260.11 19.9654L1259.68 19.0207L1257.66 14.5507C1257.36 13.8825 1256.92 13.3756 1256.35 13.03C1255.77 12.6843 1255.13 12.5 1254.42 12.5C1253.7 12.5 1253.06 12.6843 1252.46 13.03C1251.87 13.3756 1251.43 13.9055 1251.13 14.5507L1248.14 20.9562C1248.14 20.9562 1247.89 21.5092 1247.52 21.5092C1247.16 21.5092 1246.97 21.0945 1246.93 20.9793V20.9562L1246.26 19.3433C1246.01 18.6521 1245.62 18.1452 1245.09 17.8226C1244.58 17.5 1244.01 17.3387 1243.37 17.3387C1242.47 17.3387 1241.67 17.6382 1240.93 18.2373C1240.22 18.8364 1239.85 19.5737 1239.85 20.4263C1239.85 20.8871 1239.94 21.3018 1240.13 21.6935L1246.49 35.4493C1246.81 36.1175 1247.27 36.6244 1247.85 36.97C1248.44 37.3157 1249.09 37.5 1249.8 37.5C1250.51 37.5 1251.15 37.3157 1251.75 36.97C1252.35 36.6244 1252.76 36.0945 1253.04 35.4493L1255.93 28.606C1255.96 28.5369 1256.19 28.053 1256.6 28.053C1256.92 28.053 1257.13 28.3756 1257.22 28.5369L1257.27 28.629L1257.91 30.0346C1257.95 30.1498 1258.34 30.9793 1258.34 30.9793L1260.34 35.4263C1260.64 36.0945 1261.08 36.6014 1261.65 36.947C1262.23 37.2926 1262.87 37.477 1263.58 37.477C1264.3 37.477 1264.94 37.2926 1265.54 36.947C1266.13 36.6014 1266.57 36.0714 1266.87 35.4263L1270.52 27.5691C1270.68 27.2005 1272.34 23.7212 1273.26 21.8088C1273.78 20.6797 1274.17 20.1267 1274.17 19.2051Z" fill="white"/>
<rect x="1288" width="50" height="50" fill="#609BEE"/>
<path d="M1330.17 19.2051C1330.17 18.2373 1328.96 16.6014 1328.96 16.6014C1328.47 15.841 1326.73 13.3986 1326.13 13.03C1325.53 12.6843 1324.89 12.5 1324.18 12.5C1323.47 12.5 1322.82 12.6843 1322.23 13.03C1321.63 13.3756 1321.21 13.9055 1320.94 14.5507L1318.02 21.5092C1318.02 21.5092 1317.77 22.0622 1317.4 22.0622C1317.03 22.0622 1316.8 21.5323 1316.8 21.5323L1316.11 19.9654L1315.68 19.0207L1313.66 14.5507C1313.36 13.8825 1312.92 13.3756 1312.35 13.03C1311.77 12.6843 1311.13 12.5 1310.42 12.5C1309.7 12.5 1309.06 12.6843 1308.46 13.03C1307.87 13.3756 1307.43 13.9055 1307.13 14.5507L1304.14 20.9562C1304.14 20.9562 1303.89 21.5092 1303.52 21.5092C1303.16 21.5092 1302.97 21.0945 1302.93 20.9793V20.9562L1302.26 19.3433C1302.01 18.6521 1301.62 18.1452 1301.09 17.8226C1300.58 17.5 1300.01 17.3387 1299.37 17.3387C1298.47 17.3387 1297.67 17.6382 1296.93 18.2373C1296.22 18.8364 1295.85 19.5737 1295.85 20.4263C1295.85 20.8871 1295.94 21.3018 1296.13 21.6935L1302.49 35.4493C1302.81 36.1175 1303.27 36.6244 1303.85 36.97C1304.44 37.3157 1305.09 37.5 1305.8 37.5C1306.51 37.5 1307.15 37.3157 1307.75 36.97C1308.35 36.6244 1308.76 36.0945 1309.04 35.4493L1311.93 28.606C1311.96 28.5369 1312.19 28.053 1312.6 28.053C1312.92 28.053 1313.13 28.3756 1313.22 28.5369L1313.27 28.629L1313.91 30.0346C1313.95 30.1498 1314.34 30.9793 1314.34 30.9793L1316.34 35.4263C1316.64 36.0945 1317.08 36.6014 1317.65 36.947C1318.23 37.2926 1318.87 37.477 1319.58 37.477C1320.3 37.477 1320.94 37.2926 1321.54 36.947C1322.13 36.6014 1322.57 36.0714 1322.87 35.4263L1326.52 27.5691C1326.68 27.2005 1328.34 23.7212 1329.26 21.8088C1329.78 20.6797 1330.17 20.1267 1330.17 19.2051Z" fill="white"/>
<rect x="1344" width="50" height="50" fill="#F7C974"/>
<path d="M1386.17 19.2051C1386.17 18.2373 1384.96 16.6014 1384.96 16.6014C1384.47 15.841 1382.73 13.3986 1382.13 13.03C1381.53 12.6843 1380.89 12.5 1380.18 12.5C1379.47 12.5 1378.82 12.6843 1378.23 13.03C1377.63 13.3756 1377.21 13.9055 1376.94 14.5507L1374.02 21.5092C1374.02 21.5092 1373.77 22.0622 1373.4 22.0622C1373.03 22.0622 1372.8 21.5323 1372.8 21.5323L1372.11 19.9654L1371.68 19.0207L1369.66 14.5507C1369.36 13.8825 1368.92 13.3756 1368.35 13.03C1367.77 12.6843 1367.13 12.5 1366.42 12.5C1365.7 12.5 1365.06 12.6843 1364.46 13.03C1363.87 13.3756 1363.43 13.9055 1363.13 14.5507L1360.14 20.9562C1360.14 20.9562 1359.89 21.5092 1359.52 21.5092C1359.16 21.5092 1358.97 21.0945 1358.93 20.9793V20.9562L1358.26 19.3433C1358.01 18.6521 1357.62 18.1452 1357.09 17.8226C1356.58 17.5 1356.01 17.3387 1355.37 17.3387C1354.47 17.3387 1353.67 17.6382 1352.93 18.2373C1352.22 18.8364 1351.85 19.5737 1351.85 20.4263C1351.85 20.8871 1351.94 21.3018 1352.13 21.6935L1358.49 35.4493C1358.81 36.1175 1359.27 36.6244 1359.85 36.97C1360.44 37.3157 1361.09 37.5 1361.8 37.5C1362.51 37.5 1363.15 37.3157 1363.75 36.97C1364.35 36.6244 1364.76 36.0945 1365.04 35.4493L1367.93 28.606C1367.96 28.5369 1368.19 28.053 1368.6 28.053C1368.92 28.053 1369.13 28.3756 1369.22 28.5369L1369.27 28.629L1369.91 30.0346C1369.95 30.1498 1370.34 30.9793 1370.34 30.9793L1372.34 35.4263C1372.64 36.0945 1373.08 36.6014 1373.65 36.947C1374.23 37.2926 1374.87 37.477 1375.58 37.477C1376.3 37.477 1376.94 37.2926 1377.54 36.947C1378.13 36.6014 1378.57 36.0714 1378.87 35.4263L1382.52 27.5691C1382.68 27.2005 1384.34 23.7212 1385.26 21.8088C1385.78 20.6797 1386.17 20.1267 1386.17 19.2051Z" fill="white"/>
</svg>
