<svg width="33" height="24" viewBox="0 0 33 24" fill="none" xmlns="http://www.w3.org/2000/svg">
<path d="M32.9761 6.43687C32.9761 5.50783 31.8062 3.93733 31.8062 3.93733C31.3427 3.20737 29.6652 0.862673 29.0913 0.508756C28.5175 0.176959 27.8994 0 27.2152 0C26.5309 0 25.9129 0.176959 25.339 0.508756C24.7652 0.840553 24.3679 1.34931 24.103 1.96866L21.2998 8.64885C21.2998 8.64885 21.057 9.17972 20.7038 9.17972C20.3507 9.17972 20.13 8.67097 20.13 8.67097L19.4678 7.16682L19.0484 6.25991L17.1061 1.96866C16.8191 1.32719 16.3997 0.840553 15.8479 0.508756C15.2961 0.176959 14.6781 0 13.9939 0C13.3096 0 12.6916 0.176959 12.1177 0.508756C11.5438 0.840553 11.1245 1.34931 10.8375 1.96866L7.96811 8.11797C7.96811 8.11797 7.72532 8.64885 7.37216 8.64885C7.019 8.64885 6.84242 8.25069 6.79828 8.14009V8.11797L6.15818 6.56959C5.91538 5.90599 5.54015 5.41935 5.03249 5.10968C4.5469 4.8 3.99509 4.64516 3.37707 4.64516C2.51625 4.64516 1.74371 4.93272 1.0374 5.50783C0.353157 6.08295 0 6.79078 0 7.60922C0 8.05161 0.0882893 8.44977 0.264868 8.82581L6.3789 22.0313C6.68792 22.6728 7.12936 23.1594 7.68117 23.4912C8.25505 23.823 8.87308 24 9.55732 24C10.2416 24 10.8596 23.823 11.4335 23.4912C12.0073 23.1594 12.4046 22.6507 12.6695 22.0313L15.4506 15.4618C15.4727 15.3954 15.6934 14.9309 16.0907 14.9309C16.3997 14.9309 16.5984 15.2406 16.6867 15.3954L16.7308 15.4839L17.3489 16.8332C17.393 16.9438 17.7682 17.7401 17.7682 17.7401L19.6885 22.0092C19.9755 22.6507 20.3948 23.1373 20.9466 23.4691C21.4984 23.8009 22.1165 23.9779 22.8007 23.9779C23.485 23.9779 24.103 23.8009 24.6769 23.4691C25.2507 23.1373 25.6701 22.6286 25.9571 22.0092L29.4666 14.4664C29.6211 14.1124 31.2103 10.7724 32.0932 8.93641C32.6008 7.85253 32.9761 7.32166 32.9761 6.43687Z" fill="#161313"/>
</svg>
