<svg width="165" height="24" viewBox="0 0 165 24" fill="none" xmlns="http://www.w3.org/2000/svg">
<path d="M111.037 0.0446921C112.198 0.0446921 113.047 0.134077 113.628 0.312848C114.209 0.491619 114.611 0.804469 114.835 1.2514C115.058 1.69832 115.192 2.10056 115.237 2.4581C115.282 2.81564 115.326 3.35195 115.326 4.02235V19.9776C115.326 20.6927 115.282 21.1844 115.237 21.5419C115.192 21.8994 115.058 22.3017 114.835 22.7486C114.433 23.5531 113.405 23.9553 111.752 23.9553C110.143 23.9553 107.82 22.7933 107.149 22.7933C105.764 22.7933 104.558 23.9553 102.011 23.9553C99.4192 23.9553 97.0064 22.7486 94.8169 20.3352C92.5828 17.9218 91.5104 15.1508 91.5104 11.9776C91.5104 8.80447 92.6274 6.03352 94.8616 3.62011C97.0957 1.2514 99.5086 0 102.19 0C103.217 0 104.156 0.223463 104.96 0.581005C105.809 0.938547 106.703 0.983239 107.194 0.983239C108.937 1.02793 108.847 0.0446921 111.037 0.0446921ZM99.3299 12.067C99.3299 13.0503 99.732 13.9888 100.492 14.7933C101.251 15.5978 102.19 16 103.307 16C104.424 16 105.317 15.5978 106.077 14.7486C106.792 13.9441 107.194 13.0056 107.194 12.0223C107.194 11.0391 106.837 10.1006 106.122 9.25139C105.407 8.40223 104.468 7.9553 103.307 7.9553C102.145 7.9553 101.162 8.40223 100.447 9.25139C99.6873 10.1452 99.3299 11.0838 99.3299 12.067Z" fill="#161313"/>
<path d="M160.635 0.0446921C161.796 0.0446921 162.645 0.134077 163.226 0.312848C163.807 0.491619 164.209 0.804469 164.433 1.2514C164.656 1.69832 164.79 2.10056 164.835 2.4581C164.879 2.81564 164.924 3.35195 164.924 4.02235V19.9776C164.924 20.6927 164.879 21.1844 164.835 21.5419C164.79 21.8994 164.656 22.3017 164.433 22.7486C164.031 23.5531 163.003 23.9553 161.35 23.9553C159.741 23.9553 157.417 22.7933 156.747 22.7933C155.362 22.7933 154.156 23.9553 151.609 23.9553C149.017 23.9553 146.604 22.7486 144.415 20.3352C142.181 17.9218 141.108 15.1508 141.108 11.9776C141.108 8.80447 142.225 6.03352 144.459 3.62011C146.694 1.2514 149.106 0 151.787 0C152.815 0 153.753 0.223463 154.558 0.581005C155.407 0.938547 156.3 0.983239 156.792 0.983239C158.49 1.02793 158.445 0.0446921 160.635 0.0446921ZM148.928 12.067C148.928 13.0503 149.33 13.9888 150.089 14.7933C150.849 15.5978 151.787 16 152.904 16C154.022 16 154.915 15.5978 155.675 14.7486C156.39 13.9441 156.792 13.0056 156.792 12.0223C156.792 11.0391 156.434 10.1006 155.72 9.25139C155.005 8.40223 154.066 7.9553 152.904 7.9553C151.743 7.9553 150.76 8.40223 150.045 9.25139C149.285 10.1452 148.928 11.0838 148.928 12.067Z" fill="#161313"/>
<path d="M137.981 2.50281C139.321 4.15644 139.991 6.65923 139.991 10.0112V20.1564C139.991 21.3631 139.634 22.3017 138.874 22.9721C138.115 23.6425 137.132 24 135.836 24C134.54 24 133.557 23.6425 132.797 22.9721C132.038 22.3017 131.68 21.3631 131.68 20.1564V10.3687C131.68 8.98325 131.457 8.00002 130.965 7.37432C130.474 6.74862 129.759 6.43577 128.776 6.43577C127.525 6.43577 126.542 6.838 125.827 7.64247C125.112 8.44694 124.71 9.51957 124.71 10.8603V20.1564C124.71 21.3631 124.352 22.3017 123.593 22.9721C122.833 23.6425 121.85 24 120.554 24C119.258 24 118.275 23.6425 117.516 22.9721C116.756 22.3017 116.399 21.3631 116.399 20.1564V3.88828C116.399 2.77096 116.801 1.87711 117.56 1.20672C118.32 0.491635 119.348 0.0447083 120.599 0.0447083C121.761 0.0447083 122.744 0.446944 123.414 1.11733C124.129 1.78773 124.978 1.65365 125.201 1.65365C125.425 1.65365 126.318 1.51957 127.614 0.983255C129.357 0.268171 130.295 0.0447083 131.859 0.0447083C134.585 0.0447083 136.64 0.849177 137.981 2.50281Z" fill="#161313"/>
<path d="M56.7025 1.16203C57.4621 1.83242 57.8196 2.77096 57.8196 3.97767V20.1564C57.8196 21.2291 57.4174 22.1229 56.6578 22.838C55.8982 23.5531 54.8705 24 53.6194 24C52.5023 24 51.564 23.5978 50.8491 23.0168C50.1341 22.3911 49.866 22.3464 49.4639 22.3464C49.0617 22.3464 48.1234 22.5252 47.0063 23.1062C45.8893 23.6872 44.6381 24 43.2083 24C40.2592 24 38.0698 23.1955 36.6399 21.5419C35.2101 19.8883 34.4951 17.4302 34.4951 14.0782V3.97767C34.4951 2.81566 34.8526 1.87711 35.6122 1.16203C36.3718 0.491636 37.3548 0.0447083 38.6506 0.0447083C39.9464 0.0447083 40.9295 0.491636 41.6891 1.16203C42.4487 1.83242 42.8062 2.77096 42.8062 3.97767V14.257C42.8062 16.4916 43.7892 17.609 45.7105 17.609C46.8276 17.609 47.7659 17.2067 48.4809 16.4022C49.1958 15.5978 49.5532 14.5252 49.5532 13.2291V3.97767C49.5532 2.81566 49.9107 1.87711 50.6703 1.16203C51.4299 0.491636 52.413 0.0447083 53.7088 0.0447083C54.9599 0.0447083 55.9429 0.491636 56.7025 1.16203Z" fill="#161313"/>
<path d="M33.0653 5.31844C33.244 4.87151 33.3781 4.37989 33.3781 3.84357C33.3781 1.74302 31.6801 0.0446921 29.58 0.0446921C28.0608 0.0446921 26.7203 0.938547 26.1394 2.23464C26.1394 2.23464 26.1394 2.27933 26.0948 2.27933C26.0501 2.36871 26.0054 2.4581 26.0054 2.50279C25.5586 3.62011 24.2628 7.19553 24.1734 7.3743C23.9947 7.91061 23.6819 9.07262 23.0563 9.07262C22.6095 9.07262 22.4755 8.89385 21.9839 7.50838C21.5818 6.34637 21.135 5.09497 20.4647 3.21788L20.1073 2.4581C19.8838 1.96648 19.437 1.51955 18.8115 1.02793C18.1859 0.536312 17.4263 0.312848 16.5326 0.312848C15.639 0.312848 14.79 0.759776 13.8964 1.60894C13.4048 2.05587 13.0921 2.59218 12.9133 3.17318L11.3494 7.50838C11.3494 7.50838 10.8132 9.07262 10.3217 9.07262C9.78553 9.07262 9.56212 8.35754 9.24934 7.50838C8.22164 4.69273 7.73013 3.26257 7.32798 2.36871C6.74711 0.98324 5.40662 0 3.79804 0C1.69795 0 0 1.69832 0 3.79888C0 4.2905 0.0893683 4.78212 0.268099 5.18436L6.88115 21.5419C7.10457 22.0782 7.50671 22.6145 8.13227 23.1061C8.75783 23.6425 9.51744 23.8659 10.4558 23.8659C11.3941 23.8659 12.1984 23.5084 12.9133 22.7933C13.1814 22.5251 13.4048 22.2123 13.6283 21.8547C13.8517 21.4972 13.941 21.2737 13.9857 21.1397C14.0304 21.0056 14.1198 20.7374 14.2985 20.3352C14.4772 19.933 14.8347 18.9497 15.4156 17.2961C15.5496 16.8492 15.7283 16.4469 15.8624 16.0894C15.9071 15.9553 16.2199 15.2402 16.756 15.2402C17.2029 15.2402 17.471 15.7765 17.5603 16C18.588 18.6816 19.1689 20.2458 19.3477 20.7374L19.6604 21.4972C19.9285 22.0335 20.3307 22.5698 20.9562 23.0614C21.5818 23.5978 22.252 23.8212 22.9223 23.8212C23.5925 23.8212 24.1734 23.7318 24.6202 23.5084C25.6479 22.9721 26.3629 22.0335 26.8544 20.7374L31.7248 8.84916C31.9482 8.17877 32.6184 6.43575 33.0653 5.31844Z" fill="#161313"/>
<path d="M92.0465 5.31844C92.2253 4.87151 92.3593 4.37989 92.3593 3.84357C92.3593 1.74302 90.6614 0.0446921 88.5613 0.0446921C87.0421 0.0446921 85.7016 0.938547 85.1207 2.23464C85.1207 2.23464 85.1207 2.27933 85.076 2.27933C85.0313 2.36871 84.9867 2.4581 84.9867 2.50279C84.5398 3.62011 83.244 7.19553 83.1547 7.3743C82.9759 7.91061 82.6632 9.07262 82.0376 9.07262C81.5908 9.07262 81.4567 8.89385 80.9652 7.50838C80.5631 6.34637 80.1162 5.09497 79.446 3.21788L79.0885 2.4581C78.8651 1.96648 78.4183 1.51955 77.7927 1.02793C77.1672 0.536312 76.4076 0.312848 75.5139 0.312848C74.6202 0.312848 73.7713 0.759776 72.8776 1.60894C72.3861 2.05587 72.0733 2.59218 71.8946 3.17318L70.3307 7.50838C70.3307 7.50838 69.7945 9.07262 69.303 9.07262C68.7668 9.07262 68.5434 8.35754 68.2306 7.50838C67.2029 4.69273 66.7114 3.26257 66.3092 2.36871C65.7284 0.98324 64.3879 0 62.7793 0C60.6792 0 58.9813 1.69832 58.9813 3.79888C58.9813 4.2905 59.0706 4.78212 59.2494 5.18436L65.8624 21.5419C66.0858 22.0782 66.488 22.6145 67.1135 23.1061C67.7391 23.6425 68.4987 23.8659 69.437 23.8659C70.3754 23.8659 71.1797 23.5084 71.8946 22.7933C72.1627 22.5251 72.3861 22.2123 72.6095 21.8547C72.8329 21.4972 72.9223 21.2737 72.967 21.1397C73.0117 21.0056 73.101 20.7374 73.2798 20.3352C73.4585 19.933 73.816 18.9497 74.3968 17.2961C74.5309 16.8492 74.7096 16.4469 74.8437 16.0894C74.8883 15.9553 75.2011 15.2402 75.7373 15.2402C76.1841 15.2402 76.4523 15.7765 76.5416 16C77.5693 18.6816 78.1502 20.2458 78.3289 20.7374L78.6417 21.4972C78.9098 22.0335 79.3119 22.5698 79.9375 23.0614C80.5631 23.5978 81.2333 23.8212 81.9036 23.8212C82.5738 23.8212 83.1547 23.7318 83.6015 23.5084C84.6292 22.9721 85.3441 22.0335 85.8356 20.7374L90.7061 8.84916C90.9295 8.17877 91.555 6.43575 92.0465 5.31844Z" fill="#161313"/>
</svg>
