<svg width="300" height="44" viewBox="0 0 300 44" fill="none" xmlns="http://www.w3.org/2000/svg">
<path d="M201.978 0.0812956C204.091 0.0812956 205.635 0.243888 206.692 0.569075C207.749 0.894263 208.48 1.46334 208.886 2.27631C209.293 3.08928 209.537 3.82095 209.618 4.47133C209.699 5.1217 209.781 6.09726 209.781 7.31672V36.3397C209.781 37.6404 209.699 38.5347 209.618 39.1851C209.537 39.8355 209.293 40.5671 208.886 41.3801C208.155 42.8434 206.286 43.5751 203.278 43.5751C200.352 43.5751 196.126 41.4614 194.907 41.4614C192.387 41.4614 190.192 43.5751 185.559 43.5751C180.845 43.5751 176.456 41.3801 172.474 36.9901C168.41 32.6 166.459 27.5596 166.459 21.7876C166.459 16.0155 168.491 10.9751 172.555 6.58504C176.619 2.27631 181.008 0 185.885 0C187.754 0 189.461 0.406484 190.924 1.05686C192.468 1.70723 194.094 1.78853 194.988 1.78853C198.158 1.86982 197.995 0.0812956 201.978 0.0812956ZM180.683 21.9501C180.683 23.7387 181.414 25.4459 182.796 26.9093C184.178 28.3726 185.885 29.1043 187.917 29.1043C189.949 29.1043 191.574 28.3726 192.956 26.828C194.256 25.3646 194.988 23.6574 194.988 21.8689C194.988 20.0803 194.338 18.3731 193.037 16.8284C191.737 15.2838 190.03 14.4708 187.917 14.4708C185.803 14.4708 184.015 15.2838 182.715 16.8284C181.333 18.4544 180.683 20.1616 180.683 21.9501Z" fill="#161313"/>
<path d="M292.197 0.0812956C294.31 0.0812956 295.855 0.243888 296.911 0.569075C297.968 0.894263 298.699 1.46334 299.106 2.27631C299.512 3.08928 299.756 3.82095 299.837 4.47133C299.919 5.1217 300 6.09726 300 7.31672V36.3397C300 37.6404 299.919 38.5347 299.837 39.1851C299.756 39.8355 299.512 40.5671 299.106 41.3801C298.374 42.8434 296.505 43.5751 293.498 43.5751C290.572 43.5751 286.345 41.4614 285.126 41.4614C282.606 41.4614 280.412 43.5751 275.779 43.5751C271.065 43.5751 266.676 41.3801 262.693 36.9901C258.629 32.6 256.678 27.5596 256.678 21.7876C256.678 16.0155 258.71 10.9751 262.774 6.58504C266.838 2.27631 271.227 0 276.104 0C277.973 0 279.68 0.406484 281.143 1.05686C282.688 1.70723 284.313 1.78853 285.207 1.78853C288.296 1.86982 288.215 0.0812956 292.197 0.0812956ZM270.902 21.9501C270.902 23.7387 271.634 25.4459 273.015 26.9093C274.397 28.3726 276.104 29.1043 278.136 29.1043C280.168 29.1043 281.793 28.3726 283.175 26.828C284.476 25.3646 285.207 23.6574 285.207 21.8689C285.207 20.0803 284.557 18.3731 283.257 16.8284C281.956 15.2838 280.249 14.4708 278.136 14.4708C276.023 14.4708 274.235 15.2838 272.934 16.8284C271.552 18.4544 270.902 20.1616 270.902 21.9501Z" fill="#161313"/>
<path d="M250.989 4.55263C253.427 7.56061 254.646 12.1132 254.646 18.2105V36.6649C254.646 38.8599 253.996 40.5671 252.614 41.7866C251.233 43.006 249.445 43.6564 247.088 43.6564C244.73 43.6564 242.942 43.006 241.561 41.7866C240.179 40.5671 239.529 38.8599 239.529 36.6649V18.8609C239.529 16.3407 239.122 14.5521 238.228 13.414C237.334 12.2758 236.034 11.7068 234.245 11.7068C231.97 11.7068 230.182 12.4384 228.881 13.9018C227.581 15.3651 226.849 17.3162 226.849 19.7551V36.6649C226.849 38.8599 226.199 40.5671 224.817 41.7866C223.435 43.006 221.647 43.6564 219.29 43.6564C216.933 43.6564 215.145 43.006 213.763 41.7866C212.381 40.5671 211.731 38.8599 211.731 36.6649V7.07283C211.731 5.04041 212.463 3.41447 213.845 2.19502C215.226 0.894266 217.096 0.0812988 219.371 0.0812988C221.485 0.0812988 223.273 0.812972 224.492 2.03242C225.792 3.25188 227.337 3.00798 227.743 3.00798C228.15 3.00798 229.775 2.76409 232.132 1.78853C235.302 0.487782 237.009 0.0812988 239.854 0.0812988C244.812 0.0812988 248.551 1.54464 250.989 4.55263Z" fill="#161313"/>
<path d="M103.143 2.11372C104.525 3.33317 105.175 5.04041 105.175 7.23542V36.6649C105.175 38.616 104.443 40.2419 103.062 41.5427C101.68 42.8434 99.8104 43.6564 97.5346 43.6564C95.5026 43.6564 93.7958 42.9247 92.4953 41.8679C91.1948 40.7297 90.7072 40.6484 89.9756 40.6484C89.2441 40.6484 87.5373 40.9736 85.5053 42.0305C83.4733 43.0873 81.1975 43.6564 78.5966 43.6564C73.2322 43.6564 69.2495 42.1931 66.6486 39.1851C64.0477 36.1771 62.7473 31.7058 62.7473 25.6085V7.23542C62.7473 5.1217 63.3975 3.41447 64.7792 2.11372C66.161 0.894267 67.9491 0.0812988 70.3062 0.0812988C72.6633 0.0812988 74.4514 0.894267 75.8331 2.11372C77.2149 3.33317 77.8651 5.04041 77.8651 7.23542V25.9337C77.8651 29.9985 79.6532 32.031 83.1482 32.031C85.1802 32.031 86.887 31.2993 88.1875 29.8359C89.488 28.3726 90.1382 26.4215 90.1382 24.0639V7.23542C90.1382 5.1217 90.7884 3.41447 92.1702 2.11372C93.5519 0.894267 95.3401 0.0812988 97.6971 0.0812988C99.9729 0.0812988 101.761 0.894267 103.143 2.11372Z" fill="#161313"/>
<path d="M60.1463 9.67433C60.4714 8.86136 60.7153 7.96709 60.7153 6.99153C60.7153 3.17058 57.6267 0.0812956 53.8066 0.0812956C51.0431 0.0812956 48.6047 1.70723 47.5481 4.06484C47.5481 4.06484 47.5481 4.14614 47.4668 4.14614C47.3855 4.30873 47.3043 4.47133 47.3043 4.55262C46.4915 6.58504 44.1344 13.0888 43.9718 13.414C43.6467 14.3895 43.0778 16.5033 41.9399 16.5033C41.1271 16.5033 40.8832 16.1781 39.9892 13.6579C39.2577 11.5442 38.4449 9.26784 37.2257 5.85337L36.5754 4.47133C36.1691 3.57706 35.3563 2.76409 34.2184 1.86983C33.0805 0.975562 31.6987 0.569076 30.0731 0.569076C28.4476 0.569076 26.9033 1.38205 25.2777 2.92669C24.3836 3.73965 23.8147 4.71522 23.4896 5.77208L20.6448 13.6579C20.6448 13.6579 19.6695 16.5033 18.7754 16.5033C17.8001 16.5033 17.3937 15.2025 16.8247 13.6579C14.9553 8.53617 14.0612 5.93467 13.3297 4.30873C12.2731 1.78853 9.83473 0 6.9087 0C3.08859 0 0 3.08928 0 6.91023C0 7.8045 0.162563 8.69876 0.487678 9.43043L12.5169 39.1851C12.9233 40.1606 13.6548 41.1362 14.7927 42.0305C15.9307 43.006 17.3124 43.4125 19.0192 43.4125C20.7261 43.4125 22.1891 42.7621 23.4896 41.4614C23.9772 40.9736 24.3836 40.4045 24.79 39.7542C25.1964 39.1038 25.359 38.6973 25.4403 38.4534C25.5215 38.2095 25.6841 37.7217 26.0092 36.9901C26.3343 36.2584 26.9846 34.4699 28.0412 31.4619C28.285 30.6489 28.6101 29.9172 28.854 29.2669C28.9352 29.023 29.5042 27.7222 30.4795 27.7222C31.2923 27.7222 31.78 28.6978 31.9426 29.1043C33.812 33.9821 34.8686 36.8275 35.1937 37.7217L35.7627 39.1038C36.2503 40.0794 36.9819 41.0549 38.1198 41.9492C39.2577 42.9247 40.4768 43.3312 41.696 43.3312C42.9152 43.3312 43.9718 43.1686 44.7846 42.7621C46.654 41.7866 47.9545 40.0794 48.8486 37.7217L57.7079 16.0968C58.1143 14.8773 59.3335 11.7067 60.1463 9.67433Z" fill="#161313"/>
<path d="M167.434 9.67433C167.76 8.86136 168.003 7.96709 168.003 6.99153C168.003 3.17058 164.915 0.0812956 161.095 0.0812956C158.331 0.0812956 155.893 1.70723 154.836 4.06484C154.836 4.06484 154.836 4.14614 154.755 4.14614C154.674 4.30873 154.592 4.47133 154.592 4.55262C153.78 6.58504 151.422 13.0888 151.26 13.414C150.935 14.3895 150.366 16.5033 149.228 16.5033C148.415 16.5033 148.171 16.1781 147.277 13.6579C146.546 11.5442 145.733 9.26784 144.514 5.85337L143.864 4.47133C143.457 3.57706 142.644 2.76409 141.506 1.86983C140.369 0.975562 138.987 0.569076 137.361 0.569076C135.736 0.569076 134.191 1.38205 132.566 2.92669C131.672 3.73965 131.103 4.71522 130.778 5.77208L127.933 13.6579C127.933 13.6579 126.958 16.5033 126.063 16.5033C125.088 16.5033 124.682 15.2025 124.113 13.6579C122.243 8.53617 121.349 5.93467 120.618 4.30873C119.561 1.78853 117.123 0 114.197 0C110.377 0 107.288 3.08928 107.288 6.91023C107.288 7.8045 107.451 8.69876 107.776 9.43043L119.805 39.1851C120.211 40.1606 120.943 41.1362 122.081 42.0305C123.219 43.006 124.6 43.4125 126.307 43.4125C128.014 43.4125 129.477 42.7621 130.778 41.4614C131.265 40.9736 131.672 40.4045 132.078 39.7542C132.485 39.1038 132.647 38.6973 132.728 38.4534C132.81 38.2095 132.972 37.7217 133.297 36.9901C133.622 36.2584 134.273 34.4699 135.329 31.4619C135.573 30.6489 135.898 29.9172 136.142 29.2669C136.223 29.023 136.792 27.7222 137.768 27.7222C138.58 27.7222 139.068 28.6978 139.231 29.1043C141.1 33.9821 142.157 36.8275 142.482 37.7217L143.051 39.1038C143.538 40.0794 144.27 41.0549 145.408 41.9492C146.546 42.9247 147.765 43.3312 148.984 43.3312C150.203 43.3312 151.26 43.1686 152.073 42.7621C153.942 41.7866 155.243 40.0794 156.137 37.7217L164.996 16.0968C165.402 14.8773 166.54 11.7067 167.434 9.67433Z" fill="#161313"/>
</svg>
