<svg width="14" height="14" viewBox="0 0 14 14" fill="none" xmlns="http://www.w3.org/2000/svg">
<path fill-rule="evenodd" clip-rule="evenodd" d="M5.25002 8.33652L1.25788 2.06317C1.01076 1.67483 1.28972 1.16666 1.75002 1.16666H12.25C12.7103 1.16666 12.9893 1.67483 12.7422 2.06317L8.75002 8.33652V11.0833C8.75002 11.3043 8.62519 11.5063 8.42756 11.6051L6.09423 12.7717C5.70637 12.9657 5.25002 12.6836 5.25002 12.25V8.33652ZM2.81266 2.33332L6.32549 7.85348C6.38505 7.94708 6.41668 8.05572 6.41668 8.16666V11.3061L7.58335 10.7228V8.16666C7.58335 8.05572 7.61499 7.94708 7.67455 7.85348L11.1874 2.33332H2.81266Z" fill="#8B8989"/>
</svg>
